<svg xmlns="http://www.w3.org/2000/svg" version="1.1" xmlns:xlink="http://www.w3.org/1999/xlink" width="512" height="512" x="0" y="0" viewBox="0 0 512 512" style="enable-background:new 0 0 512 512" xml:space="preserve" class=""><g><linearGradient id="a" x1="177.58" x2="437.03" y1="177.56" y2="437" gradientUnits="userSpaceOnUse"><stop stop-opacity="1" stop-color="#b74e00" offset="0"></stop><stop stop-opacity="1" stop-color="#52000b" offset="0"></stop><stop stop-opacity="1" stop-color="#52000b" offset="1"></stop></linearGradient><g data-name="Layer 2"><g data-name="Layer 1 copy 8"><g data-name="97"><circle cx="256" cy="256" r="256" fill="#840012" opacity="1" data-original="#fe8205" class=""></circle><path fill="url(#a)" d="M497.6 340.82a256.64 256.64 0 0 1-156.73 156.77L130.27 287 116 256l13.13-30 27.7-10.84h58.34v-58.33l10.32-27.13L256 116l26.89 10.11z" opacity="1" data-original="url(#a)" class=""></path><path fill="#ffffff" d="M355.17 215.17h-58.34v-58.34A40.83 40.83 0 0 0 256 116a40.83 40.83 0 0 0-40.83 40.83v58.34h-58.34A40.83 40.83 0 0 0 116 256a40.83 40.83 0 0 0 40.83 40.83h58.34v58.34A40.83 40.83 0 0 0 256 396a40.83 40.83 0 0 0 40.83-40.83v-58.34h58.34A40.83 40.83 0 0 0 396 256a40.83 40.83 0 0 0-40.83-40.83z" opacity="1" data-original="#ffffff" class=""></path></g></g></g></g></svg>