<svg xmlns="http://www.w3.org/2000/svg" version="1.1" xmlns:xlink="http://www.w3.org/1999/xlink" width="512" height="512" x="0" y="0" viewBox="0 0 64 64" style="enable-background:new 0 0 512 512" xml:space="preserve" class=""><g><g data-name="Layer 13"><path fill="#f3a845" d="M51 2a11 11 0 0 0-8 18.53L42 24l3.48-1.49A11 11 0 1 0 51 2z" opacity="1" data-original="#f3a845"></path><path fill="#eecc61" d="M51 2a11 11 0 0 0-9.21 17H53a5 5 0 0 0 5-5V4.51A11 11 0 0 0 51 2z" opacity="1" data-original="#eecc61" class=""></path><path fill="#840012" d="M30 30h16v28H30z" opacity="1" data-original="#939393" class=""></path><path fill="#bce4f8" d="M30 34h16v8H30z" opacity="1" data-original="#bce4f8" class=""></path><path fill="#e4f5fd" d="M30 34v6h12a2 2 0 0 0 2-2v-4z" opacity="1" data-original="#e4f5fd"></path><path fill="#840012" d="M6 14h24v44H6z" opacity="1" data-original="#686868" class=""></path><path fill="#840012" d="M13 48h10v10H13z" opacity="1" data-original="#939393" class=""></path><path fill="#bce4f8" d="M6 32h24v10H6z" opacity="1" data-original="#bce4f8" class=""></path><path fill="#e4f5fd" d="M6 32v7h18a3 3 0 0 0 3-3v-4z" opacity="1" data-original="#e4f5fd"></path><path fill="#bce4f8" d="M6 18h24v10H6z" opacity="1" data-original="#bce4f8" class=""></path><path fill="#e4f5fd" d="M6 18v7h18a3 3 0 0 0 3-3v-4z" opacity="1" data-original="#e4f5fd"></path><path fill="#840012" d="M2 58h52v4H2zM10 10h16v4H10z" opacity="1" data-original="#686868" class=""></path><path fill="#559b38" d="M51.78 48.12a3 3 0 1 0-5.56 0 3 3 0 1 0 2.78 5.1 3 3 0 1 0 2.78-5.1z" opacity="1" data-original="#559b38"></path><path fill="#bebebe" d="M30 42h16v4H30zM38 52a3 3 0 0 0-3 3v3h6v-3a3 3 0 0 0-3-3z" opacity="1" data-original="#bebebe"></path><path fill="#6bc148" d="M52 49v-.81l-.22-.07a3 3 0 1 0-5.56 0A3 3 0 0 0 44 51a3 3 0 0 0 .18 1H49a3 3 0 0 0 3-3z" opacity="1" data-original="#6bc148" class=""></path><g fill="#939393"><path d="M6 16h19a2 2 0 0 0 2-2H6zM6 30h19a2 2 0 0 0 2-2H6zM10 12h12a2 2 0 0 0 2-2H10z" fill="#840012" opacity="1" data-original="#939393" class=""></path></g><path fill="#840012" d="M2 58v2h47a3 3 0 0 0 2.82-2z" opacity="1" data-original="#868686" class=""></path><path d="M51 55a4 4 0 0 0 2-7.47 3.15 3.15 0 0 0 0-.53 4 4 0 0 0-4-4 3.91 3.91 0 0 0-2 .56V30a1 1 0 0 0-1-1H31V14a1 1 0 0 0-1-1h-3v-3a1 1 0 0 0-1-1h-7V1h-2v8h-7a1 1 0 0 0-1 1v3H6a1 1 0 0 0-1 1v43H2a1 1 0 0 0-1 1v4a1 1 0 0 0 1 1h52a1 1 0 0 0 1-1v-4a1 1 0 0 0-1-1h-4v-2.13a4.15 4.15 0 0 0 1 .13zm-2-10a2 2 0 0 1 2 2 1.92 1.92 0 0 1-.15.74 1 1 0 0 0 0 .82.94.94 0 0 0 .63.52 2 2 0 1 1-1.85 3.4 1 1 0 0 0-1.34 0 2 2 0 1 1-1.85-3.4.94.94 0 0 0 .63-.52 1 1 0 0 0 0-.82A1.92 1.92 0 0 1 47 47a2 2 0 0 1 2-2zm-7 12v-2a4 4 0 0 0-8 0v2h-3V47h14v.55a4 4 0 0 0 0 6.89V57zm-2 0h-4v-2a2 2 0 0 1 4 0zM14.71 22.71l3.7-3.71H29v8H7v-2.59L12.41 19h3.18l-2.3 2.29zM45 43v2H31v-2zm0-2h-6v-6h6zm-8 0h-6v-6h6zm-8-10H7v-2h22zM7 21.59V19h2.59zM7 33h2.59L7 35.59zm0 5.41L12.41 33h3.18l-2.3 2.29 1.42 1.42 3.7-3.71H29v8H7zM45 31v2H31v-2zM11 11h14v2H11zm18 4v2H7v-2zM7 43h22v14h-5v-9a1 1 0 0 0-1-1H13a1 1 0 0 0-1 1v9H7zm7 14v-8h3v8zm5-8h3v8h-3zm34 12H3v-2h50zm-6-4v-2a4.15 4.15 0 0 0 1-.13V57z" fill="#000000" opacity="1" data-original="#000000" class=""></path><path d="m10.286 38.292 2-2 1.415 1.413-2 2zM10.288 24.284l2-2 1.415 1.413-2 2zM51 1a12 12 0 0 0-9.12 19.78L41 23.73a1 1 0 0 0 .3 1 1 1 0 0 0 .7.27 1 1 0 0 0 .39-.08l3-1.3A12 12 0 1 0 51 1zm0 22a10 10 0 0 1-5-1.36 1 1 0 0 0-.51-.13.91.91 0 0 0-.39.08l-1.55.66.45-1.45a1 1 0 0 0-.23-1A10 10 0 1 1 51 23z" fill="#000000" opacity="1" data-original="#000000" class=""></path><path d="M51 8a2 2 0 0 1 2 2h2a4 4 0 0 0-3-3.86V4h-2v2.14A4 4 0 0 0 51 14a2 2 0 1 1-2 2h-2a4 4 0 0 0 3 3.86V22h2v-2.14A4 4 0 0 0 51 12a2 2 0 0 1 0-4z" fill="#000000" opacity="1" data-original="#000000" class=""></path></g></g></svg>