<svg xmlns="http://www.w3.org/2000/svg" version="1.1" xmlns:xlink="http://www.w3.org/1999/xlink" width="512" height="512" x="0" y="0" viewBox="0 0 512 512" style="enable-background:new 0 0 512 512" xml:space="preserve" class=""><g><circle cx="256" cy="256" r="256" fill="#840012" opacity="1" data-original="#ffce00" class=""></circle><path fill="#390008" d="M512 256c0-10.222-.599-20.304-1.764-30.213l-37.304-37.304-20.228 9.535-58.096-58.096-268.691 284.832 82.908 82.908A257.37 257.37 0 0 0 256 512c141.385 0 256-114.615 256-256z" opacity="1" data-original="#ffa300" class=""></path><path fill="#ffffff" d="M125.917 75.246h134.001v349.509H125.917z" opacity="1" data-original="#ffffff"></path><path fill="#e9edf5" d="m394.608 139.922-64.676-64.676H256.12v349.508h138.488z" opacity="1" data-original="#e9edf5" class=""></path><path fill="#cdd2e1" d="M329.932 139.922h64.676l-64.676-64.676zM172.28 139.761h68.174v30H172.28zM172.28 212.738h170.715v30H172.28z" opacity="1" data-original="#cdd2e1" class=""></path><path fill="#afb4c8" d="M256.12 212.738h86.875v30H256.12z" opacity="1" data-original="#afb4c8"></path><path fill="#cdd2e1" d="M172.28 268.774h170.715v30H172.28z" opacity="1" data-original="#cdd2e1" class=""></path><path fill="#afb4c8" d="M256.12 268.774h86.875v30H256.12z" opacity="1" data-original="#afb4c8"></path><path fill="#cdd2e1" d="M313.628 325.957c-20.949-.857-32.281 14.366-40.554 25.474-7.662 10.286-11.655 14.823-17.745 15.096-3.611.168-9.477-7.706-14.2-14.027-6.632-8.877-14.056-18.793-25.193-24.045v40.453l1.159 1.548c8.707 11.654 19.482 26.078 37.955 26.078.534 0 1.075-.012 1.621-.037 20.942-.938 32.224-16.085 40.462-27.145 7.615-10.223 10.888-13.58 15.282-13.418 10.509.425 30.256 20.696 40.463 35.155l24.541-17.255c-5.474-7.787-34.275-46.683-63.791-47.877z" opacity="1" data-original="#cdd2e1" class=""></path><path fill="#afb4c8" d="M313.628 325.957c-20.949-.857-32.281 14.366-40.554 25.474-7.323 9.831-11.299 14.399-16.953 15.024v30.054c.184-.006.365-.004.551-.013 20.942-.938 32.224-16.085 40.462-27.145 7.615-10.223 10.888-13.58 15.282-13.418 10.509.425 30.256 20.696 40.463 35.155l24.541-17.255c-5.475-7.786-34.276-46.682-63.792-47.876z" opacity="1" data-original="#afb4c8"></path><path fill="#555a66" d="m389.724 371.224-36.874 19.898-4.991-38.961 83.209-182.74 41.864 19.062z" opacity="1" data-original="#555a66" class=""></path><path fill="#333940" d="m472.932 188.483-20.266-9.227-99.788 211.832 36.846-19.864z" opacity="1" data-original="#333940" class=""></path><path fill="#f2f6fc" d="m410.39 289.189 36.725-80.723 27.3 12.42-36.724 80.723z" opacity="1" data-original="#f2f6fc" class=""></path></g></svg>