<svg xmlns="http://www.w3.org/2000/svg" version="1.1" xmlns:xlink="http://www.w3.org/1999/xlink" width="512" height="512" x="0" y="0" viewBox="0 0 512 512" style="enable-background:new 0 0 512 512" xml:space="preserve" class=""><g><circle cx="250.5" cy="267" r="245" fill="#840012" opacity="1" data-original="#49b6fc" class=""></circle><circle cx="239.147" cy="283.673" r="200" fill="#da0f2b" opacity="1" data-original="#65befc" class=""></circle><path fill="#ffb509" d="M145.839 389.048H59.656c-5.523 0-10-4.477-10-10V10c0-5.523 4.477-10 10-10h86.183c5.523 0 10 4.477 10 10v369.048c0 5.522-4.477 10-10 10z" opacity="1" data-original="#ffb509" class=""></path><path fill="#ffc143" d="M382.371 389.048h-235.85c-5.523 0-10-4.477-10-10V10c0-5.523 4.477-10 10-10H382.37c5.523 0 10 4.477 10 10v369.048c.001 5.522-4.477 10-9.999 10z" opacity="1" data-original="#ffc143" class=""></path><path fill="#d9e7ec" d="M461.874 420.187H129.159a5 5 0 0 1-5-5V36.139a5 5 0 0 1 5-5h332.715a5 5 0 0 1 5 5v379.048a5 5 0 0 1-5 5z" opacity="1" data-original="#d9e7ec" class=""></path><path fill="#d9e7ec" d="M125.893 445.549h-24.881a5 5 0 0 1-5-5V61.502a5 5 0 0 1 5-5h24.881a5 5 0 0 1 5 5V440.55a4.999 4.999 0 0 1-5 4.999z" opacity="1" data-original="#d9e7ec" class=""></path><path fill="#ffffff" d="M433.727 445.549H126.335a5 5 0 0 1-5-5V61.502a5 5 0 0 1 5-5h307.392a5 5 0 0 1 5 5V440.55a5 5 0 0 1-5 4.999z" opacity="1" data-original="#ffffff" class=""></path><path fill="#9facba" d="M260.946 113.049h-105a7.5 7.5 0 0 1 0-15h105a7.5 7.5 0 0 1 0 15zM220.946 143.049h-65a7.5 7.5 0 0 1 0-15h65a7.5 7.5 0 0 1 0 15z" opacity="1" data-original="#9facba" class=""></path><g fill="#c5d3dd"><path d="M260.946 188.049h-105a7.5 7.5 0 0 1 0-15h105a7.5 7.5 0 0 1 0 15zM260.946 218.049h-105a7.5 7.5 0 0 1 0-15h105a7.5 7.5 0 0 1 0 15zM332.946 248.049h-177a7.5 7.5 0 0 1 0-15h177a7.5 7.5 0 0 1 0 15z" fill="#c5d3dd" opacity="1" data-original="#c5d3dd" class=""></path></g><path fill="#9facba" d="M252.946 308.049h-97a7.5 7.5 0 0 1 0-15h97a7.5 7.5 0 0 1 0 15zM190.063 402.5h-34.117a7.5 7.5 0 0 1 0-15h34.117a7.5 7.5 0 0 1 0 15z" opacity="1" data-original="#9facba" class=""></path><path fill="#0055ca" d="M190.063 370h-34.117a7.5 7.5 0 0 1 0-15h34.117a7.5 7.5 0 0 1 0 15zM212 370a7.5 7.5 0 1 1 0-15 7.5 7.5 0 0 1 0 15z" opacity="1" data-original="#0055ca"></path><path fill="#c5d3dd" d="M372.946 278.049h-217a7.5 7.5 0 0 1 0-15h217a7.5 7.5 0 0 1 0 15z" opacity="1" data-original="#c5d3dd" class=""></path><path fill="#00c53b" d="M459.01 414.114c0 13.097-3.673 25.337-10.044 35.745a11.28 11.28 0 0 1-3.728 3.728c-10.408 6.371-22.648 10.044-35.745 10.044-37.741 0-68.565-30.823-68.564-68.564 0-13.092 3.67-25.327 10.036-35.733a11.34 11.34 0 0 1 3.749-3.749c10.406-6.367 22.641-10.036 35.733-10.036 37.74 0 68.563 30.824 68.563 68.565z" opacity="1" data-original="#00c53b" class=""></path><path fill="#00b327" d="M449.608 448.788c-11.91 20.277-33.946 33.889-59.162 33.889-37.867 0-68.564-30.697-68.564-68.564 0-25.216 13.612-47.252 33.889-59.162-5.975 10.173-9.402 22.024-9.402 34.675 0 37.867 30.697 68.564 68.564 68.564 12.652 0 24.502-3.427 34.675-9.402z" opacity="1" data-original="#00b327"></path><path fill="#003278" d="M213.655 400.955c-3.905-3.905-3.905-10.237 0-14.142l42.427-42.426c3.905-3.905 10.237-3.905 14.142 0 3.905 3.905 3.905 10.237 0 14.142l-42.427 42.426c-3.906 3.906-10.237 3.906-14.142 0z" opacity="1" data-original="#003278" class=""></path><path fill="#00429c" d="m447.002 181.755-14.142-14.142c-3.905-3.905-3.905-10.237 0-14.142l42.427-42.426c3.905-3.905 10.237-3.905 14.142 0l14.142 14.142c3.905 3.905 3.905 10.237 0 14.142l-42.427 42.426c-3.905 3.905-10.237 3.905-14.142 0zM234.868 379.742c-7.81-7.811-7.81-20.474 0-28.284l28.285-28.284c7.811-7.81 20.474-7.81 28.284 0 7.81 7.811 7.81 20.474 0 28.284l-28.285 28.284c-7.81 7.811-20.474 7.811-28.284 0z" opacity="1" data-original="#00429c" class=""></path><path fill="#0055ca" d="m255.374 357.822-14.142-14.142a5 5 0 0 1 0-7.071l197.992-197.988a5 5 0 0 1 7.071 0l14.142 14.142a5 5 0 0 1 0 7.071L262.445 357.822a5 5 0 0 1-7.071 0z" opacity="1" data-original="#0055ca"></path><path fill="#0066ed" d="m270.93 373.379-15.556-15.557a5 5 0 0 1 0-7.071l197.992-197.988a5 5 0 0 1 7.071 0l15.556 15.557a5 5 0 0 1 0 7.071L278.002 373.379a5 5 0 0 1-7.072 0z" opacity="1" data-original="#0066ed" class=""></path><path fill="#00429c" d="m361.441 294.184-21.213-21.213a5 5 0 0 1 0-7.071l91.925-91.923a5 5 0 0 1 7.071 0l21.213 21.213a5 5 0 0 1 0 7.071l-91.925 91.923a5 5 0 0 1-7.071 0z" opacity="1" data-original="#00429c" class=""></path><circle cx="390.446" cy="414.113" r="45.666" fill="#4bcd5c" opacity="1" data-original="#4bcd5c" class=""></circle><path fill="#ffffff" d="M419.978 406.613h-22.032v-22.032a7.5 7.5 0 0 0-15 0v22.032h-22.032c-4.143 0-7.5 3.358-7.5 7.5s3.357 7.5 7.5 7.5h22.032v22.031a7.5 7.5 0 0 0 15 0v-22.031h22.032c4.143 0 7.5-3.358 7.5-7.5s-3.357-7.5-7.5-7.5z" opacity="1" data-original="#ffffff" class=""></path></g></svg>