<svg xmlns="http://www.w3.org/2000/svg" version="1.1" xmlns:xlink="http://www.w3.org/1999/xlink" width="512" height="512" x="0" y="0" viewBox="0 0 512 512" style="enable-background:new 0 0 512 512" xml:space="preserve" class=""><g><path fill="#840012" d="M512 256c0 141.387-114.613 256-256 256S0 397.387 0 256 114.613 0 256 0s256 114.613 256 256zm0 0" opacity="1" data-original="#ff0335" class=""></path><path fill="#47000a" d="M511.508 271.707 299.16 59.859C288.398 48.262 273.031 41 255.96 41c-31.667 0-57.495 24.965-58.897 56.285-27.16 16.414-45.36 46.227-45.36 80.211v13.168h-.754c-14.8 0-26.8 12-26.8 26.8v28c0 7.313 2.93 13.938 7.675 18.774l19.922 19.684c.438 8.848 4.258 16.82 10.188 22.648l56.734 56.692V371h-56.54c-32.51 0-58.866 26.355-58.866 58.871v31.582c1.215.906 2.445 1.8 3.68 2.688 1 .714 2.007 1.418 3.015 2.12C151.379 495.087 201.711 512 256 512c136.11 0 247.387-106.227 255.508-240.293zm0 0" opacity="1" data-original="#9a0011" class=""></path><path fill="#ffc473" d="M218.664 321.785h74.664V389h-74.664zm0 0" opacity="1" data-original="#ffc473" class=""></path><path fill="#ffaa20" d="M255.996 321.785h37.332V389h-37.332zm0 0" opacity="1" data-original="#ffaa20"></path><path fill="#ffdba9" d="M348.164 205.379c-3.848-56.645-52.156-88.797-92.168-88.797-40.004 0-88.316 32.152-92.164 88.797-10.352 1.941-17.7 11.613-16.547 22.254l1.785 16.46c1.207 11.169 11.332 19.313 22.5 18.102l1.922-.207c22.86 59.504 59.75 74.82 82.508 78.301 22.758-3.48 59.645-18.8 82.504-78.3l1.922.206c11.168 1.211 21.293-6.937 22.504-18.101l1.78-16.461c1.153-10.64-6.194-20.313-16.546-22.254zm0 0" opacity="1" data-original="#ffdba9"></path><path fill="#ffc473" d="m364.715 227.633-1.785 16.46c-1.215 11.169-11.336 19.31-22.5 18.106l-1.93-.21c-22.855 59.503-59.746 74.816-82.504 78.296v-223.7c39.465 0 87.004 31.278 91.988 86.497.075.797.13 1.559.176 2.3 10.356 1.934 17.703 11.614 16.555 22.25zm0 0" opacity="1" data-original="#ffc473" class=""></path><path fill="#ffa91f" d="M256.004 212.36v63.8h18.625v-45.176h40.574V212.36zm0 0" opacity="1" data-original="#ffa91f"></path><path fill="#ffc473" d="M195.41 212.36h47.504v18.624H195.41zm0 0" opacity="1" data-original="#ffc473" class=""></path><path fill="#3c3b41" d="M314.926 99.965c0 32.562-26.403 58.965-58.965 58.965-32.566 0-58.969-26.403-58.969-58.965 0-32.567 26.403-58.969 58.969-58.969 32.562 0 58.965 26.402 58.965 58.969zm0 0" opacity="1" data-original="#3c3b41"></path><path fill="#171719" d="M314.922 99.965c0 32.562-26.402 58.965-58.961 58.965V41c32.559 0 58.96 26.402 58.96 58.965zm0 0" opacity="1" data-original="#171719" class=""></path><path fill="#57555c" d="M159.652 209.367s56.176-.828 96.305-44.59h.004c40.129 43.762 96.305 44.59 96.305 44.59 0-44.957.004-109.402-96.305-109.402-96.309 0-96.309 64.441-96.309 109.402zm0 0" opacity="1" data-original="#57555c"></path><path fill="#3c3b41" d="M352.262 209.367s-14.043-.207-33.102-5.879c-19.062-5.68-43.137-16.828-63.2-38.707V99.965c96.31 0 96.302 64.453 96.302 109.402zm0 0" opacity="1" data-original="#3c3b41"></path><path fill="#0088ff" d="M349.867 371H162.13c-32.512 0-58.867 26.355-58.867 58.871v31.586C145.898 493.203 198.754 512 256 512s110.102-18.797 152.738-50.547v-31.582c0-32.516-26.355-58.871-58.87-58.871zm0 0" opacity="1" data-original="#0088ff" class=""></path><path fill="#005fd2" d="M408.738 429.871v31.59C366.102 493.199 313.25 512 256 512V371h93.871c32.508 0 58.867 26.36 58.867 58.871zm0 0" opacity="1" data-original="#005fd2"></path><path fill="#ffffff" d="m218.664 371 37.34 78 37.324-78zm0 0" opacity="1" data-original="#ffffff"></path><path fill="#fff5cb" d="M293.328 371 256 449v-78zm0 0" opacity="1" data-original="#fff5cb"></path><path fill="#00ffea" d="M232.5 316.375h-46.648c-18.829 0-34.149-15.32-34.149-34.148v-104.73c0-51.638 42.012-93.65 93.652-93.65h21.293c51.637 0 93.649 42.012 93.649 93.65v38.171h-15v-38.172c0-43.367-35.281-78.648-78.649-78.648h-21.293c-43.37 0-78.652 35.28-78.652 78.648v104.73c0 10.56 8.59 19.149 19.149 19.149H232.5zm0 0" opacity="1" data-original="#00ffea" class=""></path><path fill="#00ad95" d="M360.3 177.5v38.172h-15V177.5c0-43.371-35.288-78.648-78.652-78.648H256v-15h10.648c51.633 0 93.653 42.007 93.653 93.648zm0 0" opacity="1" data-original="#00ad95"></path><path fill="#ffffff" d="M162.848 272.266h-11.903c-14.8 0-26.797-12-26.797-26.801v-28c0-14.8 11.997-26.797 26.797-26.797h11.903c7.53 0 13.632 6.102 13.632 13.633v54.332c0 7.527-6.101 13.633-13.632 13.633zm0 0" opacity="1" data-original="#ffffff"></path><path fill="#fff5cb" d="M349.148 272.266h11.903c14.8 0 26.8-12 26.8-26.801v-28c0-14.8-12-26.797-26.8-26.797h-11.903c-7.527 0-13.632 6.102-13.632 13.633v54.332c.004 7.527 6.105 13.633 13.632 13.633zm0 0" opacity="1" data-original="#fff5cb"></path><path fill="#ffffff" d="M259.063 321.875h-26.125a6.937 6.937 0 0 1-6.938-6.938v-12.125a6.937 6.937 0 0 1 6.938-6.937h26.125a6.937 6.937 0 0 1 6.937 6.938v12.125a6.937 6.937 0 0 1-6.938 6.937zm0 0" opacity="1" data-original="#ffffff"></path></g></svg>