<svg xmlns="http://www.w3.org/2000/svg" version="1.1" xmlns:xlink="http://www.w3.org/1999/xlink" width="512" height="512" x="0" y="0" viewBox="0 0 57 58" style="enable-background:new 0 0 512 512" xml:space="preserve" class=""><g><g fill="none" fill-rule="nonzero"><path fill="#84b5cb" d="m56.86 15.52-8.1 27.54a2.788 2.788 0 0 0-.07-.38L36 13l2.47-4.98 17.03 5.01a2.015 2.015 0 0 1 1.36 2.49z" opacity="1" data-original="#84b5cb" class=""></path><path fill="#9fc9d3" d="M20.25 39.47 5.42 30.29.08 12.18a2.015 2.015 0 0 1 1.36-2.49L34.05.08a2 2 0 0 1 2.48 1.36l1.94 6.58 10.22 34.66a2.018 2.018 0 0 1-1.36 2.49l-19.38 5.71z" opacity="1" data-original="#9fc9d3" class=""></path><path fill="#840012" d="M9.925 11.845a4.973 4.973 0 0 0-3.805-.405l-1.92.565a1 1 0 0 0-.677 1.242l2.262 7.674a1 1 0 0 0 1.242.676l1.918-.565a5 5 0 0 0 .979-9.187zm.243 5.826a2.982 2.982 0 0 1-1.786 1.443l-.958.282-1.7-5.755.958-.283a3 3 0 0 1 3.483 4.313zM20.175 16.681A1 1 0 0 0 18.934 16l-2.878.849-.566-1.92 2.877-.848a1 1 0 1 0-.564-1.918l-2.878.849-.566-1.912 2.877-.848a1 1 0 1 0-.564-1.918l-3.837 1.13a1 1 0 0 0-.677 1.242l2.262 7.674a1 1 0 0 0 1.241.676l3.839-1.134a1 1 0 0 0 .675-1.241zM28.242 12.218a2.972 2.972 0 0 0-1.313-1.7 2.987 2.987 0 0 0-3.542-4.167l-2.878.849a1 1 0 0 0-.677 1.242l1.131 3.837 1.131 3.837a1 1 0 0 0 1.242.676l2.877-.848a3 3 0 0 0 2.029-3.726zm-4.291-3.947a1 1 0 0 1 .566 1.918l-1.918.565-.566-1.918zm1.7 5.755-1.917.565-.565-1.918 1.919-.566a1 1 0 1 1 .558 1.919zM28.465 6.9c.096 0 .19-.014.282-.042l1.919-.565 1.979 6.715a1 1 0 1 0 1.917-.566l-1.978-6.716 1.916-.565a1 1 0 1 0-.565-1.918l-2.876.847-2.877.847a1 1 0 0 0 .282 1.96z" opacity="1" data-original="#e64c3c" class=""></path><g fill="#2980ba"><path d="M36.936 16.954a1 1 0 0 0-1.242-.676l-11.51 3.392a1 1 0 0 0 .564 1.918L36.259 18.2a1 1 0 0 0 .677-1.246zM38.349 21.75a1 1 0 0 0-1.242-.676L25.6 24.466a1 1 0 0 0 .564 1.918l11.511-3.392a1 1 0 0 0 .674-1.242zM39.762 26.546a1 1 0 0 0-1.241-.676l-11.51 3.392a1 1 0 1 0 .564 1.918l11.51-3.392a1 1 0 0 0 .677-1.242zM41.176 31.342a1 1 0 0 0-1.241-.676l-11.511 3.392a1 1 0 1 0 .564 1.918L40.5 32.584a1 1 0 0 0 .676-1.242zM42.589 36.138a1 1 0 0 0-1.241-.676l-11.511 3.392a1 1 0 0 0 .564 1.918l11.511-3.392a1 1 0 0 0 .677-1.242zM42.761 40.258 31.25 43.65a1 1 0 1 0 .564 1.918l11.511-3.392a1 1 0 1 0-.564-1.918zM49.732 25.411 48.2 24.96a1 1 0 0 0-.564 1.919l1.53.451a1 1 0 1 0 .564-1.919zM51.143 20.621l-4.621-1.36a1 1 0 0 0-.564 1.919l4.62 1.36a1 1 0 1 0 .565-1.919zM52.552 15.82l-7.72-2.27a1 1 0 0 0-.564 1.919l7.719 2.27a1 1 0 1 0 .565-1.919z" fill="#840012" opacity="1" data-original="#2980ba" class=""></path></g><path fill="#840012" d="M20.25 39.47a14.208 14.208 0 0 1 3.65 2.63 14.011 14.011 0 0 1 4.05 8.78c.037.372.054.746.05 1.12v4a2.006 2.006 0 0 1-2 2H2a2.006 2.006 0 0 1-2-2v-4a14.018 14.018 0 0 1 7.75-12.53z" opacity="1" data-original="#3b97d3" class=""></path><path fill="#fdd7ad" d="M23 33a9 9 0 1 1-9-9 8.953 8.953 0 0 1 9 9z" opacity="1" data-original="#fdd7ad" class=""></path><path fill="#140003" d="M8 50v8H6v-8a1 1 0 0 1 2 0zM22 50v8h-2v-8a1 1 0 0 1 2 0z" opacity="1" data-original="#285680" class=""></path></g></g></svg>