<svg xmlns="http://www.w3.org/2000/svg" version="1.1" xmlns:xlink="http://www.w3.org/1999/xlink" width="512" height="512" x="0" y="0" viewBox="0 0 512 512" style="enable-background:new 0 0 512 512" xml:space="preserve" class=""><g transform="matrix(-1,0,0,1,512,0)"><g data-name="Layer 2"><g data-name="Layer 1 copy 4"><g data-name="55"><circle cx="256" cy="256" r="256" fill="#840012" opacity="1" data-original="#13c5fc" class=""></circle><path fill="#52000b" d="M512 256c0 141.38-114.62 256-256 256S0 397.38 0 256z" opacity="1" data-original="#16a7f7" class=""></path><path fill="#ffffff" d="m421.06 404.12-36.69-91.19a13 13 0 0 0-2.87-4.34L178 105.08A51.56 51.56 0 0 0 105.08 178l203.51 203.5a13 13 0 0 0 4.34 2.87l91.19 36.69a13 13 0 0 0 16.94-16.94zM123.49 123.49a25.54 25.54 0 0 1 36.08 0l30.74 30.74-36.08 36.08-30.74-30.74a25.54 25.54 0 0 1 0-36.08zM325.12 361.2 172.64 208.73l36.09-36.09L361.2 325.12l24.3 60.37z" data-name="55" opacity="1" data-original="#ffffff" class=""></path></g></g></g></g></svg>