<svg xmlns="http://www.w3.org/2000/svg" version="1.1" xmlns:xlink="http://www.w3.org/1999/xlink" width="512" height="512" x="0" y="0" viewBox="0 0 50 50" style="enable-background:new 0 0 512 512" xml:space="preserve" class=""><g><path fill="#840012" d="M48.938 33.99v1.476c0 .172-.117.353-.344.48l-16.266 9.456c-.462.271-1.223.271-1.694 0l-29.28-16.91c-.236-.136-.354-.317-.354-.498v-1.476c0 .18.118.362.353.498l29.29 16.91c.471.262 1.223.271 1.685 0l16.266-9.456c.236-.127.344-.308.344-.48z" opacity="1" data-original="#cb4844" class=""></path><path fill="#b41c31" d="M48.584 33.495c.469.27.477.708.012.978l-16.264 9.452c-.466.27-1.22.267-1.69-.003L1.355 27.012c-.468-.27-.47-.704-.005-.975l16.264-9.451c.465-.27 1.214-.27 1.683 0z" opacity="1" data-original="#ee5550" class=""></path><path fill="#ffffff" d="m14.687 27.86-.195.114-.755.023c.133.077.197.167.191.257-.005.09-.062.164-.177.23a.87.87 0 0 1-.5.117 1.191 1.191 0 0 1-.52-.153.67.67 0 0 1-.314-.361l.3-.053a.544.544 0 0 0 .255.293.63.63 0 0 0 .271.084.419.419 0 0 0 .26-.05c.074-.044.097-.097.085-.157-.023-.06-.087-.124-.197-.187l-.179-.077.19-.11.731-.03-.532-.307.224-.13zM13.08 26.892c.12.07.19.157.208.254.012.1-.045.187-.183.267a.779.779 0 0 1-.276.086 3.16 3.16 0 0 1-.478.03l-.697.004.67.387-.235.137-1.006-.581.212-.123h.888c.202-.004.346-.007.45-.014a.603.603 0 0 0 .235-.063c.064-.037.086-.077.086-.13-.006-.05-.047-.094-.116-.134-.116-.067-.277-.094-.485-.067l-.081-.18a1.56 1.56 0 0 1 .432-.003c.127.013.254.06.375.13zM12.218 26.434l-1.465.852-.237-.137 1.24-.721-.294-.17.224-.13z" opacity="1" data-original="#ffffff" class=""></path><path fill="#b41c31" d="M10.721 25.777c.122.07.163.153.123.243-.04.09-.15.18-.316.277-.16.094-.316.157-.477.184-.155.023-.3 0-.421-.07s-.162-.154-.123-.244c.046-.093.15-.187.31-.28.167-.097.322-.154.483-.18a.64.64 0 0 1 .421.07z" opacity="1" data-original="#ee5550" class=""></path><path fill="#ffffff" d="m17.63 29.56-.224.13-.618-.358-.362.21a.717.717 0 0 1 .26.09c.138.08.214.17.232.274.017.11-.045.2-.183.28a.92.92 0 0 1-.507.115 1.064 1.064 0 0 1-.525-.137c-.197-.114-.284-.244-.273-.391l.31-.027.007.05c0 .02.024.054.052.104a.615.615 0 0 0 .41.21c.105.007.191-.01.271-.057.08-.046.11-.103.097-.163-.023-.06-.075-.117-.168-.17a1 1 0 0 0-.334-.114l.01-.127.701-.407z" opacity="1" data-original="#ffffff" class=""></path><path fill="#840012" d="M17.503 30.424a.714.714 0 0 1 .065.007l-.065.046-.144.064-.167-.01-.03.007c.017-.02.04-.04.07-.057a.471.471 0 0 1 .27-.057z" opacity="1" data-original="#cb4844" class=""></path><path fill="#ffffff" d="M38.586 30.29c.012.12-.074.23-.252.334a1.092 1.092 0 0 1-.581.15 1.29 1.29 0 0 1-.647-.193l-.376-.217 1.138-.661.393.227c.202.117.318.237.325.36zm-.851.328c.138.006.27-.03.396-.104.265-.153.247-.31-.054-.484l-.197-.114-.775.451.214.124c.138.08.277.126.416.127M40.44 31.188l-.171.1-.347-.2-.965.561-.197-.113.965-.561-.347-.2.172-.1zM10.018 28.878l-.195.114-.67-.387-.334.193.601.347-.19.11-.6-.347-.334.194.694.4-.195.114-.908-.524 1.247-.725zM7.762 28.494l-.124.454-.266-.153.119-.418-.283-.163-.42.244-.208-.12 1.247-.725.468.27c.191.11.301.207.313.294.018.084-.045.167-.183.247a.78.78 0 0 1-.663.07zm-.099-.237a.69.69 0 0 0 .306.11.457.457 0 0 0 .242-.066c.08-.047.115-.094.097-.137-.012-.04-.075-.097-.19-.164l-.273-.157-.448.26zM15.807 32.22l-.196.114-.67-.388-.334.194.602.347-.19.11-.601-.347-.333.194.688.397-.196.114-.902-.521 1.247-.725zM14.575 31.509l-1.247.725-.214-.124.977-.568-1.307.25-.121-.07.434-.754-.977.568-.214-.124.255-.148.211-.123.78-.453.33.19-.4.675 1.163-.234z" opacity="1" data-original="#ffffff" class=""></path><path fill="#fee182" d="M20.319 20.24a1.108 1.108 0 0 0-.038-.02l-2.486-1.434.252-.147a.782.782 0 0 1 .715 0l2.162 1.248zM19.778 20.084c-.471-.062-1.017.02-1.432.239l-1.603-.926.92-.535z" opacity="1" data-original="#fee182"></path><path fill="#485f69" d="M18.346 20.323a1.669 1.669 0 0 0-.131.076l-1.604-.926.132-.076zM15.692 20.008l2.116 1.221c.041.106.12.205.237.29l-2.486-1.435z" opacity="1" data-original="#485f69"></path><path fill="#fee182" d="M20.247 20.355c.469.27.408.748-.132 1.061-.546.318-1.37.354-1.838.084-.463-.267-.402-.745.144-1.062.54-.313 1.364-.35 1.826-.083z" opacity="1" data-original="#fee182"></path><path fill="#485f69" d="M20.315 21.459a1.484 1.484 0 0 1-.132.076c-.418.219-.963.3-1.434.238a1.789 1.789 0 0 1-.505-.138l-.033-.017a1.273 1.273 0 0 1-.166-.098.672.672 0 0 1-.237-.29c-.108-.272.032-.588.407-.83a1.644 1.644 0 0 1 .131-.077c.415-.219.961-.3 1.432-.24a1.776 1.776 0 0 1 .54.157 1.264 1.264 0 0 1 .133.077l.028.018a.685.685 0 0 1 .241.293c.11.274-.03.59-.405.83zm-2.039.041c.469.27 1.293.234 1.839-.084.54-.313.6-.79.132-1.061-.462-.267-1.287-.23-1.826.083-.546.317-.607.795-.145 1.062" opacity="1" data-original="#485f69"></path><path fill="#485f69" d="m20.479 20.335 2.49 1.439-.131.076-2.118-1.222a.685.685 0 0 0-.241-.293z" opacity="1" data-original="#485f69"></path><path fill="#fee182" d="m18.045 21.52.033.022-.606.352c-1.576-1.034-2.765-1.314-2.165-1.663l.252-.147z" opacity="1" data-original="#fee182"></path><path fill="#485f69" d="m18.211 21.618-.606.353-.133-.077.606-.352a.905.905 0 0 0 .133.076z" opacity="1" data-original="#485f69"></path><path fill="#fee182" d="M20.315 21.459c.375-.24.515-.557.405-.831l2.118 1.222-.92.535z" opacity="1" data-original="#fee182"></path><path fill="#485f69" d="m20.315 21.459 1.603.926-.132.076-1.603-.926a1.81 1.81 0 0 0 .132-.076z" opacity="1" data-original="#485f69"></path><path fill="#fee182" d="M18.75 21.773a2.522 2.522 0 0 0 1.433-.238l1.603.926-.123.072-.796.463z" opacity="1" data-original="#fee182"></path><path fill="#485f69" d="m18.75 21.773 2.117 1.223-.132.077-2.49-1.438c.149.068.32.114.504.138z" opacity="1" data-original="#485f69"></path><path fill="#b41c31" d="M19.594 23.12a.274.274 0 0 0-.011.026l-.034.093c-.122-.034-.18-.094-.266-.18l-.087-.05c-.075-.043-.075-.057-.093-.12a.253.253 0 0 0-.035-.074zM17.251 30.805c-.08-.047-.121-.104-.128-.167a.15.15 0 0 1 .038-.1l.031-.007.167.01.144-.064.065-.046a.62.62 0 0 1 .217.077c.081.046.128.1.128.16-.011.06-.045.113-.12.157a.512.512 0 0 1-.265.06.628.628 0 0 1-.277-.08z" opacity="1" data-original="#ee5550" class=""></path><path fill="#ffffff" d="M18.236 30.668c0 .1-.068.193-.212.277a.968.968 0 0 1-.495.12 1.055 1.055 0 0 1-.496-.134c-.237-.136-.29-.293-.17-.464.069-.1.178-.19.333-.28.15-.087.287-.154.42-.19.132-.037.253-.06.368-.06.225-.004.415.04.577.133l.035.021c.135.087.222.19.25.31l-.306.036-.058-.12-.105-.1a.714.714 0 0 0-.42-.09c-.15.013-.3.067-.455.15a1.024 1.024 0 0 1 .265.027c.098.017.19.05.266.093.133.077.197.167.203.27zm-.708.217c.104 0 .19-.017.265-.06.075-.044.109-.097.12-.157 0-.06-.047-.114-.128-.16a.62.62 0 0 0-.282-.084.471.471 0 0 0-.271.057.267.267 0 0 0-.07.057.15.15 0 0 0-.039.1c.007.063.047.12.128.167.081.046.174.073.277.08" opacity="1" data-original="#ffffff" class=""></path><path fill="#840012" d="M18.555 29.946c.06.047.072.1.04.145a1.116 1.116 0 0 0-.611-.154c-.115 0-.236.023-.369.06-.132.036-.27.103-.42.19a.997.997 0 0 0-.332.28 1.024 1.024 0 0 0-.092-.06.746.746 0 0 0-.278-.1c-.19-.023-.333.087-.5.124-.208.046-.45.046-.669.066-.202.017-.375.089-.41-.043.005-.023.006-.044-.022-.06-.361.209-.61.294-.876.013l-.133.07c-.205.035-.1-.092-.254-.08l-.155.057c-.173.073-.213.13-.42.144-.023 0-.035-.007-.046-.014-.023-.013-.04-.023-.075-.003-.063.037.029.083 0 .12-.103.12-.42-.01-.581.104-.193.137-.119.235.02.336l-.21.123a.734.734 0 0 1-.186-.074.409.409 0 0 1-.107-.085l.523-.79a.26.26 0 0 0 .101-.021l.144-.097c.115-.074.253-.1.39-.154.127-.053.156-.13.27-.183l.185-.06c.39-.018-.102.066 1.047-.388l.155-.043c.132-.07.276-.153.367-.24.058-.047 0-.08-.035-.127l-.035-.127c-.012-.067-.087-.144-.013-.2.153-.119.063-.043.223-.324l.086-.104-.058-.1.16-.093.116-.034.028-.077c.029-.036.138-.1.196-.066l.127.086.115-.053.11-.017.074.01.132-.096c.07-.04.19-.097.184-.16l-.046-.048c-.11-.014-.159.074-.231-.053l-.076-.083-.017-.11-.047-.114.01-.087-.023-.087-.012-.1c-.064-.1-.02-.274-.195-.375-.142-.082-.057.026-.361-.22l-.024-.093-.012-.093-.04-.043.039-.09.12-.057c.041-.05-.049-.054-.11-.084-.129-.074.074-.133.028-.217-.04-.057-.069-.026-.006-.083.06-.102.23-.28.17-.448-.137.067-.096.244-.315.264-.059-.313.11-.335.176-.437.013-.038-.016-.065-.07-.034-.133-.077-.078-.123-.006-.203.18-.211-.031-.364.354-.588.525-.305.339-.332.511-.37l.121.063c.121-.063-.07-.16-.07-.234 0-.039-.014.14.02-.38l.11-.077-.133-.07.08-.047-.15-.047c.052-.056.19-.13.213-.19.022-.073-.145-.097-.14-.174-.026-.307-.439-.499-.73-.607-.455-.164-1.155-.056-1.256-.054-.075-.005-.123-.034-.193-.031.103-.021.165-.065.278-.079.121-.016.243.007.329-.063.06-.042.084-.112.018-.15l-.129-.054c-.046-.04-.012-.033-.012-.067-.017-.07-.162-.16-.07-.24.27-.241.417.069.622.02l.103-.1c-.1-.043-.156-.018-.364-.164-.08-.06-.104-.193.092-.167l.23.074.082.047-.023.053c.034.1.12-.033.132-.124 0-.08-.186-.16-.054-.223a.269.269 0 0 0 .184.086l1.94 1.12a.282.282 0 0 0 .094.054l.08.046 1.386.8a.253.253 0 0 1 .035.074c.032.114.053.086.18.17.087.086.144.146.266.18l.034-.093c.132.035.515.297.9.073l1.18-.686c.055.011.112.02.17.029 1.64.248 4.608 1.887 2.687 1.272-.144-.05-.305-.03-.461-.054-.566-.085-.168-.134-.83-.006-.127.026-.26.003-.38.053-.167.067-.137.153-.513-.03-.12-.07-.253-.14-.365-.21-.078-.056-.138-.123-.237-.104l-.08.053c-.19.02-.248-.11-.42.11-.082.1-.375.17-.154.298.206.109-.118.198.01.272.123.07.356-.022.406-.119.068-.13-.163-.342.159-.44.12-.033.343.012.38.107-.12.036-.2.036-.287.12l-.04.097.133-.004.138-.12.178.03.14.087.034.067.063-.05.14.086.006.097.115.08c.055.259-.024.26.094.327.059.034.086.053.081.087l.001.107.04.104c-.05.056-.293.063-.154.15l.15.067c.041.05-.005.05-.034.1l.024.113c.047.047.093.047.012.094-.106-.007-.115-.06-.202-.11l-.121.043c-.081-.078-.002-.19-.112-.254-.137.05-.062.14-.072.22l-.104.094-.052.01-.103.04-.151-.22c-.075.003.14.193.013.24-.093-.05-.154-.114-.168-.157v-.087l-.047-.046c-.078-.1.107-.144-.261-.304-.026-.015-.098-.026-.132-.046-.018-.01-.025-.023-.007-.04l.156-.011.283.157.097-.077.208.014.091-.107-.017-.124-.047-.073c-.07-.054-.127-.074-.133-.144-.012-.06.005-.077-.07-.12-.328-.189-.381.143-.49.17l-.109-.003-.104-.04-.109.077c-.017.063.082.133.065.197-.088-.05-.078-.093-.186-.127l-.11-.037-.046-.067c-.041-.024-.15-.007-.164-.015l.1-.082c-.086-.03-.178.024-.259.01-.121-.016-.168-.09-.317-.076l-.179.057-.224.003c-.075-.01-.116-.02-.19.01-.12.05-.036.046.035.113.058.06-.029.077-.075.124-.035.055.229.074.244.2.017.064-.005.117.047.18l.139.1c.15.13.015.114-.114.241-.046.053-.115.113-.074.17l.133.057c.126-.027.16-.154.275-.2l.15-.007c.139.08.212.09.293-.15.028-.097.144-.11.253-.16l.276-.154.11.09.237.144.006.096.024.1.035.08-.178.118.254.146c.115.02.236-.103.328-.07l-.028.077-.046.074-.062.243-.04.09.024.1-.046.06.035.088c.047.053.104.093-.005.13-.164.012-.122.055-.3-.02-.151-.055-.295-.027-.423-.1-.032-.02-.061-.04-.096-.06a1.147 1.147 0 0 0-.566-.127c.098.02.19.007.26.046l.104.144c-.069.053-.12-.004-.184-.02-.098.037 0 .047-.011.08l-.064.03.03.097.098.023.087.044.15.02c-.132.096-.242.066-.358 0l-.144-.057-.185-.033.138-.08-.213-.03-.139-.054c-.18-.056-.165.035-.265.1l-.07-.04-.097.043c-.1.01-.152-.074-.237-.123l-.155.057-.052-.05-.075.036c-.038.022-.064.027-.075.021-.012-.007-.004-.028.029-.054l.022-.053-.068.02-.132.11-.156.083-.218.007c-.133-.01-.37-.08-.485-.027l-.132.117-.063.097-.08.06c-.1.033-.116.033-.126.027-.03-.018-.001-.094-.001-.114l.028-.07.092-.067.023-.067c-.007-.06-.054-.07-.11-.096l-.064-.07-.093-.04-.057-.034-.127-.033h-.07l-.075-.057-.04-.05-.203-.117-.086-.003-.075.01c-.11.01-.113-.095-.328.076l-.144.024-.127.053-.103.08v.08c.035.054-.051.05-.091.08l.081.094-.046.02.052.024.07.013.051.037.075.016.023.027.116.027.057-.027.07-.007.062-.036.185.06.081.053-.028.044-.11.003-.091.073-.122-.003c-.225.075-.267.011.123.284l.006.03-.092.073-.074.044-.173.073.024.1.046.094.098.023.058.014.04.043.018.043.035.067c.03-.018.052-.015.07-.004l.247.014a.248.248 0 0 1 .149.029c.04.023.069.056.106.085.043.026.087.035.127.046a.357.357 0 0 1 .123.037.176.176 0 0 1 .038.03l.053.09c.101.059.258.137.341.237l.047.147c.012.203-.113.103.065.25.05.036.213.28.175.341l-.052.044v.046l-.103.067c-.121.03-.196-.013-.3.053.123.085.28-.067.341.064l-.103.053c.197.034.245-.03.272.224 0 .046.019.072.05.09.048.028.126.036.204.077.079.044.087.065.087.11-.017.077-.01.073.059.133zm-2.327.355a.921.921 0 0 0 .507-.114c.138-.08.2-.17.183-.28-.018-.104-.094-.194-.232-.274a.721.721 0 0 0-.26-.09l.361-.21.62.357.223-.13-.844-.488-.701.407-.01.127c.126.02.242.06.334.114.093.053.145.11.168.17.012.06-.016.117-.097.163a.457.457 0 0 1-.27.057.612.612 0 0 1-.41-.21c-.03-.05-.053-.084-.053-.104l-.006-.05-.311.027c-.01.147.076.277.273.39.15.087.323.134.525.138" opacity="1" data-original="#cb4844" class=""></path><path fill="#fee182" d="m18.211 21.618.033.017 2.49 1.438c-.1.034-.507.411-.966.146l-.7-.404-1.336-.771-.05-.029-.077-.044z" opacity="1" data-original="#fee182"></path><path fill="#840012" d="m27.596 25.516.041.077.006.063c.03.054.184.074.197.154-.31-.055-.801-.398-.947-.354.058.037-.185-.105.567.327l-.075.03c-.062.03-.069.066-.017.096.462.267-.057-.198 1.086.462-.034.06-.282-.024-.352-.037-.104-.027-.213-.017-.311-.033l-.19-.05-.133.056-.086.004c-.38.039-.161.146-.172.247-.01.113-.259.097-.368.147-.12.057-.161.067-.305.023-.222-.085-.169.078-.27.137l-.173.1-.12.044c-.61-.16-.36-.144-.716-.174-.15-.02-.232-.14-.399-.124l-.195.04-.22-.046c-.116-.067-.014-.04-.311-.074l-.122-.056c-.098-.017-.15.06-.241.073l-.167-.003c-.117.045-.165.244-.403.107l-.087-.057-.018-.057c-.013-.006.047.02-.12-.056-.063-.036-.058-.061-.048-.128v-.167l.01-.146c.051-.07.172-.134.252-.194l.086-.097c.098-.09.288-.107.385-.19-.202-.158.523-.345.406-.718a.236.236 0 0 0-.169-.164c-.1-.036-.33-.131-.43-.19a.192.192 0 0 1-.037-.027l-.007-.07-.064-.056-.11-.117c.04-.084.231.053.318.03-.052-.03-.272-.177-.134-.217l.098.01.075-.004c.047.003.079.011.109.029.026.015.103.072.203.145l.104-.007.075.044c.075.03.225.023.282-.03-.05-.03-.272-.104-.249-.157.13-.076.213-.005.324.08.08.06.158.117.26.123.144.004.103-.073.05-.11-.057-.04-.115-.073-.011-.113.89.407.38.367.6.494a.228.228 0 0 0 .013.007c.099.05.156-.03.231 0 .1.065.17.155.295.17.103-.04-.064-.09.034-.134.532.077 1.099.508 1.67.838zM26.887 27.621c.051.03.065.06.024.102l-.04.077-.063.077-.15-.02c-.074.003-.086-.004-.15-.034-.093-.043-.19-.062-.266-.106a.29.29 0 0 1-.051-.037l-.105-.054-.052-.07.08-.047-.005-.056c.046-.027.138.066.161 0l-.19-.097.034-.02c.047-.037.124-.009.178.022a.257.257 0 0 1 .053.038l.075.077.075.023.127.074c.075.043.167.003.243.04a.457.457 0 0 1 .022.011z" opacity="1" data-original="#cb4844" class=""></path><path fill="#ffffff" d="m7.491 27.42-.7.407a1.063 1.063 0 0 1-.564.153c-.196 0-.375-.043-.531-.133-.157-.09-.232-.194-.233-.307 0-.114.086-.224.263-.328l.701-.407.214.124-.69.4c-.114.067-.177.137-.188.21-.005.07.035.134.134.19a.633.633 0 0 0 .334.081.847.847 0 0 0 .357-.114l.69-.4z" opacity="1" data-original="#ffffff" class=""></path><path fill="#b41c31" d="M8.308 28.164c.018.043-.016.09-.097.137a.457.457 0 0 1-.242.067.69.69 0 0 1-.306-.11l-.266-.154.448-.26.272.156c.116.067.18.124.191.164z" opacity="1" data-original="#ee5550" class=""></path><path fill="#ffffff" d="M34.965 27.993c.179.104.266.227.25.37l-.254.008-.047-.154a.492.492 0 0 0-.139-.113.809.809 0 0 0-.404-.107.798.798 0 0 0-.403.1c-.115.067-.178.144-.171.234-.006.09.047.166.157.23.069.04.132.064.207.08l.26.024-.005.143c-.26.01-.467-.037-.64-.137-.174-.1-.267-.214-.268-.347 0-.127.08-.24.252-.34.167-.097.368-.147.593-.144.23 0 .438.053.612.153zM37.602 29.55l-.178.103-.613-.354-.305.177.55.317-.167.097-.55-.317-.304.177.63.363-.183.107-.827-.477 1.137-.661z" opacity="1" data-original="#ffffff" class=""></path><path fill="#840012" d="M17.956 30.127c.12-.014.24.005.353.055-.145 0-.304-.018-.393.048-.102.005-.156.029-.196.065a1.024 1.024 0 0 0-.218-.018c.155-.083.305-.137.454-.15z" opacity="1" data-original="#cb4844" class=""></path><path fill="#ffffff" d="m11.47 29.716-1.247.725-.231-.134.196-.938-.907.528-.214-.124 1.246-.724.214.123-.202.962.93-.541z" opacity="1" data-original="#ffffff" class=""></path><path fill="#b41c31" d="M37.735 30.618a.838.838 0 0 1-.416-.127l-.214-.124.775-.45.197.113c.3.174.319.33.054.484a.713.713 0 0 1-.396.104zM11.958 30.464c-.074.054-.085.103-.083.157l-.105.16-.457-.263.743-.17-.06.09a.589.589 0 0 0-.038.026z" opacity="1" data-original="#ee5550" class=""></path><path fill="#ffffff" d="m39.342 30.554-1.137.661-.197-.113 1.138-.661zM20.261 31.078l-.224.13-1.865.361-.272-.157 1.848-.37-.52-.3-.201.116-.226-.13.425-.247zM20.665 32.077c.052.13 0 .247-.16.34a.833.833 0 0 1-.466.097c-.19-.01-.37-.06-.531-.154-.168-.097-.25-.197-.267-.307-.018-.103.04-.197.165-.27.161-.094.357-.127.588-.094-.024-.113.022-.2.137-.267a.697.697 0 0 1 .42-.077c.167.01.323.054.468.137.138.08.22.174.238.27.023.094-.028.178-.137.241-.115.067-.265.094-.455.084zm-.673.243a.424.424 0 0 0 .27-.05c.075-.043.11-.097.086-.157a.303.303 0 0 0-.145-.157.735.735 0 0 0-.277-.086.456.456 0 0 0-.27.05c-.076.043-.104.1-.08.16.023.06.075.11.15.153.07.04.156.07.266.087m.583-.794a.407.407 0 0 0-.236.043c-.063.037-.086.083-.074.137.012.053.047.1.122.144.07.04.156.063.248.07a.408.408 0 0 0 .236-.044c.063-.036.086-.083.074-.137-.006-.056-.052-.103-.121-.143a.505.505 0 0 0-.249-.07" opacity="1" data-original="#ffffff" class=""></path><path fill="#b41c31" d="M20.265 31.706c-.012-.054.01-.1.074-.137a.407.407 0 0 1 .236-.043.505.505 0 0 1 .249.07c.069.04.115.087.121.143.012.054-.01.1-.074.137a.408.408 0 0 1-.236.044.585.585 0 0 1-.248-.07c-.075-.044-.11-.09-.122-.144zM20.348 32.113c.023.06-.011.114-.086.157a.424.424 0 0 1-.27.05.75.75 0 0 1-.266-.087.325.325 0 0 1-.15-.153c-.024-.06.004-.117.08-.16a.456.456 0 0 1 .27-.05c.104.013.196.04.277.086.075.044.127.1.145.157z" opacity="1" data-original="#ee5550" class=""></path><path fill="#ffffff" d="M41.667 31.863c.179.103.26.223.25.37l-.254.007-.047-.154a.507.507 0 0 0-.145-.116.803.803 0 0 0-.398-.104.752.752 0 0 0-.403.1c-.115.067-.178.144-.171.234-.006.09.047.167.157.23a.726.726 0 0 0 .207.08l.26.024-.005.143c-.26.01-.467-.036-.64-.136-.174-.1-.267-.214-.268-.348 0-.127.08-.24.252-.34.167-.097.368-.147.593-.144.23 0 .432.05.612.154z" opacity="1" data-original="#ffffff" class=""></path><path fill="#b41c31" d="m42.524 32.657-.263.394-.416-.24z" opacity="1" data-original="#ee5550" class=""></path><path fill="#ffffff" d="m42.858 32.584-.634.951-.208-.12.142-.217-.572-.33-.374.083-.203-.117 1.64-.37zm-1.013.227.416.24.263-.394z" opacity="1" data-original="#ffffff" class=""></path><path fill="#b41c31" d="M23.438 33.71c.108-.033.191-.102.261-.148.09-.056.116-.12.16-.182.05.04.076.085.076.132.006.064-.04.117-.114.16a.433.433 0 0 1-.26.057.69.69 0 0 1-.123-.019z" opacity="1" data-original="#ee5550" class=""></path><path fill="#ffffff" d="M24.201 33.686c-.069.1-.183.193-.332.28s-.294.15-.42.19c-.138.04-.26.064-.374.064a1.096 1.096 0 0 1-.577-.134.65.65 0 0 1-.223-.2.465.465 0 0 1-.062-.137l.311-.033.026.057.027.06.11.103a.693.693 0 0 0 .42.09c.15-.013.3-.066.45-.153a1.098 1.098 0 0 1-.26-.024.816.816 0 0 1-.271-.096.565.565 0 0 1-.11-.082c-.06-.055-.091-.117-.088-.186 0-.1.068-.193.212-.277s.305-.123.49-.117c.368 0 .893.257.671.595zm-.64.043a.433.433 0 0 0 .26-.057c.074-.043.12-.096.114-.16 0-.047-.026-.092-.076-.132a.546.546 0 0 0-.323-.105.453.453 0 0 0-.265.06c-.074.044-.115.094-.12.15 0 .06.041.11.128.16a.621.621 0 0 0 .283.084" opacity="1" data-original="#ffffff" class=""></path><path fill="#840012" d="M23.86 33.38c-.045.063-.071.126-.161.182-.07.046-.153.115-.26.148a.621.621 0 0 1-.16-.064c-.087-.05-.128-.1-.128-.16.005-.057.046-.107.12-.15a.453.453 0 0 1 .265-.06.546.546 0 0 1 .323.104z" opacity="1" data-original="#cb4844" class=""></path><path fill="#b41c31" d="M22.55 33.773c.019-.018.037-.035.055-.05.091-.074.103-.087.259-.057l.051.005c.03.03.067.056.11.082.082.046.174.08.272.096.104.02.185.027.26.024-.15.087-.3.14-.45.153a.693.693 0 0 1-.42-.09l-.11-.103z" opacity="1" data-original="#ee5550" class=""></path><path fill="#ffffff" d="m43.464 33.772-.118.411-.243-.14.113-.38-.255-.148-.385.224-.196-.114 1.137-.66.428.247c.174.1.272.19.29.267.017.077-.045.153-.172.227a.724.724 0 0 1-.599.066zm-.093-.22c.11.063.202.097.277.1a.388.388 0 0 0 .219-.06c.074-.043.109-.083.097-.123-.018-.037-.076-.09-.18-.15l-.243-.14-.407.236z" opacity="1" data-original="#ffffff" class=""></path><path fill="#840012" d="M25.093 34.353c-.098.11-.35.197-.53.247-.161.045-.336.086-.506.124-.053-.055-.064-.113-.035-.177.045-.092.14-.188.298-.28.086.02.169.058.26.056.192-.006.314-.087.474.006a.461.461 0 0 1 .039.024zM23.687 34.534c-.025.089 0 .173.077.254a.208.208 0 0 1-.146-.021l-.01-.006c-.093-.06-.047-.18.01-.234a.305.305 0 0 1 .093-.053.361.361 0 0 0-.024.06z" opacity="1" data-original="#cb4844" class=""></path><path fill="#ffffff" d="M25.692 34.414c-.04.136-.177.27-.406.403-.23.134-.46.214-.697.238a1.104 1.104 0 0 1-.657-.14.729.729 0 0 1-.168-.127c-.077-.08-.102-.165-.077-.254a.361.361 0 0 1 .024-.06c.057-.117.18-.233.378-.348.23-.133.465-.21.701-.233.236-.024.456.023.658.14.197.113.278.24.244.38zm-1.133.444c.162-.027.323-.087.484-.18.166-.097.27-.191.309-.281.046-.087.005-.17-.116-.24a.625.625 0 0 0-.422-.07c-.16.026-.322.08-.488.176l-.006.004c-.157.092-.253.188-.298.28-.029.064-.018.122.035.177.021.023.05.045.087.067.122.07.266.093.415.067M26.732 34.814l-1.465.852-.237-.137 1.24-.721-.3-.174.224-.13z" opacity="1" data-original="#ffffff" class=""></path><path fill="#840012" d="M41.269 35.993c.064.117-.063.09-.196.046l-.109.057-.058-.087-.08-.06-.025-.073-.08-.054-.081-.06.01-.08c-.075-.043-.195.04-.247.064-.083-.048-.13-.115-.099-.17-.069.033-.092.066-.091.113l.023.06-.046.033c-.023.04.006.077-.103.06-.331-.21-.155-.077-.583-.183-.105-.034-.139-.007-.237.003-.045.005-.07.003-.083-.005-.03-.018.004-.066-.033-.115-.179-.01-.312-.134-.485-.147-.104-.007-.126.027-.184.067l-.16.087c-.122-.064-.185.053-.271.07l-.248.003c-.104-.013-.133-.077-.225-.083-.121-.004-.225.063-.346.066a.953.953 0 0 0 .276-.14c.107-.096-.01-.276.431-.257.11.003.208-.007.317.017l.196.067.173-.014c.087-.003.23.02.311-.013.053-.028.058-.045.04-.055-.042-.025-.338.019-.413-.024l.067-.085c-.196-.049-.127-.044-.324-.147-.155-.043-.293.097-.437.06-.098-.049.015-.092-.036-.133l-.207-.053c-.124-.07-.134-.22-.273-.258-.086-.023-.202-.01-.288-.04-.081-.026-.121-.07-.202-.09-.14-.04-.271.024-.41.037l-.195-.013c-.058-.007-.128-.047-.185-.007-.051.043.058.087.058.127.006.04-.06.052-.005.084.063.03.157.013.218.048l.002.152-.155.023c-.348.011.006.008-.731.17-.323.062-.32.135-.646-.027a1.223 1.223 0 0 0-.427-.06l-.265.034-.121-.024c-.178.037-.08.187-.166.244-.047.033-.138.04-.19.011-.119-.069.043-.119.143-.158.156-.063-.046-.067-.018-.15.037-.098.212-.06.017-.124l-.127-.06.074-.09c-.08-.026-.144.017-.23.007-.076-.01-.203-.11-.254-.047l.046.094.082.066c.114.138-.383-.157-.253.127.083.177-.377.324-.615.344-.64.05-.676-.03-1.322-.223-.103-.034-.225-.11-.346-.06-.155.063-.068.18-.079.266-.022.101-.328.33-.505.228l-.278-.034.098-.11-.099-.077c-.031-.05.021-.194-.046-.233-.102-.059-.314.116-.386.23-.068.107.133.137.105.22-.023.06-.16.074-.172.147-.019.093-.07.113-.112.09-.033-.02-.061-.068-.061-.13 0-.08.045-.167.068-.247.1-.378.599-.376.573-.608-.054.032-.147.056-.201.024-.088-.097.062-.077.125-.1.098-.037.051-.117.074-.177.023-.06.132-.184.057-.24l-.324-.094-.098-.01-.161-.027a.545.545 0 0 0-.266 0c-.092.013-.224.043-.322 0l-.081-.073c-.156.05-.27.19-.443.217-.098.01-.127 0-.236.03l-.161.046c-.099-.04.007-.11.016-.15l-.018-.117.092-.08c.337-.42.33-.295.614-.497-.119-.118-.177.037-.277-.02.038-.1.147-.304.107-.404-.046-.133-.635-.278-.66-.42-.019-.1.077-.111-.092-.155-.093-.024-.16-.039-.174-.133-.018-.1.109-.224-.082-.274-.18.1-.338.326-.168.424.093.054.383.053.389.056.02.013.005.04-.022.101-.04.077.082.114.07.18-.015.11-.375.097-.587.094l-.179.01-.138-.06c-.12-.033-.198.057-.31-.008l-.14-.106-.18.01-.12-.07-.197-.013c-.08-.1.068-.194.114-.3l.074-.144.017-.13.114-.14.04-.138.074-.136.011-.074-.046-.047c-.034-.068.022-.148.059-.221-.044.07-.142.122-.232.175-.012.093-.115.187-.132.284-.035.278-.25.134-.182.327v.113l-.091.08-.04.09c-.017.057.052.104.041.157-.017.057-.12.05-.155.104.434.25.682.19.71.29-.34.084-.615.25-1.007.204-.81.014-.85-.17-1.192.064a.971.971 0 0 0-.503-.138c-.184-.006-.345.034-.489.117s-.212.177-.212.277c-.003.069.029.13.087.186-.207-.035-.219-.022-.31.052-.018.015-.036.032-.055.05l-.026-.057-.311.033a.465.465 0 0 0 .062.138.36.36 0 0 1-.055-.014c-.528-.184-.633.447-1.69-.164-.3-.173-.024-.244.05-.344l.051-.11c.097-.177.396-.317.453-.497.028-.084.045-.16.171-.22.07-.04.247-.097.334-.054.047-.019-.064.047.448-.3.138-.1.108-.264.148-.388.055-.161.56-.164.345-.288a.824.824 0 0 1-.134-.083c-.097-.082.018-.222-.094-.287-.098-.05-.283-.043-.375-.076l-.104-.08c-1.047-.27-.467-.455-.575-.839.016-.11.154-.176.275-.247.069-.04-.018-.096-.007-.136.833-.498.427.08.95-.177.156-.004.316-.117.49-.077.536.111.297-.046.633-.054l.243.014c.293-.07-.117-.267-.002-.32l.104.006a2.4 2.4 0 0 1 .35-.21c.346.218.431.377.555.327l.086-.104c.075-.063.127-.073.114-.16-.006-.063-.046-.134.08-.18.143.082.027.138.312.127.138 0 .231.12.427.08.161-.034.248.036.398.05l.179-.003.156.036c.167.004.224-.13.373-.157.144-.03.271.057.357-.053-.143-.087-.21-.08-.312-.138-.287-.166.33-.269.43-.306.384.226.38.07.555.093l.144.024c.19-.032.01-.12.409-.104.4.018.738.113.987.23.112.014.099-.023.199.035a.34.34 0 0 1 .066.052c.02.016.038.03.06.043.016.009.034.017.056.024.067.027.167.03.208.087l.006.123c.012.094.168.13.22.214.183.226-.02.357-.257.284-.12-.037-.156-.112-.264-.174l-.1.13c0 .271.594.11.749.198.1.058.089.143.354.153.37.015.187-.006.48.19.133.077.248.104.45.094.132-.003.109-.03.19.016.058.034.077.066.12.09a.275.275 0 0 0 .088.03l.161-.06c.39.225.113.322.354.398.262-.114-.155-.143.742-.217.16-.006.172.06.07.133-.08.067-.207.074-.31.12-.121.05-.11.13-.184.194-.149.134-.339.124-.547.057.028.045.072.09.133.126.039.023.085.04.139.05.179.03.507-.012.535-.13.094-.392.303-.252.46-.36.1.056-.141.2-.08.274.075-.017.138-.114.23-.094.01.08.099.056.166.094.067.053-.022.099.063.147.205-.04-.215-.452.603.02.055.032.08.082.136.114.187-.04-.01-.134.123-.191.132.057.294.064.432.117.04.017.087.043.122.07.052.03.104.06.173.08.11.03.162 0 .254.054.027.019.052.037.082.054a.506.506 0 0 0 .074.036c.156.063.34.023.485.1.228.13-.06.158.296.31l.208.1c.052.05-.04.09-.005.13-.264.193-1.313-.285-1.234-.106.189 0 .338.065.75.227.025.053-.063.073-.007.105.1.058.278.055.406.152-.057.053-.184.02-.091.093.057.04.133.077.185.12l.144.084c.093.013.04-.03.098-.037.098-.012.184.068.26.13.128.1.18.184.025.268-.061.035-.149.074-.077.115.107.055.158-.028.239-.002l.052.07.272.157.248.09.115-.02c.163.017.545.339.648.434l-.057.047.075.05-.028.05c.024.078.211.097.34.171.092.053.152.118.238.19l-.069.04c-.139.027-.041.104.07.168.068.04.142.074.168.089.068.039.12.084.197.113.08.035.2.046.121.104-.136-.022-.075.069.018.083.116.02.073-.168.355-.005.113.065.22.163.257.199.127.134.198.3.268.447.014.035.003.145.042.168z" opacity="1" data-original="#cb4844" class=""></path><path fill="#ffffff" d="M27.588 35.268c.127.074.19.157.209.254.012.1-.045.187-.183.267a.75.75 0 0 1-.27.09c-.11.017-.266.027-.479.03l-.697.004.665.383-.236.137-1.006-.58.213-.124.893.003a6.06 6.06 0 0 0 .444-.016.526.526 0 0 0 .236-.064c.063-.037.086-.077.091-.127-.006-.05-.046-.093-.116-.133-.121-.07-.277-.094-.484-.067l-.082-.18c.161-.02.305-.024.432-.004a.929.929 0 0 1 .37.127zM29.774 36.57l-.196.114-.749.026c.133.077.191.164.186.254-.005.09-.057.167-.172.234a.889.889 0 0 1-.506.113 1.163 1.163 0 0 1-.514-.15.676.676 0 0 1-.319-.364l.305-.05a.526.526 0 0 0 .25.29c.086.05.179.077.277.088a.435.435 0 0 0 .253-.054c.075-.043.103-.093.086-.157-.023-.06-.082-.12-.192-.183l-.184-.08.19-.11.731-.03-.532-.308.224-.13z" opacity="1" data-original="#ffffff" class=""></path><path fill="#840012" d="M31.306 38.077a.77.77 0 0 0-.32-.128l.194-.113a.406.406 0 0 0 .129.113.94.94 0 0 1 .043.023c.068.04.102.078-.014.1l-.032.005z" opacity="1" data-original="#cb4844" class=""></path><path fill="#ffffff" d="m30.855 37.195-1.405.2.352.204.27-.157.238.136-.054.032-.216.125.173.1-.224.13-.173-.1-.368.214-.237-.137.368-.213-.172-.1-.459-.264.219-.127 1.416-.2zM32.19 37.966l-.223.13-.619-.357-.168.097-.194.113a.775.775 0 0 1 .32.128c.102.071.163.152.178.24a.22.22 0 0 1-.022.125.384.384 0 0 1-.16.155.921.921 0 0 1-.508.113 1.064 1.064 0 0 1-.525-.137c-.202-.117-.29-.247-.273-.39l.311-.027.006.05c0 .02.024.053.053.104.035.046.087.09.156.13.07.04.15.067.248.077.104.006.19-.01.27-.057.081-.047.116-.1.098-.164-.018-.056-.076-.117-.168-.17s-.202-.09-.335-.114l.01-.126.138-.08.564-.328z" opacity="1" data-original="#ffffff" class=""></path><path fill="#840012" d="M31.75 39.165c-.04-.037-.06-.077-.06-.118a.123.123 0 0 1 .003-.04c.023.044.048.089.055.134a.13.13 0 0 1 .001.024z" opacity="1" data-original="#cb4844" class=""></path><path fill="#b41c31" d="M32.346 38.914c.087.05.133.103.128.16-.006.064-.046.114-.12.157a.47.47 0 0 1-.265.06.58.58 0 0 1-.272-.077.376.376 0 0 1-.068-.05.13.13 0 0 0-.001-.023c-.007-.045-.032-.09-.055-.134.01-.045.047-.083.105-.116a.492.492 0 0 1 .265-.06.631.631 0 0 1 .283.083z" opacity="1" data-original="#ee5550" class=""></path><path fill="#ffffff" d="M32.796 39.074c0 .1-.068.194-.211.277a.923.923 0 0 1-.495.12 1.023 1.023 0 0 1-.456-.111l-.035-.019c-.237-.137-.29-.294-.176-.467.069-.1.178-.19.333-.28a2.393 2.393 0 0 1 .42-.19c.132-.038.26-.058.369-.061.224-.003.415.04.577.134.156.09.254.2.29.333l-.311.034-.053-.117-.11-.103a.692.692 0 0 0-.421-.09c-.15.013-.3.066-.449.153.075-.003.161.007.26.023.097.017.19.05.271.097.133.077.197.167.197.267zm-.707.217a.47.47 0 0 0 .265-.06c.074-.043.114-.093.12-.157.005-.057-.041-.11-.128-.16a.631.631 0 0 0-.283-.083.492.492 0 0 0-.265.06c-.058.033-.094.071-.105.116a.123.123 0 0 0-.003.04c0 .041.02.08.06.118.018.017.04.034.067.05a.58.58 0 0 0 .272.076" opacity="1" data-original="#ffffff" class=""></path><path fill="#840012" d="M31.634 39.36c-.073.06-.17.113-.265.162a.997.997 0 0 1-.431.096.978.978 0 0 0-.294.057c-.109.037-.224.07-.334.027l-.127-.06-.156-.004.034-.066-.126.046a.21.21 0 0 1-.142-.02c-.038-.023-.062-.056-.083-.083-.064-.077-.093-.114-.042-.19.034-.067.172-.114.12-.19l-.04-.044.103-.087c-.069-.003-.165.016-.215-.013a.059.059 0 0 1-.028-.034c-.017-.07.08-.107.017-.183l-.18-.084a.636.636 0 0 1-.074-.037c-.046-.027-.087-.056-.134-.083a.827.827 0 0 0-.283-.11c-.128-.025-.25-.024-.346-.08a.25.25 0 0 1-.023-.014l-.162-.1-.208-.013a.302.302 0 0 1-.068-.027c-.08-.047-.058-.113.027-.157.092.047.184-.06.242-.093a.36.36 0 0 0 .143-.184c.04-.083.074-.13.194-.193l.208-.087-.168-.01.19-.057.185.107a.59.59 0 0 0 .239.077l.172.1-.368.213.237.137.368-.213.173.1.224-.13-.174-.1.217-.126.187.085c.026.034.061.086.115.117a.201.201 0 0 0 .162.017.374.374 0 0 0 .063-.023l-.137.08-.011.126c.132.024.242.06.335.114.092.053.15.114.168.17.018.064-.017.117-.097.164a.457.457 0 0 1-.27.057.611.611 0 0 1-.406-.207c-.028-.05-.052-.084-.052-.104l-.006-.05-.311.027c-.016.143.07.273.273.39.15.087.324.134.525.137a.92.92 0 0 0 .507-.113.385.385 0 0 0 .16-.155c.211.03.371-.21.547-.27.072.042-.064.186-.092.235a.847.847 0 0 1-.099.152l-.06.034a.997.997 0 0 0-.334.28c-.114.174-.06.331.176.468l.035.019z" opacity="1" data-original="#cb4844" class=""></path><path fill="#b41c31" d="M48.644 33.495c.469.27.477.708.012.979l-16.264 9.451c-.466.27-1.22.267-1.69-.003L1.415 27.012c-.468-.27-.47-.704-.005-.975l16.264-9.451c.465-.271 1.214-.27 1.683 0zm-31.873-3.087c.033.019.064.04.092.06-.12.17-.067.327.17.463.145.084.312.127.496.134a.968.968 0 0 0 .495-.12c.144-.084.212-.177.212-.277-.006-.104-.07-.194-.203-.27a.817.817 0 0 0-.266-.094c-.007-.045.047-.07.15-.074.088-.066.247-.048.392-.048.023.01.046.022.068.035l.105.1.058.12.305-.036c-.027-.12-.114-.223-.25-.31.032-.045.02-.098-.04-.145-.07-.06-.076-.056-.059-.133 0-.045-.008-.066-.056-.094-.109-.057-.187-.065-.235-.093-.1-.058-.008-.166-.086-.25-.068-.073-.123-.044-.236-.064l.103-.053c-.051-.11-.262-.011-.318-.044.08-.086.156-.043.277-.073l.103-.067v-.046l.052-.044c.045-.073-.041-.13-.076-.197-.024-.053-.041-.103-.099-.144-.17-.14-.056-.11-.065-.25l-.047-.147c-.083-.1-.23-.172-.341-.237l-.053-.09a.176.176 0 0 0-.038-.03.357.357 0 0 0-.123-.037c-.04-.011-.084-.02-.114-.038-.05-.037-.079-.07-.12-.093a.248.248 0 0 0-.148-.029l-.155.037c-.11-.062-.131-.065-.162-.047l-.017-.057-.035-.053-.041-.043-.058-.014-.098-.023-.046-.094-.024-.1.173-.073.074-.044.092-.073-.03-.064c-.363-.204-.3-.186-.099-.25l.122.003.091-.073.11-.003.028-.044-.08-.053-.186-.06-.062.036-.07.007-.057.027-.116-.027-.098-.043-.052-.037-.07-.013-.051-.024.046-.02-.081-.093c.04-.03.126-.027.091-.08v-.08l.103-.08.127-.054.144-.024c.212-.168.227-.066.328-.076l.075-.01.086.003.202.117.041.05.075.057h.07l.127.033.057.033.093.04.029.05c.1.054.137.052.145.117l-.023.067-.092.067-.028.07c0 .02-.03.096.001.114l.206-.087.063-.097.132-.117c.115-.053.352.017.485.027l.218-.007.156-.083.132-.11.068-.02-.022.053c-.033.026-.041.047-.03.054.012.006.038.001.076-.02l.075-.037.052.05.155-.057c.085.049.137.133.237.123l.098-.043.07.04.091-.087c.102-.086.208.007.312.04l.213.03-.138.08.185.034.144.057c.116.066.226.096.358 0l-.15-.02-.087-.044-.098-.023-.03-.097.064-.03c.01-.033-.087-.043.01-.08.064.016.116.073.185.02l-.081-.127c-.092-.056-.185-.042-.283-.063.194-.004.41.037.55.117.285.166 1.074.327.84.06l-.035-.087.046-.06-.024-.1.04-.09.062-.244.046-.074.028-.077c-.092-.033-.213.09-.328.07l-.254-.146.178-.117-.035-.08-.024-.1-.006-.097-.122-.077-.115-.067-.11-.09-.276.153c-.11.05-.225.064-.253.16-.022.068-.01.134-.108.184-.08.039-.106.013-.185-.033l-.15.007c-.115.046-.149.173-.275.2l-.133-.057c-.072-.1.1-.177.2-.264.126-.082.02-.115-.151-.246-.086-.105.026-.193-.15-.295-.11-.048-.174-.035-.14-.086.075-.077.164-.078.016-.164-.182-.104.332-.081.437-.086l.179-.057c.15-.014.196.06.317.076.08.014.173-.04.26-.01l-.104.06c.027.05.113.006.167.037l.047.067.11.037c.107.034.097.076.185.127.017-.064-.082-.134-.065-.197l.11-.077.103.04.11.003c.104-.026.178-.35.489-.17.075.043.058.06.07.12.006.07.063.09.133.144l.047.073.017.124-.091.107-.208-.014-.097.077-.283-.157-.156.01c-.018.018-.011.03.007.041.034.02.106.03.132.046.369.16.183.204.26.304l.047.046v.087a.34.34 0 0 0 .136.141c.16-.03-.055-.22.02-.224l.151.22.103-.04.156-.103c.01-.08-.065-.17.044-.234.138.077.059.19.14.267l.12-.043c.088.05.097.103.203.11.08-.047.035-.047-.012-.094l-.024-.113c.03-.05.075-.05.035-.1l-.15-.067c-.14-.087.103-.094.154-.15l-.04-.104-.002-.107c.005-.034-.022-.053-.053-.071-.157-.09-.065-.071-.122-.343l-.115-.08-.007-.097-.139-.086-.063.05-.035-.067-.139-.087-.178-.03-.138.12-.133.004.04-.097c.086-.084.167-.084.288-.12-.065-.165-.54-.172-.559.07-.005.09.065.177.019.263-.05.097-.283.19-.406.119-.08-.047.05-.135.06-.185.009-.086-.083-.069-.134-.137-.075-.104.155-.17.218-.247.179-.23.2-.088.42-.11l.08-.054c.066-.013-.005-.036.602.314.375.182.352.094.513.03.12-.05.253-.027.38-.053.12-.024.242-.067.368-.074.305-.012 2.195.486 1.367.084-.141-.065-1.642-.997-3.13-1.222a3.626 3.626 0 0 1-.17-.029l.122-.072.132-.076.92-.535.132-.076.253-.147c.195-.114.2-.297-.003-.414l-2.162-1.249-.134-.077-2.162-1.248a.782.782 0 0 0-.715 0l-2.74 1.592c-.461.268.161.465.261.564a.269.269 0 0 1-.184-.086c-.132.063.053.143.054.223-.012.091-.098.224-.132.124l.023-.053-.081-.047-.231-.074c-.196-.026-.173.107-.092.167.206.145.262.12.364.164l-.103.1c-.193.046-.368-.247-.622-.02-.092.08.053.17.07.24 0 .034-.034.027.012.067l.121.05c.074.042.05.112-.01.154-.086.07-.208.047-.329.063-.113.014-.175.058-.278.079.07-.003.118.026.193.031l.19-.023c.127-.02.236-.023.368-.013.231.02.485.013.699.09.314.117.704.306.73.607-.006.077.161.1.139.174-.023.06-.161.134-.213.19l.15.047-.08.047.133.07-.11.077c-.025.427-.02.338-.02.38 0 .074.191.17.07.234l-.121-.063c-.174.038.025.059-.511.37-.39.226-.175.38-.354.588-.072.08-.127.126-.008.195.266-.046-.16.122-.092.479.219-.02.178-.197.316-.264.059.17-.111.347-.17.448-.064.057-.035.026.005.083.046.084-.157.143-.04.21.1.05.163.04.123.09l-.121.057-.04.09.04.044.013.093.024.094c.021.018.159.127.183.141.063.036.136.054.178.078.176.101.131.275.195.375l.012.1.024.087-.011.087.047.113.017.11.076.084c.074.13.12.04.23.053l.047.047c.006.064-.115.12-.184.16l-.132.097-.074-.01-.11.017-.115.053-.127-.086c-.058-.034-.167.03-.196.066l-.028.077-.115.034-.161.093.058.1c-.306.43-.112.275-.309.428-.074.056 0 .133.013.2l.035.127c.183.243-.29.32-1.045.634-.283.11-.111.147-.49.164l-.183.06c-.115.053-.144.13-.27.183-.138.054-.276.08-.391.154l-.144.097a.26.26 0 0 1-.1.02l.03-.047-.225-.13-1.801.404.225.13.409-.09.63.364-.154.237.225.13.137-.207c.026.03.062.06.107.085.053.031.118.057.185.074l-.255.148.214.124.977-.568-.435.755.122.07 1.307-.25-.977.567.214.124 1.247-.725-.33-.19-1.163.234.4-.675-.33-.19-.78.453c-.139-.1-.213-.2-.02-.336.16-.114.478.016.582-.104.028-.037-.064-.083-.001-.12.034-.02.052-.01.075.003.253 0 .293-.057.466-.13l.155-.057c.152-.012.097.107.254.08l.133-.07c.26.275.587.204.84-.026.064.03.063.05.059.073.034.13.236.058.41.043.218-.02.46-.02.668-.066.167-.037.31-.147.5-.124.093.01.192.051.278.1m24.302 5.632c.133.044.26.07.196-.046l-.122-.184c-.084-.019-.073-.13-.087-.164-.134-.28-.213-.466-.525-.646-.3-.172-.223.029-.355.005-.093-.014-.154-.105-.018-.083.078-.058-.041-.069-.121-.104-.076-.03-.129-.074-.197-.113-.026-.015-.1-.05-.168-.09-.111-.063-.209-.14-.07-.167l.07-.04c-.452-.373-.538-.229-.58-.36l.03-.051-.076-.05.057-.047c-.263-.246-.532-.422-.648-.434l-.115.02-.248-.09-.272-.157-.052-.07c-.081-.026-.132.057-.23.007-.081-.046.007-.085.068-.12.155-.084.103-.167-.025-.267-.032-.026-.076-.067-.127-.097a.213.213 0 0 0-.133-.034c-.057.007-.005.05-.098.037-.55-.33-.339-.203-.238-.297-.112-.085-.217-.085-.352-.13-.16-.05-.008-.043-.047-.127-.265-.104-.526-.227-.75-.227-.077-.175.969.3 1.234.107-.035-.04.057-.08.005-.13l-.208-.1c-.346-.148-.102-.2-.28-.303-.16-.085-.345-.045-.5-.108a.506.506 0 0 1-.075-.036.877.877 0 0 1-.082-.054c-.092-.054-.144-.024-.254-.054-.11-.032-.147-.07-.23-.117-.152-.088-.338-.082-.497-.15-.133.057.064.15-.097.204-.082-.045-.107-.095-.162-.127-.818-.472-.406-.063-.577-.007-.155-.086.057-.11-.156-.183-.05-.007-.093-.022-.099-.07-.092-.02-.155.076-.23.093-.061-.074.18-.218.092-.268-.188.093-.382-.02-.472.355-.028.117-.356.16-.535.13a.443.443 0 0 1-.14-.051.383.383 0 0 1-.132-.126c.584.187.55-.175.73-.25.1-.046.5-.154.356-.238-.067-.039-.316.025-.455.007-.33-.038-.205.108-.402.194-.243-.077.046-.166-.354-.397l-.16.06a.275.275 0 0 1-.09-.03c-.042-.025-.061-.057-.12-.09-.08-.047-.057-.02-.19-.017-.441.022-.495-.162-.645-.25-.191-.073-.312.01-.51-.084-.075-.044-.085-.098-.178-.124-.101-.03-.698.062-.699-.176l.074-.144c.144.079.167.15.29.187.098.03.27.01.316-.057.125-.194-.265-.331-.279-.44l-.006-.124c-.044-.06-.188-.068-.264-.111-.19-.11-.004-.091-.325-.13l-.128-.046c-.386-.167-.272-.04-.52-.154-.1-.048-.499-.046-.547-.03-.075.024-.12.09-.201.104l-.144-.024c-.173-.022-.177.125-.528-.077-.187.044-.452.037-.51.164-.072.137.196.164.34.248-.06.126-.188.04-.332.07-.15.026-.206.16-.373.156l-.156-.036-.18.003c-.149-.014-.236-.084-.397-.05-.196.04-.289-.08-.427-.08-.087.003-.046.053-.156.003-.096-.052-.064-.077-.156-.13-.197.073.036.145-.194.34l-.086.104c-.124.05-.206-.107-.555-.327a2.421 2.421 0 0 0-.35.21l-.104-.007c-.115.054.295.25.002.32l-.243-.013c-.368.009-.095.166-.633.054-.174-.04-.334.073-.49.077-.074.036-.097.09-.195.08l-.203-.104c-.172-.058-.33.068-.552.2-.011.04.076.097.007.137-.121.07-.26.137-.275.247.111.38-.474.568.575.838l.104.08c.092.034.277.027.37.074.117.068.002.208.1.29.1.088.288.12.092.207-.144.064-.264.047-.304.164-.04.124-.01.287-.148.387-.069.047-.16.08-.218.127-.075.057-.12.13-.23.174-.087-.043-.265.013-.334.053-.126.06-.143.137-.171.22-.057.18-.356.321-.453.498l-.051.11c-.035.047-.115.08-.155.13-.12.15.513.65 1.414.418l.167-.077c.11-.03.127.007.214.037a.36.36 0 0 0 .055.014.65.65 0 0 0 .223.2c.161.093.352.136.577.133.115 0 .236-.023.374-.064.126-.04.27-.103.42-.19s.263-.18.332-.28c.113-.172.057-.324-.169-.457.344-.236.408-.05 1.192-.064.392.047.668-.12 1.008-.204-.03-.105-.303-.055-.71-.29.034-.054.137-.047.154-.104.011-.053-.058-.1-.041-.157l.04-.09.092-.08-.001-.113c-.063-.18.149-.063.182-.327.017-.097.12-.19.132-.284.09-.053.188-.105.232-.175-.037.073-.093.153-.06.221l.047.047-.011.074-.074.136-.04.137-.114.14-.017.13-.074.144c-.046.107-.195.2-.114.3l.197.014.12.07.18-.01.104.08c.148.09.225 0 .346.034l.138.06.335-.013c.753-.019.297-.147.361-.27.1-.228-.115-.012-.367-.158-.17-.098-.012-.324.168-.424.292.077-.137.304.256.407.249.065-.13.066.336.334.123.071.382.14.416.24.04.1-.069.304-.107.405.1.057.159-.097.277.02-.292.207-.275.074-.614.497l-.092.08.018.117c-.01.04-.115.11-.065.14l.21-.036c.11-.03.138-.02.236-.03.173-.027.287-.167.443-.217l.08.073c.099.043.231.013.323 0a.545.545 0 0 1 .266 0l.161.027.098.01.324.093c.075.057-.034.18-.057.24s.024.14-.074.177c-.063.024-.213.004-.15.08.08.053.172.029.226-.003.024.219-.48.254-.573.608-.023.08-.069.167-.068.247 0 .062.028.11.061.13.042.023.093.003.112-.09.011-.073.15-.087.172-.147.028-.083-.173-.113-.105-.22.07-.112.284-.289.386-.23.067.04.015.183.046.233l.099.077-.098.11.173-.026c.13.075.157.087.202.09.174 0 .391-.18.408-.258.011-.086-.076-.203.08-.267.12-.05.242.027.345.06.232.07.52.176.716.214.501.092 1.338-.086 1.22-.334-.124-.274.366.01.254-.127l-.082-.066-.046-.094c.051-.063.178.037.254.047.086.01.15-.033.23-.007l-.074.09.127.06c.195.064.02.026-.017.124-.028.083.174.087.018.15-.1.04-.262.09-.143.158.052.03.143.022.19-.01.086-.058-.012-.208.166-.245l.121.024.265-.034c.396-.032.503.151.71.157.057.004.713-.126.823-.19.075-.05.161-.047.27-.05l.156-.023.017-.137c-.08-.05-.174-.033-.225-.057-.067-.038-.001-.05-.007-.09 0-.04-.11-.084-.058-.127.057-.04.127 0 .185.007l.196.013c.138-.013.27-.077.409-.037.08.02.12.064.202.09.209.073.276-.058.445.177.125.186.137.09.323.174.05.04-.062.084-.001.12.18.05.319-.09.474-.047.21.11.121.097.324.147l-.092.067c.1.062.414.027.439.042.017.01.012.027-.04.055-.081.033-.225.01-.312.013l-.173.014-.196-.067c-.1-.022-.543-.052-.64.05-.126.114.061.164-.384.33.121-.003.225-.07.346-.066.092.006.121.07.225.083l.248-.003c.086-.017.149-.134.27-.07l.161-.087c.058-.04.08-.074.184-.067.173.013.306.137.485.147.07.093-.044.137.116.12.21-.021.646.058.675.075l.145.105c.11.017.08-.02.103-.06l.046-.033-.023-.06c0-.047.022-.08.091-.114-.032.056.016.123.083.162.068-.015.188-.098.264-.055l-.011.08.08.06.081.054.024.073.081.06.058.087zM24.86 26.711c.106-.01-.103-.022 1.114.298l.121-.044.173-.1c.1-.058.056-.22.27-.137.144.044.184.034.305-.023.11-.05.357-.034.368-.147.005-.05-.081-.1-.053-.157.052-.1.21-.084.311-.094l.132-.056.19.05c.099.016.208.006.312.033.07.013.318.097.352.037-.62-.462-1.352-.419-1.07-.558l.075-.03c-.75-.432-.508-.29-.566-.327.154-.047.598.292.947.354-.013-.08-.166-.1-.197-.154l-.006-.063-.04-.077c-.57-.328-1.136-.76-1.671-.838-.098.044.07.094-.034.134-.124-.015-.195-.105-.295-.17-.075-.03-.132.05-.23 0l-.014-.007c-.09-.052-.024-.15-.08-.214-.117-.114-.356-.205-.52-.28-.104.04-.046.073.012.113.052.037.093.114-.051.11-.102-.006-.18-.062-.26-.123-.039-.03-.074-.058-.11-.08a.193.193 0 0 0-.214 0c-.023.053.198.128.249.157-.057.053-.207.06-.282.03l-.075-.044-.104.007c-.1-.073-.177-.13-.204-.145a.223.223 0 0 0-.108-.029l-.075.004-.098-.01c-.138.04.081.187.134.217-.087.023-.278-.114-.318-.03l.11.117.064.056.006.07c.01.01.023.02.038.028.1.058.33.153.43.19.099.032.14.082.169.163.04.13-.033.274-.16.38-.08.074-.379.234-.246.338-.097.083-.287.1-.385.19l-.086.097c-.08.06-.2.124-.252.194-.013.403-.043.395.037.441a.388.388 0 0 0 .023.013l.098.043.018.057.087.057c.233.134.294-.065.402-.107l.168.003c.092-.013.143-.09.241-.073l.122.056c.296.033.195.007.311.074l.22.047zm7.23 12.76a.923.923 0 0 0 .496-.12c.143-.083.212-.177.211-.277 0-.1-.064-.19-.197-.267a.824.824 0 0 0-.271-.097 1.273 1.273 0 0 0-.26-.023c.15-.087.299-.14.449-.154a.692.692 0 0 1 .42.09l.111.104.053.117.31-.034c-.035-.133-.133-.243-.29-.333a1.098 1.098 0 0 0-.576-.134c-.11.003-.237.023-.37.06a2.062 2.062 0 0 0-.358.156.847.847 0 0 0 .1-.152c.027-.05.163-.193.097-.231-.182.057-.342.296-.552.266a.221.221 0 0 0 .022-.126c-.015-.087-.076-.167-.178-.239l.032-.004c.116-.023.082-.061.014-.1a.94.94 0 0 0-.043-.024.406.406 0 0 1-.13-.113l.169-.097.619.357.224-.13-.845-.488-.563.328a.374.374 0 0 1-.063.023.201.201 0 0 1-.162-.017c-.054-.03-.09-.083-.115-.117l-.187-.085.054-.032-.237-.136-.27.157-.353-.204 1.405-.2-.272-.157-1.417.2-.218.127.459.264a.59.59 0 0 1-.239-.077l-.185-.107-.19.057.168.01-.208.087c-.12.063-.154.11-.194.193a.36.36 0 0 1-.143.184c-.058.033-.15.14-.242.093-.085.044-.108.11-.027.157.017.01.04.02.068.027l.208.013.162.1a.25.25 0 0 0 .023.015c.095.055.218.054.346.079.122.023.197.06.283.11.047.027.088.056.134.083a.636.636 0 0 0 .074.037l.18.084c.064.076-.034.113-.017.183a.059.059 0 0 0 .028.034c.05.029.146.01.215.013l-.104.087.041.043c.052.077-.086.124-.12.19-.051.077-.022.114.042.19.021.028.045.061.083.084a.21.21 0 0 0 .142.02l.126-.046-.034.066.156.004.127.06c.11.043.225.01.334-.027a.978.978 0 0 1 .294-.057.997.997 0 0 0 .431-.096c.095-.049.192-.102.265-.162.136.07.291.108.456.111m-7.5-4.416c.236-.024.466-.104.696-.238.23-.133.367-.267.406-.403.034-.14-.047-.268-.244-.381a1.074 1.074 0 0 0-.658-.14 1.73 1.73 0 0 0-.701.233c-.197.115-.321.231-.378.348a.305.305 0 0 0-.093.053c-.057.054-.103.174-.01.234l.01.006a.208.208 0 0 0 .146.02c.04.044.097.086.168.127.196.114.415.16.657.14m-15.416-8.9c-.04.137.042.264.244.38.203.117.422.164.658.14.236-.023.472-.1.702-.233.23-.133.362-.27.401-.407.04-.137-.042-.264-.244-.38a1.075 1.075 0 0 0-.658-.141 1.73 1.73 0 0 0-.702.234c-.23.133-.361.27-.401.407m10.866 6.36c.179.01.34-.023.466-.097.16-.093.212-.21.16-.34.19.01.34-.017.455-.084.109-.063.16-.147.137-.24-.018-.097-.1-.19-.238-.27a1.045 1.045 0 0 0-.468-.138.697.697 0 0 0-.42.077c-.115.067-.16.154-.137.267a.887.887 0 0 0-.588.094c-.126.073-.183.167-.165.27.018.11.1.21.267.307.162.094.34.144.531.154m-7.715-4.594-.67-.387.697-.004c.213-.003.375-.01.478-.03a.78.78 0 0 0 .276-.086c.138-.08.195-.167.183-.267-.018-.097-.087-.184-.209-.254s-.248-.117-.375-.13a1.564 1.564 0 0 0-.432.003l.081.18c.208-.027.37 0 .485.067.07.04.11.083.116.133 0 .054-.023.094-.086.13a.6.6 0 0 1-.236.064c-.103.007-.248.01-.45.014h-.887l-.212.123 1.006.58zm14.273 8.513.236-.137-.665-.383.697-.004c.213-.003.369-.013.478-.03a.75.75 0 0 0 .27-.09c.138-.08.196-.167.183-.267-.017-.097-.081-.18-.208-.254a.93.93 0 0 0-.37-.127 1.564 1.564 0 0 0-.432.004l.082.18c.207-.027.363-.003.484.067.07.04.11.083.116.133-.005.05-.028.09-.091.127a.527.527 0 0 1-.236.064c-.098.01-.242.013-.444.016l-.894-.003-.212.123zm-6.56-5.224.224-.13-1.035-.598-.425.247.226.13.2-.117.521.3-1.848.371.272.157zm8.3 6.102c.19.01.357-.026.506-.113.115-.067.167-.144.172-.234.005-.09-.053-.177-.186-.254l.75-.026.195-.114-.862-.497-.224.13.532.307-.732.03-.19.11.185.08c.11.064.168.124.192.184.017.064-.011.114-.086.157a.436.436 0 0 1-.253.054.685.685 0 0 1-.277-.087.525.525 0 0 1-.25-.29l-.305.05c.053.15.157.27.32.363.155.09.334.14.513.15m-15.087-8.71a.87.87 0 0 0 .5-.117c.116-.066.173-.14.178-.23.006-.09-.058-.18-.191-.257l.755-.023.195-.114-.862-.497-.224.13.532.307-.731.03-.19.11.179.077c.11.063.174.127.197.187.012.06-.01.113-.086.157a.419.419 0 0 1-.259.05.632.632 0 0 1-.271-.084.543.543 0 0 1-.255-.293l-.3.053a.67.67 0 0 0 .314.36c.162.094.335.14.52.154m-3.028 1.84 1.247-.725-.214-.123-.93.54.201-.961-.214-.123-1.246.724.214.124.907-.528-.196.938zm32.427 2.023-1.64.37.202.117.374-.083.572.33-.142.217.208.12.634-.951zM6.79 27.827l.701-.408-.214-.123-.69.4a.848.848 0 0 1-.356.114.633.633 0 0 1-.335-.08c-.098-.057-.138-.12-.133-.19.011-.074.074-.144.189-.21l.69-.401-.215-.124-.7.407c-.179.104-.264.214-.264.328 0 .113.076.217.232.307.157.09.336.133.531.133.202.003.386-.05.564-.153m.582.968.266.153.124-.454a.78.78 0 0 0 .663-.07c.138-.08.2-.163.183-.247-.012-.087-.122-.183-.313-.294l-.468-.27-1.247.724.208.12.42-.243.283.163zm-2.475-1.53c.15.007.276-.02.386-.083.109-.063.16-.127.148-.2-.006-.07-.058-.154-.157-.244-.098-.09-.156-.157-.168-.197l.057-.1.173-.033a.553.553 0 0 1 .347.194c.04.05.063.096.07.133l.27-.023a.36.36 0 0 0-.093-.187.837.837 0 0 0-.197-.16.945.945 0 0 0-.41-.124.637.637 0 0 0-.391.08c-.115.067-.167.137-.149.214l.053.116c.029.037.075.09.15.154.07.067.117.12.122.157l-.057.1-.172.034a.54.54 0 0 1-.214-.07.429.429 0 0 1-.227-.324l-.294.016c.019.164.123.304.32.418.139.08.277.12.433.13m36.158 4.443a1.136 1.136 0 0 0-.593.144c-.172.1-.252.213-.252.34.001.134.094.247.267.348.174.1.382.146.64.136l.006-.143-.26-.023a.728.728 0 0 1-.207-.08c-.11-.064-.163-.141-.158-.231-.006-.09.057-.167.172-.234a.752.752 0 0 1 .403-.1.804.804 0 0 1 .398.104c.07.04.116.08.145.116l.047.154.254-.007c.01-.147-.071-.267-.25-.37a1.196 1.196 0 0 0-.612-.154m-6.702-3.87a1.137 1.137 0 0 0-.593.144c-.172.1-.252.214-.252.34.001.134.094.248.267.348.174.1.382.147.64.137l.006-.143-.26-.024a.695.695 0 0 1-.207-.08c-.11-.064-.163-.14-.157-.23-.007-.09.056-.167.171-.234a.797.797 0 0 1 .403-.1.809.809 0 0 1 .404.107.49.49 0 0 1 .139.113l.047.154.254-.007c.016-.144-.071-.267-.25-.37a1.214 1.214 0 0 0-.612-.154m10.246 6.887c.213.004.403-.046.582-.15.178-.103.264-.214.245-.337-.006-.124-.116-.24-.319-.357l-.393-.227-1.137.66.376.218c.22.126.439.193.646.193m-6.731-5.024-1.138.66.376.218c.226.13.44.193.647.193.213.004.403-.046.58-.15.179-.103.265-.214.253-.334-.007-.123-.123-.243-.325-.36zm-29.073-.087.195-.113-.694-.401.333-.194.602.348.19-.11-.602-.348.333-.193.67.387.196-.114-.884-.51-1.247.724zm5.782 3.339.196-.114-.688-.397.333-.194.601.347.19-.11-.602-.347.333-.194.671.388.196-.114-.885-.51-1.247.724zm28.94.01-1.137.66.196.114.385-.224.255.147-.113.38.243.141.118-.41c.214.063.41.043.6-.067.126-.074.188-.15.17-.227-.017-.077-.115-.167-.289-.267zm-7.916-4.571-1.137.661.196.114.385-.224.249.143-.108.384.243.14.119-.41c.214.063.41.043.599-.067.126-.073.19-.15.172-.227-.018-.077-.117-.167-.29-.267zm3.95 2.28-.173.1.347.2-.965.562.197.113.965-.56.346.2.173-.1zm-2.759-1.592-1.137.66.827.478.183-.106-.63-.364.304-.177.55.317.167-.097-.55-.317.305-.177.613.354.178-.104zm-11.525 6.583 1.465-.85-.538-.311-.224.13.3.174-1.24.72zm-14.514-8.38 1.465-.85-.532-.308-.224.13.295.17-1.241.722zm16.111.324c-.075-.036-.167.004-.242-.04l-.127-.073-.075-.023-.076-.077a.254.254 0 0 0-.052-.038c-.054-.031-.131-.06-.179-.022l-.034.02.191.097c-.023.066-.116-.027-.161 0l.005.056-.08.047.052.07.104.054a.289.289 0 0 0 .052.037c.077.044.173.063.266.106.064.03.075.037.15.034l.15.02.063-.077.04-.077c.04-.041.027-.072-.024-.102a.42.42 0 0 0-.023-.012m12.282 2.832-1.138.66.197.114 1.137-.66z" opacity="1" data-original="#ee5550" class=""></path><path fill="#485f69" d="m17.662 18.862.133-.076 2.486 1.435a1.776 1.776 0 0 0-.503-.137zM21.058 19.964l-.607.353a1.105 1.105 0 0 0-.132-.077l.606-.353z" opacity="1" data-original="#485f69"></path><path fill="#fee182" d="M18.215 20.4c-.375.242-.515.558-.407.83l-2.116-1.222.919-.535zM23.22 21.213c.203.117.198.3.003.414l-.253.147-2.491-1.439-.028-.018.607-.353z" opacity="1" data-original="#fee182"></path><path fill="#b41c31" d="M17.553 21.947a.282.282 0 0 1-.045-.032l.094.054a.264.264 0 0 1-.05-.022zM17.701 22.035a.048.048 0 0 1-.019-.02l.05.029a.08.08 0 0 1-.03-.009z" opacity="1" data-original="#ee5550" class=""></path><path fill="#ffffff" d="M11.178 26.034c-.04.137-.171.274-.401.407-.23.134-.466.21-.702.234a1.073 1.073 0 0 1-.658-.14c-.202-.117-.283-.244-.244-.381.04-.137.171-.274.401-.407.23-.134.466-.21.702-.234.236-.023.456.023.658.14.202.117.283.244.244.38zm-1.127.447c.161-.027.317-.09.477-.184.167-.096.276-.186.316-.277.04-.09-.001-.173-.123-.243a.64.64 0 0 0-.42-.07 1.395 1.395 0 0 0-.484.18c-.16.093-.264.187-.31.28-.04.09.002.174.123.244s.266.093.42.07M5.733 26.364a.838.838 0 0 1 .197.16.36.36 0 0 1 .094.188l-.271.023a.305.305 0 0 0-.07-.134.556.556 0 0 0-.347-.193l-.173.033-.057.1c.012.04.07.107.168.197.099.09.151.174.157.244.012.073-.04.137-.148.2a.686.686 0 0 1-.386.084.961.961 0 0 1-.433-.13c-.197-.114-.301-.254-.32-.418l.294-.016a.429.429 0 0 0 .227.323c.07.04.144.064.214.07l.172-.033.057-.1c-.005-.037-.052-.09-.121-.157a1.051 1.051 0 0 1-.151-.153l-.053-.117c-.018-.077.034-.147.149-.214a.636.636 0 0 1 .391-.08c.145.01.283.05.41.123z" opacity="1" data-original="#ffffff" class=""></path><path fill="#b41c31" d="M35.731 29.082a.646.646 0 0 1-.277-.1l-.237-.137.408-.237.243.14c.104.06.162.113.174.147.012.04-.017.083-.092.127a.389.389 0 0 1-.219.06z" opacity="1" data-original="#ee5550" class=""></path><path fill="#840012" d="M11.958 30.464a.589.589 0 0 1 .037-.025l-.12.182c-.002-.054.01-.103.083-.157z" opacity="1" data-original="#cb4844" class=""></path><path fill="#ffffff" d="m11.87 31.105-.138.207-.225-.13.154-.237-.63-.364-.409.09-.225-.13 1.801-.404.226.13-.032.048zm-.557-.587.457.263.105-.16.12-.182.06-.092z" opacity="1" data-original="#ffffff" class=""></path><path fill="#b41c31" d="M43.648 33.652a.646.646 0 0 1-.277-.1l-.237-.137.407-.237.243.14c.104.06.162.114.18.15.012.04-.023.08-.097.124a.388.388 0 0 1-.22.06zM44.918 33.98c.3.173.324.333.06.487a.71.71 0 0 1-.397.103.855.855 0 0 1-.416-.126l-.214-.124.776-.45z" opacity="1" data-original="#ee5550" class=""></path><path fill="#ffffff" d="M45.426 34.24c.019.123-.067.234-.245.337a1.092 1.092 0 0 1-.582.15c-.207 0-.427-.067-.646-.193l-.376-.217 1.137-.661.393.227c.203.117.313.233.32.357zm-.845.33a.71.71 0 0 0 .397-.103c.264-.154.24-.314-.06-.488l-.191-.11-.776.451.214.124c.139.08.272.123.416.126" opacity="1" data-original="#ffffff" class=""></path><path fill="#b41c31" d="M25.236 34.156c.121.07.162.154.116.24-.04.091-.143.185-.31.281-.16.094-.321.154-.483.18a.609.609 0 0 1-.415-.066.394.394 0 0 1-.087-.067c.17-.038.345-.08.507-.124.178-.05.431-.136.529-.247a.461.461 0 0 0-.039-.024c-.16-.093-.282-.012-.475-.006-.09.002-.173-.036-.259-.056l.006-.004c.166-.096.327-.15.488-.177a.625.625 0 0 1 .422.07z" opacity="1" data-original="#ee5550" class=""></path><path fill="#ffffff" d="m35.548 29.202-.119.41-.243-.14.108-.384-.249-.143-.385.224-.196-.114 1.137-.661.428.247c.173.1.272.19.29.267.017.077-.046.154-.172.227a.724.724 0 0 1-.6.067zm-.094-.22c.11.063.203.096.277.1a.389.389 0 0 0 .22-.06c.074-.044.103-.087.09-.127-.01-.034-.069-.087-.173-.147l-.243-.14-.408.237z" opacity="1" data-original="#ffffff" class=""></path><path fill="#f1bb34" d="m45.538 20.595-.009 3.295c-.004 1.56-1.027 3.116-3.069 4.305-4.11 2.394-10.8 2.394-14.937 0-2.082-1.204-3.122-2.786-3.118-4.366l.01-3.294c-.005 1.579 1.035 3.16 3.117 4.366 4.137 2.393 10.828 2.393 14.938 0 2.042-1.19 3.064-2.747 3.068-4.306z" opacity="1" data-original="#f1bb34"></path><path fill="#fed44c" d="M42.421 16.23c4.137 2.393 4.16 6.277.049 8.67-4.11 2.394-10.801 2.394-14.938 0-4.137-2.393-4.16-6.277-.049-8.67 4.11-2.395 10.8-2.395 14.938 0z" opacity="1" data-original="#fed44c" class=""></path><path fill="#f1bb34" d="M41.748 17.395c-1.801-1.038-4.214-1.617-6.81-1.617-2.587 0-4.994.573-6.782 1.617-1.546.903-2.4 2.02-2.4 3.153 0 .161.02.323.061.491.215-.95 1.029-1.872 2.34-2.634 1.787-1.044 4.194-1.617 6.782-1.617 2.595 0 5.008.58 6.81 1.617 1.323.768 2.17 1.725 2.385 2.688.04-.168.06-.343.06-.512 0-1.125-.893-2.283-2.446-3.186z" opacity="1" data-original="#f1bb34"></path><path fill="#f9c83a" d="M41.748 18.405c-1.801-1.037-4.214-1.617-6.81-1.617-2.587 0-4.994.573-6.782 1.617-1.31.762-2.124 1.684-2.339 2.634.215.964 1.062 1.927 2.386 2.695 1.802 1.044 4.215 1.617 6.81 1.617 2.588 0 4.994-.573 6.782-1.617 1.311-.768 2.124-1.691 2.34-2.64-.216-.964-1.063-1.92-2.387-2.689z" opacity="1" data-original="#f9c83a" class=""></path><path fill="#f1bb34" d="m39.767 18.091-.001.533-.577.336.002-.533zM34.863 19.614l.002-.533c0-.168.124-.325.368-.468.254-.147.56-.213.926-.2.363.014.732.109 1.104.289l-.002.533a2.776 2.776 0 0 0-1.103-.29c-.366-.012-.673.054-.926.201-.245.143-.368.3-.369.468zM37.957 19.145l-.001.533-2.128 1.24.002-.534z" opacity="1" data-original="#f1bb34"></path><path fill="#f1bb34" d="m38.928 20.47-.001.532c-.147-.498-.471-.938-.971-1.324l.001-.533c.5.386.824.826.971 1.324z" opacity="1" data-original="#f1bb34"></path><path fill="#f1bb34" d="m40.712 20.29-.001.534-1.784.178.001-.533zM32.82 19.508l.001-.533c0 .04.003.08.01.119.068.424.428.943 1.082 1.559l-.001.533c-.654-.616-1.015-1.135-1.083-1.56a.745.745 0 0 1-.01-.118zM34.948 22.007l-.001.533a.31.31 0 0 0-.001-.025c-.012-.187-.18-.454-.497-.794l.001-.533c.318.34.485.607.497.794a.31.31 0 0 1 .001.025zM34.45 21.188l-.001.533-2.036 1.186.001-.533zM30.483 22.65l-.001.533c-.937-.664-1.459-1.443-1.569-2.34l.002-.533c.11.897.632 1.676 1.568 2.34zM30.389 23.553l-.002.533-.73-.422.001-.533z" opacity="1" data-original="#f1bb34"></path><path fill="#f1bb34" d="m31.203 23.079-.002.533-.814.474.002-.533z" opacity="1" data-original="#f1bb34"></path><path fill="#f1bb34" d="m36.971 22.115-.001.533c-.002.396-.304.767-.904 1.117-.662.385-1.437.562-2.32.532a5.875 5.875 0 0 1-2.545-.685l.002-.533a5.876 5.876 0 0 0 2.545.685c.883.03 1.657-.147 2.32-.532.6-.35.902-.721.903-1.117z" opacity="1" data-original="#f1bb34"></path><path fill="#fed44c" d="M36.963 21.998c.063.44-.236.85-.896 1.234-.662.385-1.436.562-2.32.532a5.876 5.876 0 0 1-2.544-.685l-.814.474-.73-.422.824-.481c-.936-.664-1.458-1.443-1.568-2.34l1.818-.091c.084.689.414 1.261.984 1.713l2.196-1.28c-.654-.615-1.014-1.134-1.083-1.558-.066-.423.225-.824.88-1.205.65-.38 1.416-.558 2.288-.534a5.58 5.58 0 0 1 2.473.643l.566-.33.73.423-.576.336c.772.517 1.282 1.14 1.521 1.864l-1.784.178c-.147-.498-.47-.938-.97-1.324l-2.128 1.24.033.019c.67.621 1.037 1.153 1.1 1.594zm-3.368.69c.388.023.711-.043.976-.197.262-.153.389-.323.376-.51-.012-.186-.18-.453-.497-.793l-2.036 1.186c.403.188.793.292 1.181.315m1.709-2.846 1.959-1.141a2.776 2.776 0 0 0-1.104-.29c-.365-.012-.672.054-.926.201-.251.147-.375.309-.368.482.004.172.149.423.439.748" opacity="1" data-original="#fed44c" class=""></path><path fill="#e2ac2f" d="m47.67 15.98-.008 3.295c-.005 1.559-1.027 3.116-3.07 4.305-4.11 2.394-10.8 2.394-14.937 0-2.082-1.205-3.122-2.786-3.117-4.366l.01-3.295c-.005 1.58 1.034 3.162 3.116 4.366 4.138 2.394 10.828 2.394 14.938 0 2.042-1.19 3.064-2.746 3.069-4.305z" opacity="1" data-original="#e2ac2f" class=""></path><path fill="#fed44c" d="M44.554 11.614c4.137 2.394 4.159 6.277.048 8.671-4.11 2.394-10.8 2.394-14.938 0-4.137-2.394-4.159-6.277-.048-8.671 4.11-2.394 10.8-2.394 14.938 0z" opacity="1" data-original="#fed44c" class=""></path><path fill="#f1bb34" d="M43.88 12.78c-1.8-1.038-4.214-1.617-6.809-1.617-2.588 0-4.994.572-6.782 1.616-1.546.903-2.4 2.021-2.4 3.153 0 .162.02.324.06.492.216-.95 1.03-1.873 2.34-2.634 1.788-1.044 4.194-1.617 6.782-1.617 2.595 0 5.008.58 6.81 1.617 1.324.768 2.17 1.724 2.386 2.688.04-.169.06-.344.06-.512 0-1.125-.894-2.284-2.446-3.187z" opacity="1" data-original="#f1bb34"></path><path fill="#f9c83a" d="M43.88 13.79c-1.8-1.038-4.214-1.617-6.809-1.617-2.588 0-4.994.573-6.782 1.617-1.31.761-2.124 1.684-2.34 2.634.216.963 1.063 1.926 2.387 2.695 1.801 1.044 4.215 1.616 6.81 1.616 2.587 0 4.994-.572 6.782-1.616 1.31-.769 2.124-1.692 2.339-2.641-.215-.964-1.062-1.92-2.386-2.688z" opacity="1" data-original="#f9c83a" class=""></path><path fill="#f1bb34" d="m41.9 13.476-.002.533-.577.336.002-.533zM36.996 14.999l.001-.533c0-.168.124-.326.369-.468.253-.148.56-.214.926-.201.362.015.731.11 1.103.29l-.001.532a2.778 2.778 0 0 0-1.104-.289c-.365-.013-.672.053-.926.2-.244.143-.368.3-.368.469zM40.09 14.53l-.002.533-2.127 1.239.001-.533z" opacity="1" data-original="#f1bb34"></path><path fill="#f1bb34" d="m41.06 15.854-.001.533c-.147-.498-.47-.938-.97-1.324v-.533c.501.386.825.826.972 1.324z" opacity="1" data-original="#f1bb34"></path><path fill="#f1bb34" d="m42.845 15.676-.002.533-1.784.178.002-.533zM34.952 14.893l.002-.533c0 .04.002.079.009.118.068.425.429.944 1.083 1.56l-.002.532c-.654-.615-1.014-1.134-1.083-1.558a.744.744 0 0 1-.009-.12zM37.08 17.392v.533a.31.31 0 0 0-.002-.026c-.012-.186-.18-.453-.497-.794l.002-.533c.317.34.485.608.497.794a.32.32 0 0 1 0 .026z" opacity="1" data-original="#f1bb34"></path><path fill="#f1bb34" d="m36.583 16.572-.002.533-2.036 1.186.002-.533zM32.616 18.035l-.002.533c-.936-.664-1.458-1.443-1.568-2.34l.001-.533c.11.897.632 1.676 1.569 2.34zM32.521 18.938l-.001.533-.73-.423v-.533z" opacity="1" data-original="#f1bb34"></path><path fill="#f1bb34" d="m33.335 18.464-.001.533-.814.474.001-.533z" opacity="1" data-original="#f1bb34"></path><path fill="#f1bb34" d="m39.104 17.5-.002.532c-.001.396-.303.767-.904 1.117-.662.386-1.436.563-2.32.532a5.875 5.875 0 0 1-2.544-.684l.001-.533a5.878 5.878 0 0 0 2.545.684c.883.03 1.658-.146 2.32-.532.6-.35.903-.72.904-1.117z" opacity="1" data-original="#f1bb34"></path><path fill="#fed44c" d="M39.095 17.382c.064.44-.236.85-.895 1.234-.662.386-1.437.563-2.32.532a5.878 5.878 0 0 1-2.545-.684l-.814.474-.73-.423.825-.48c-.937-.664-1.459-1.443-1.569-2.34l1.818-.092c.084.69.414 1.262.984 1.713l2.197-1.279c-.654-.615-1.015-1.134-1.083-1.559-.066-.422.225-.824.879-1.205.65-.379 1.417-.557 2.289-.533a5.58 5.58 0 0 1 2.473.643l.565-.33.73.423-.576.336c.773.517 1.283 1.139 1.522 1.864l-1.784.178c-.147-.498-.471-.938-.971-1.324l-2.128 1.239.034.02c.67.62 1.036 1.153 1.1 1.593zm-3.367.691c.387.023.71-.043.976-.197.262-.153.388-.323.376-.51s-.18-.453-.497-.794l-2.036 1.186c.402.188.793.293 1.18.315m1.709-2.846 1.96-1.14a2.776 2.776 0 0 0-1.104-.29c-.366-.013-.673.053-.926.2-.252.147-.375.31-.369.483.004.172.15.423.439.747" opacity="1" data-original="#fed44c" class=""></path><path fill="#f1bb34" d="m45.38 10.556-.01 3.295c-.004 1.559-1.026 3.116-3.068 4.305-4.11 2.394-10.8 2.394-14.938 0-2.082-1.204-3.122-2.786-3.117-4.366l.01-3.295c-.005 1.58 1.035 3.162 3.117 4.366 4.137 2.394 10.827 2.394 14.937 0 2.042-1.189 3.065-2.746 3.069-4.305z" opacity="1" data-original="#f1bb34"></path><path fill="#fed44c" d="M42.263 6.19c4.137 2.394 4.159 6.277.048 8.671-4.11 2.394-10.8 2.394-14.938 0-4.137-2.393-4.159-6.277-.048-8.671 4.11-2.394 10.8-2.394 14.938 0z" opacity="1" data-original="#fed44c" class=""></path><path fill="#f1bb34" d="M41.59 7.356c-1.802-1.038-4.215-1.617-6.81-1.617-2.587 0-4.994.573-6.782 1.617-1.546.902-2.4 2.02-2.4 3.152 0 .162.02.324.06.492.216-.95 1.03-1.872 2.34-2.634 1.788-1.044 4.195-1.617 6.782-1.617 2.595 0 5.008.58 6.81 1.617 1.324.768 2.171 1.725 2.386 2.688.04-.168.06-.344.06-.512 0-1.125-.893-2.284-2.446-3.186z" opacity="1" data-original="#f1bb34"></path><path fill="#f9c83a" d="M41.59 8.366c-1.802-1.037-4.215-1.617-6.81-1.617-2.587 0-4.994.573-6.782 1.617-1.31.762-2.124 1.684-2.34 2.634.216.964 1.063 1.927 2.387 2.695 1.802 1.044 4.215 1.616 6.81 1.616 2.587 0 4.994-.572 6.782-1.616 1.31-.768 2.124-1.691 2.34-2.641-.216-.963-1.063-1.92-2.387-2.688z" opacity="1" data-original="#f9c83a" class=""></path><path fill="#f1bb34" d="m39.609 8.052-.002.533-.576.336.001-.533zM34.705 9.575l.001-.533c0-.168.124-.325.369-.468.254-.148.56-.214.926-.2.363.014.731.109 1.103.289l-.001.533a2.778 2.778 0 0 0-1.104-.29c-.365-.012-.672.053-.926.201-.244.143-.368.3-.368.468zM37.799 9.106l-.002.533-2.127 1.24.002-.534z" opacity="1" data-original="#f1bb34"></path><path fill="#f1bb34" d="m38.77 10.43-.002.533c-.147-.498-.47-.938-.97-1.324v-.533c.501.386.825.826.972 1.324zM40.554 10.252l-.001.533-1.785.178.002-.533zM32.661 9.47l.002-.534c0 .04.003.079.009.119.069.424.429.943 1.083 1.558l-.002.533c-.654-.615-1.014-1.134-1.083-1.558a.756.756 0 0 1-.009-.119zM34.79 11.968l-.002.533a.44.44 0 0 0 0-.026c-.013-.186-.18-.453-.498-.793l.002-.533c.317.34.485.607.497.793v.026zM34.292 11.149l-.002.533-2.036 1.185.002-.533zM30.325 12.61l-.001.534c-.937-.664-1.46-1.443-1.57-2.34l.002-.533c.11.897.632 1.676 1.569 2.34zM30.23 13.514l-.001.533-.73-.423v-.533z" opacity="1" data-original="#f1bb34"></path><path fill="#f1bb34" d="m31.044 13.04-.001.533-.814.474.001-.533zM36.813 12.075l-.002.533c0 .397-.303.768-.903 1.118-.663.385-1.437.562-2.32.531a5.876 5.876 0 0 1-2.545-.684l.001-.533a5.875 5.875 0 0 0 2.545.684c.884.03 1.658-.146 2.32-.532.6-.35.903-.72.904-1.117z" opacity="1" data-original="#f1bb34"></path><path fill="#fed44c" d="M36.804 11.958c.064.44-.236.85-.895 1.234-.662.386-1.436.563-2.32.532a5.875 5.875 0 0 1-2.545-.684l-.814.474-.73-.423.825-.48c-.937-.664-1.459-1.443-1.569-2.34l1.818-.091c.085.689.414 1.261.984 1.713l2.197-1.28c-.654-.615-1.014-1.134-1.083-1.558-.066-.423.225-.825.879-1.205.651-.38 1.417-.558 2.289-.534a5.58 5.58 0 0 1 2.473.643l.566-.33.73.423-.577.336c.773.517 1.283 1.139 1.522 1.864l-1.784.178c-.147-.498-.47-.938-.971-1.324l-2.127 1.239.033.02c.67.621 1.036 1.153 1.1 1.593zm-3.367.691c.387.023.71-.043.976-.197.262-.153.388-.323.376-.51s-.18-.453-.497-.793l-2.036 1.185c.402.188.793.293 1.18.315m1.71-2.845 1.958-1.141a2.778 2.778 0 0 0-1.103-.29c-.366-.013-.672.053-.926.201-.252.146-.375.309-.369.482.004.172.15.423.44.748" opacity="1" data-original="#fed44c" class=""></path><path fill="#ffffff" d="m39.172 16.472.657.946-.947-.657-.44 2.439-.44-2.439-.947.657.657-.946-2.439-.44 2.439-.441-.657-.947.946.658.44-2.44.441 2.44.947-.658-.657.947 2.439.44z" opacity="1" data-original="#ffffff" class=""></path></g></svg>