<svg xmlns="http://www.w3.org/2000/svg" version="1.1" xmlns:xlink="http://www.w3.org/1999/xlink" width="512" height="512" x="0" y="0" viewBox="0 0 512 512" style="enable-background:new 0 0 512 512" xml:space="preserve" class=""><g><path d="M512 256c0 141.387-114.613 256-256 256S0 397.387 0 256 114.613 0 256 0s256 114.613 256 256Zm0 0" style="stroke:none;fill-rule:nonzero;fill-opacity:1;" fill="#840012" data-original="#fa5d0f" class="" opacity="1"></path><path d="M510.14 286.89 377.493 154.247 134.508 423.758l85.742 85.746A258.21 258.21 0 0 0 256 512c130.93 0 238.887-98.293 254.14-225.11Zm0 0" style="stroke:none;fill-rule:nonzero;fill-opacity:1;" fill="#52000b" data-original="#ef3800" class="" opacity="1"></path><path d="M316.25 93H134.508v330.758h242.984V154.246Zm0 0" style="stroke:none;fill-rule:nonzero;fill-opacity:1;" fill="#ffffff" data-original="#ffffff"></path><path d="M377.492 154.246 316.25 93h-61.082v330.758h122.324Zm0 0" style="stroke:none;fill-rule:nonzero;fill-opacity:1;" fill="#f2f6fc" data-original="#f2f6fc"></path><path d="M316.25 154.246h61.242L316.25 93Zm0 0" style="stroke:none;fill-rule:nonzero;fill-opacity:1;" fill="#cdd2e1" data-original="#cdd2e1" class=""></path><path d="M163.063 181h185.87v23.035h-185.87Zm0 0" style="stroke:none;fill-rule:nonzero;fill-opacity:1;" fill="#dce1eb" data-original="#dce1eb" class=""></path><path d="M255.168 181h93.77v23.035h-93.77Zm0 0" style="stroke:none;fill-rule:nonzero;fill-opacity:1;" fill="#cdd2e1" data-original="#cdd2e1" class=""></path><path d="M163.063 222.965h185.87v23.039h-185.87Zm0 0" style="stroke:none;fill-rule:nonzero;fill-opacity:1;" fill="#dce1eb" data-original="#dce1eb" class=""></path><path d="M255.168 222.965h93.77v23.039h-93.77Zm0 0" style="stroke:none;fill-rule:nonzero;fill-opacity:1;" fill="#cdd2e1" data-original="#cdd2e1" class=""></path><path d="M163.063 264.934h185.87v23.035h-185.87Zm0 0" style="stroke:none;fill-rule:nonzero;fill-opacity:1;" fill="#dce1eb" data-original="#dce1eb" class=""></path><path d="M255.168 264.934h93.77v23.035h-93.77Zm0 0" style="stroke:none;fill-rule:nonzero;fill-opacity:1;" fill="#cdd2e1" data-original="#cdd2e1" class=""></path><path d="M163.063 306.898h185.87v23.036h-185.87Zm0 0" style="stroke:none;fill-rule:nonzero;fill-opacity:1;" fill="#dce1eb" data-original="#dce1eb" class=""></path><path d="M255.168 306.898h93.77v23.036h-93.77Zm0 0" style="stroke:none;fill-rule:nonzero;fill-opacity:1;" fill="#cdd2e1" data-original="#cdd2e1" class=""></path><path d="M163.063 348.863h185.87v23.035h-185.87Zm0 0" style="stroke:none;fill-rule:nonzero;fill-opacity:1;" fill="#dce1eb" data-original="#dce1eb" class=""></path><path d="M255.168 348.863h93.77v23.035h-93.77Zm0 0" style="stroke:none;fill-rule:nonzero;fill-opacity:1;" fill="#cdd2e1" data-original="#cdd2e1" class=""></path><path d="M397.21 380.207a22.918 22.918 0 0 1-16.26-6.734l-53.048-53.047c-8.98-8.985-8.98-23.543 0-32.528 8.985-8.98 23.543-8.984 32.528 0l53.047 53.047c8.98 8.98 8.98 23.543 0 32.528a22.943 22.943 0 0 1-16.266 6.734Zm0 0" style="stroke:none;fill-rule:nonzero;fill-opacity:1;" fill="#23272b" data-original="#23272b" class=""></path><path d="m413.477 340.945-53.047-53.047c-8.828-8.828-23.028-8.957-32.043-.437l85.527 85.527c8.52-9.015 8.387-23.218-.437-32.043Zm0 0" style="stroke:none;fill-rule:nonzero;fill-opacity:1;" fill="#23272b" data-original="#23272b" class=""></path><path d="M279.5 335.504c-49.352 0-89.5-40.152-89.5-89.5 0-49.352 40.148-89.5 89.5-89.5s89.5 40.148 89.5 89.5c0 49.348-40.148 89.5-89.5 89.5Zm0-151c-33.91 0-61.5 27.586-61.5 61.5 0 33.91 27.59 61.5 61.5 61.5s61.5-27.59 61.5-61.5c0-33.914-27.59-61.5-61.5-61.5Zm0 0" style="stroke:none;fill-rule:nonzero;fill-opacity:1;" fill="#414952" data-original="#414952" class=""></path><path d="M279.5 184.504c33.91 0 61.5 27.586 61.5 61.5 0 15.066-5.457 28.879-14.484 39.582l19.843 19.844C360.434 289.613 369 268.79 369 246.004c0-49.352-40.148-89.5-89.5-89.5-22.79 0-43.61 8.562-59.43 22.64l19.844 19.84c10.707-9.027 24.52-14.48 39.586-14.48Zm0 0" style="stroke:none;fill-rule:nonzero;fill-opacity:1;" fill="#23272b" data-original="#23272b" class=""></path></g></svg>