<svg xmlns="http://www.w3.org/2000/svg" version="1.1" xmlns:xlink="http://www.w3.org/1999/xlink" width="512" height="512" x="0" y="0" viewBox="0 0 340 340" style="enable-background:new 0 0 512 512" xml:space="preserve" class=""><g><path fill="#3b434f" d="M229.12 24.407s-24.809 2.668-26.677 36.014c0 0-1.867 30.679 22.942 41.616l-1.6 69.361 84.3-3.735s-3.423-31.057-4.651-115.881a42.49 42.49 0 0 0-19.74-35.582 41.536 41.536 0 0 0-22.31-6.2s-20.526-.8-32.264 14.407z" opacity="1" data-original="#3b434f" class=""></path><path fill="#232935" d="m306.876 152.458-.387-.223a29.853 29.853 0 0 1-14.812-25.73l-.12-31.363-58.1 2.4-8.157 8.165-1.515 65.693 84.3-3.735s-.511-4.639-1.209-15.207z" opacity="1" data-original="#232935"></path><path fill="#ffc7b3" d="M245.423 143.58v-35.331l29.871-8.625v32.73a13.35 13.35 0 0 0 5.06 10.464l5.267 7.162v35.2h-48.474v-24.452z" opacity="1" data-original="#ffc7b3" class=""></path><g fill="#f29a86"><path d="M237.147 185.177h12.746l-4.47-41.597-8.276 17.149zM262.4 171.7l-2.185 18.1h6.41l-2.173-18.1a1.033 1.033 0 0 0-2.052 0zM285.621 185.177V149.98l-5.267-7.162-5.08 48.725z" fill="#f29a86" opacity="1" data-original="#f29a86"></path></g><path fill="#ffffff" d="M236.03 162.147s7.253 14.909 27.8 14.909 27-14.909 27-14.909v119.909h-54.8z" opacity="1" data-original="#ffffff"></path><path fill="#dbdbdb" d="M236.03 254.588v27.468h54.801v-44.548z" opacity="1" data-original="#dbdbdb"></path><path fill="#dbdbdb" d="m277.076 174.575-3.021 35.611a17.04 17.04 0 0 1-5.108-2.328 1.257 1.257 0 0 0-1.8 1.633 13.228 13.228 0 0 0 6.453 6.058l-5.643 66.507h22.874V162.147a26.473 26.473 0 0 1-13.755 12.428zM257.9 207.858a17.013 17.013 0 0 1-7.021 2.727l-2.252-36.824a28.29 28.29 0 0 1-12.594-11.614v119.909h19.218l-4.024-65.795a13.237 13.237 0 0 0 8.473-6.77 1.257 1.257 0 0 0-1.8-1.633z" opacity="1" data-original="#dbdbdb"></path><path fill="#840012" d="m245.423 143.58-24.406 15.532a22.689 22.689 0 0 0-10.277 15.909l-8.967 62.314a19.432 19.432 0 0 1-5.6 11.079l-14.6 17.283v16.359h63.85zM324.032 282.056 318.5 178.192a22.654 22.654 0 0 0-10.4-17.885c-7.53-4.819-15.31-11.535-27.754-17.489v139.238z" opacity="1" data-original="#bdd8ff" class=""></path><path fill="#52000b" d="M228.648 256.889v25.167h16.775V251.66zM280.354 240.773v41.283h16.075l-.161-46.243z" opacity="1" data-original="#88aad3" class=""></path><rect width="163.469" height="103.679" x="10" y="127.134" fill="#840012" rx="12.034" opacity="1" data-original="#697e96" class=""></rect><path fill="#52000b" d="M88.747 166.869h5.975a8.84 8.84 0 0 1 8.84 8.84V265.7H79.907v-89.991a8.84 8.84 0 0 1 8.84-8.84zM62.484 265.7h58.5a9.653 9.653 0 0 1 9.653 9.653v6.706H52.831v-6.706a9.653 9.653 0 0 1 9.653-9.653z" opacity="1" data-original="#3b506d" class=""></path><path fill="#ffc7b3" d="M188.7 256.955a16.786 16.786 0 0 1 16.786 16.786v8.316h-33.573v-8.317a16.786 16.786 0 0 1 16.787-16.785z" opacity="1" data-original="#ffc7b3" class=""></path><path fill="#f29a86" d="m275.294 99.624-29.871 8.625v23.6l30.917 5.629a13.307 13.307 0 0 1-1.046-5.125z" opacity="1" data-original="#f29a86"></path><path fill="#52000b" d="m228.878 196.261-3.438 53.5a30.4 30.4 0 0 1-8.523 19.221l-12.688 13.07h30.283l-.89-78.253a52.127 52.127 0 0 0-2.653-16.416 1.348 1.348 0 0 0-2.623.54l.469 5.465a22.517 22.517 0 0 1 .063 2.873zM298.89 185.711l3.043 96.345H290.6l5.917-96.4a1.187 1.187 0 0 1 2.373.055z" opacity="1" data-original="#88aad3" class=""></path><path fill="#ffc7b3" d="M231.114 44s0 33.336 42.7 42.368a7 7 0 0 1 .458-1.155c3.37-6.938 13.484-6.33 16.263.865a18.133 18.133 0 0 1 1.025 9.063 12.223 12.223 0 0 1-15.144 10.193l-.3-.081s-1.048 17.442-18.221 21.18a28.323 28.323 0 0 1-13.461-.5c-7.756-2.113-20.091-7.846-23.866-23.2a35.444 35.444 0 0 1-.943-8.466v-18.9a49.724 49.724 0 0 1 3.555-18.584c1.979-4.934 4.705-10.244 7.934-12.783z" opacity="1" data-original="#ffc7b3" class=""></path><path fill="#52000b" d="M230.57 265.7h72.7a9.948 9.948 0 0 1 9.948 9.948v6.411h-92.596v-6.411a9.948 9.948 0 0 1 9.948-9.948z" opacity="1" data-original="#3b506d" class=""></path><path fill="#52000b" d="M124.206 273.877h114.733v8.179H124.206z" opacity="1" data-original="#3b506d" class=""></path><path fill="#ffbf8e" d="M10 282.056h320v24.522H10z" opacity="1" data-original="#ffbf8e"></path><path fill="#ea9366" d="M33.213 306.579h273.575V330H33.213z" opacity="1" data-original="#ea9366"></path><path fill="#2b313f" d="M236.03 96.02a3.995 3.995 0 0 1-4-4 4.129 4.129 0 0 1 .08-.78 3.832 3.832 0 0 1 .23-.75 4.524 4.524 0 0 1 .36-.69 4.919 4.919 0 0 1 .5-.61 4.037 4.037 0 0 1 3.61-1.09 3.832 3.832 0 0 1 .75.23 4.524 4.524 0 0 1 .69.36 4 4 0 0 1 1.11 1.11 4.524 4.524 0 0 1 .36.69 3.832 3.832 0 0 1 .23.75 4.129 4.129 0 0 1 .08.78 4.065 4.065 0 0 1-1.17 2.83 4.919 4.919 0 0 1-.61.5 4.524 4.524 0 0 1-.69.36 3.832 3.832 0 0 1-.75.23 4.129 4.129 0 0 1-.78.08zM253.08 96.02a4.129 4.129 0 0 1-.78-.08 3.832 3.832 0 0 1-.75-.23 4.524 4.524 0 0 1-.69-.36 4.919 4.919 0 0 1-.61-.5 3.964 3.964 0 0 1 .61-6.15 4.033 4.033 0 0 1 1.44-.6 3.728 3.728 0 0 1 1.56 0 4.033 4.033 0 0 1 1.44.6 3.639 3.639 0 0 1 .61.49 4.008 4.008 0 0 1 0 5.66 4.279 4.279 0 0 1-.61.5 4.524 4.524 0 0 1-.69.36 3.832 3.832 0 0 1-.75.23 4.129 4.129 0 0 1-.78.08z" opacity="1" data-original="#2b313f" class=""></path><path fill="#f29a86" d="M277.189 95.406c.512-2.549 1.73-6.209 4.615-8.311a.939.939 0 0 1 1.322 1.307 10.365 10.365 0 0 0-1.935 5.606s.044-.017.124-.043A2.847 2.847 0 0 1 284 98.842a5.769 5.769 0 0 1-2.507 1.173s-.045.008-.128.016a3.88 3.88 0 0 1-4.176-4.625z" opacity="1" data-original="#f29a86"></path><path fill="#ffc7b3" d="M313.214 256.955A16.786 16.786 0 0 1 330 273.74v8.316h-33.571v-8.316a16.786 16.786 0 0 1 16.785-16.785z" opacity="1" data-original="#ffc7b3" class=""></path></g></svg>