<svg xmlns="http://www.w3.org/2000/svg" version="1.1" xmlns:xlink="http://www.w3.org/1999/xlink" width="512" height="512" x="0" y="0" viewBox="0 0 140 140" style="enable-background:new 0 0 512 512" xml:space="preserve" class=""><g><circle cx="70.418" cy="70" r="64" fill="#840012" opacity="1" data-original="#efc84a" class=""></circle><path d="M46.336 71.452c-1.5.82-2.86 1.89-4 3.16a15.404 15.404 0 0 0-4.01 10.36v18.22c0 1.52.62 2.89 1.61 3.88L66.78 133.89c1.205.067 2.416.109 3.638.109 31.448 0 57.579-22.688 62.965-52.585L78.376 25.972c-.32-.34-.71-.67-1.2-.98-2.73-1.72-4.86-1.25-5.47 0 0 0-3.5-3.12-7.53-2.58-4.03.55-3.5 1.96-6.16 3.6-2.66 1.64-3.95 3.6-4.56 6.1-.61 2.51.45 1.49 0 3.44-.46 1.96-.54 3.91-.2 5.95.17.99.76 2.73 1.32 4.24-.02.34-.02.7 0 1.08.13 1.99.79 3.58 1.51 3.76 0 1.11.14 2.61.78 3.85.92 1.82 1.81 2.87 2.89 3.98v3.13l-.05-.07-2.18 3.83.01.02-1.51.82z" opacity="1" fill="#00000010" data-original="#00000010" class=""></path><path fill="#e69871" d="m74.75 69.708-7.797 2.617-7.194-2.617V49.313H74.75z" opacity="1" data-original="#e69871" class=""></path><path fill="#d5d6db" d="M79.338 106.103V66.615l-2.408-1.318-9.92 6.783-9.431-6.783-.414.226v40.58z" opacity="1" data-original="#d5d6db" class=""></path><path fill="#d5d6db" d="M92.178 74.612a15.456 15.456 0 0 0-4.013-3.161l-9.655-5.29-1.579-.866-.92.18c-.635 5.078-3.074 22.366-8.75 39.182-5.674-16.812-8.118-34.095-8.752-39.177l-.93-.185-1.555.851-9.684 5.305a15.359 15.359 0 0 0-4.008 3.161 15.406 15.406 0 0 0-4.004 10.364v18.214a5.489 5.489 0 0 0 5.49 5.489h46.875a5.489 5.489 0 0 0 5.489-5.489V84.976c0-3.833-1.426-7.526-4.004-10.364z" opacity="1" data-original="#d5d6db" class=""></path><g fill="#f0a67a"><ellipse cx="78.781" cy="46.752" rx="4.46" ry="1.42" transform="rotate(-81.03 78.776 46.735)" fill="#f0a67a" opacity="1" data-original="#f0a67a" class=""></ellipse><ellipse cx="55.998" cy="46.749" rx="1.42" ry="3.877" transform="rotate(-3.62 56.484 46.776)" fill="#f0a67a" opacity="1" data-original="#f0a67a" class=""></ellipse><path d="m78.25 48.95-.441-13.041-1.547-4.205-9.036-2.437-9.037 2.437-4.175 7.013 2.187 10.233s-.516 3.169.663 5.484c1.178 2.316 2.282 3.374 3.829 4.917 1.546 1.543 3.567 2.022 6.533 2.117 2.965-.095 4.986-.574 6.533-2.117 1.546-1.543 2.65-2.6 3.829-4.917 1.178-2.315.662-5.484.662-5.484z" fill="#f0a67a" opacity="1" data-original="#f0a67a" class=""></path></g><path fill="#bdbec1" d="M65.827 76.269v19.11h2.252V76.27c.294-4.672 1.927-5.991 1.927-5.991l-.948-1.022-2.013 2.404-1.692-2.404-1.453 1.022s1.633 1.32 1.927 5.99z" opacity="1" data-original="#bdbec1" class=""></path><path fill="#3a556a" d="M80.905 30.472c-1.37-1.487-.989-3.755-3.727-5.476-2.737-1.72-4.866-1.252-5.475 0 0 0-3.498-3.129-7.528-2.581-4.03.547-3.498 1.955-6.16 3.598-2.661 1.643-3.954 3.598-4.562 6.101-.609 2.503.456 1.486 0 3.442s-.535 3.907-.194 5.945c.337 2.006 2.416 7.093 2.416 7.093l1.033-.034s-.537-1.62-.71-4.391c.23-.453.74-6.619.735-8.85.626-1.139 1.504-1.028 3.031-1.171 2.51-.235 5.247-2.738 5.475-2.66.229.079 4.183 2.347 6.312.94 0 0 3.554-.7 4.563 4.145 1.491 7.162 2.099 12.69 1.882 12.962l1.072.067c.584-1.487 1.411-3.674 1.913-5.363.836-2.816.988-3.911 1.064-7.353.076-3.442.228-4.928-1.14-6.414z" opacity="1" data-original="#3a556a" class=""></path><path fill="#e56353" d="M99.805 75.324c-8.72-6.383-20.96-4.49-27.343 4.231-6.378 8.714-4.484 20.953 4.237 27.336 8.713 6.378 20.953 4.484 27.33-4.23 6.383-8.72 4.49-20.96-4.224-27.337zm-24.127 6.585c4.654-6.358 13.22-8.141 19.963-4.494l-18.212 24.882c-5.515-5.325-6.405-14.03-1.751-20.388zm5.172 22.893L99.063 79.92c5.52 5.323 6.413 14.033 1.757 20.393-4.655 6.361-13.227 8.143-19.97 4.49z" opacity="1" data-original="#e56353" class=""></path><g fill="#ebf0f3"><path d="m74.75 61.468-6.172 8.493 4.907 5.29 3.445-9.954zM59.708 61.468l6.172 8.493-4.907 5.29-3.445-9.954z" fill="#ebf0f3" opacity="1" data-original="#ebf0f3" class=""></path></g></g></svg>