<svg xmlns="http://www.w3.org/2000/svg" version="1.1" xmlns:xlink="http://www.w3.org/1999/xlink" width="512" height="512" x="0" y="0" viewBox="0 0 256 256" style="enable-background:new 0 0 512 512" xml:space="preserve" class=""><circle r="128" cx="128" cy="128" fill="#840012" shape="circle"></circle><g transform="matrix(0.7,0,0,0.7,38.400000000000006,39.30000000000001)"><path fill="#e64e17" d="M196 55v58l29 17V73z" opacity="1" data-original="#e64e17" class=""></path><path fill="#ff9c1a" d="m196 55 23-13 29 18-23 13z" opacity="1" data-original="#ff9c1a" class=""></path><path fill="#00537d" d="M248 60v57l-23 13V73z" opacity="1" data-original="#00537d" class=""></path><path fill="#ecffd7" d="M201 78v8l7 4v-8zM213 85v8l7 4v-8zM201 65v8l7 4v-8zM213 72v8l7 4v-8z" opacity="1" data-original="#ecffd7"></path><path fill="#48d7d9" d="m213 114-42 25-7-5 42-24z" opacity="1" data-original="#48d7d9"></path><path fill="#00537d" d="m171 145 42-25v-6l-42 25z" opacity="1" data-original="#00537d" class=""></path><path fill="#48d7d9" d="M164 134v6l7 5v-6z" opacity="1" data-original="#48d7d9"></path><path fill="#e64e17" d="M8 57v58l29 17V75z" opacity="1" data-original="#e64e17" class=""></path><path fill="#ff9c1a" d="m8 57 23-13 29 18-23 13z" opacity="1" data-original="#ff9c1a" class=""></path><path fill="#00537d" d="M60 62v57l-23 13V75z" opacity="1" data-original="#00537d" class=""></path><path fill="#ecffd7" d="M13 80v8l7 4v-8zM25 87v8l7 4v-8zM13 67v8l7 4v-8zM25 74v8l7 4v-8z" opacity="1" data-original="#ecffd7"></path><path fill="#48d7d9" d="m46 115 33 20 7-5-33-19z" opacity="1" data-original="#48d7d9"></path><path fill="#00537d" d="m79 141-33-20v-6l33 20z" opacity="1" data-original="#00537d" class=""></path><path fill="#48d7d9" d="m42 150 77-42 94 51-77 44z" opacity="1" data-original="#48d7d9"></path><path fill="#00537d" d="M148 43v100l-36 23V64z" opacity="1" data-original="#00537d" class=""></path><path fill="#39bdbd" d="M42 150v12l94 54v-13z" opacity="1" data-original="#39bdbd"></path><path fill="#00537d" d="M136 216v-13l77-44v12z" opacity="1" data-original="#00537d" class=""></path><path fill="#e64e17" d="M112 130V64L76 43v104l47 26 25 15v-37z" opacity="1" data-original="#e64e17" class=""></path><path fill="#ff9c1a" d="m148 43-34.21-19L76 43l36 21z" opacity="1" data-original="#ff9c1a" class=""></path><g fill="#ecffd7"><path d="M84 72v8l7 4v-8zM96 79v8l7 4v-8zM84 59v8l7 4v-8zM96 66v8l7 4v-8zM84 98v8l7 4v-8zM96 105v8l7 4v-8zM84 85v8l7 4v-8zM96 92v8l7 4v-8z" fill="#ecffd7" opacity="1" data-original="#ecffd7"></path></g><path fill="#ff9c1a" d="m185 130-35-19-38 19 36 21z" opacity="1" data-original="#ff9c1a" class=""></path><path fill="#00537d" d="M185 130v36l-37 22v-37z" opacity="1" data-original="#00537d" class=""></path><path fill="#ff9c1a" d="M148 151v-49l-36 28z" opacity="1" data-original="#ff9c1a" class=""></path><path fill="#85273d" d="M148 102v49l37-21z" opacity="1" data-original="#85273d"></path><path fill="#ff9c1a" d="M112 64V15L76 43z" opacity="1" data-original="#ff9c1a" class=""></path><path fill="#85273d" d="M112 15v49l36-21z" opacity="1" data-original="#85273d"></path><path fill="#00537d" d="M123 173v-19l10 6v19z" opacity="1" data-original="#00537d" class=""></path><path fill="#48d7d9" d="m93 183-59 34-7-5 59-33z" opacity="1" data-original="#48d7d9"></path><path fill="#00537d" d="m34 223 59-34v-6l-59 34z" opacity="1" data-original="#00537d" class=""></path><path fill="#48d7d9" d="M27 212v6l7 5v-6zM174 186l59 34 7-5-59-33z" opacity="1" data-original="#48d7d9"></path><path fill="#00537d" d="m233 226-59-34v-6l59 34z" opacity="1" data-original="#00537d" class=""></path><path fill="#e64e17" d="M8 172v58l29 17v-57z" opacity="1" data-original="#e64e17" class=""></path><path fill="#ff9c1a" d="m8 172 23-13 29 18-23 13z" opacity="1" data-original="#ff9c1a" class=""></path><path fill="#00537d" d="M60 177v57l-23 13v-57z" opacity="1" data-original="#00537d" class=""></path><path fill="#ecffd7" d="M13 195v8l7 4v-8zM25 202v8l7 4v-8zM13 182v8l7 4v-8zM25 189v8l7 4v-8z" opacity="1" data-original="#ecffd7"></path><path fill="#e64e17" d="M196 172v58l29 17v-57z" opacity="1" data-original="#e64e17" class=""></path><path fill="#ff9c1a" d="m196 172 23-13 29 18-23 13z" opacity="1" data-original="#ff9c1a" class=""></path><path fill="#00537d" d="M248 177v57l-23 13v-57z" opacity="1" data-original="#00537d" class=""></path><path fill="#ecffd7" d="M201 195v8l7 4v-8zM213 202v8l7 4v-8zM201 182v8l7 4v-8zM213 189v8l7 4v-8z" opacity="1" data-original="#ecffd7"></path></g></svg>