<svg xmlns="http://www.w3.org/2000/svg" version="1.1" xmlns:xlink="http://www.w3.org/1999/xlink" width="512" height="512" x="0" y="0" viewBox="0 0 512 512" style="enable-background:new 0 0 512 512" xml:space="preserve" class=""><g><path d="M483.516 502.968h-454C13.282 502.968 0 489.685 0 473.452V179.355l257-10 255 10v295.129c0 15.731-12.753 28.484-28.484 28.484z" style="" fill="#e4e9f4" data-original="#e4e9f4" class=""></path><path d="M512 179.355H0V85.484c0-16.569 13.431-30 30-30h450.968c16.569 0 31.032 13.431 31.032 30v93.871z" style="" fill="#840012" data-original="#ff6464" class="" opacity="1"></path><path d="M459.355 179.355v137.806c0 85.515-69.324 154.839-154.839 154.839H0c0 17.103 11.897 30.968 29 30.968h456.016c14.903 0 26.984-12.081 26.984-26.984V179.355h-52.645z" style="" fill="#cdd2df" data-original="#cdd2df" class=""></path><path d="M250.506 362.23a7.743 7.743 0 0 1-5.474-2.267l-18.248-18.248a7.742 7.742 0 1 1 10.949-10.95l12.774 12.774 27.372-27.373a7.742 7.742 0 1 1 10.949 10.95l-32.846 32.847a7.751 7.751 0 0 1-5.476 2.267zM157.603 362.23a7.743 7.743 0 0 1-5.474-2.267l-18.248-18.248a7.742 7.742 0 1 1 10.949-10.95l12.774 12.774 27.372-27.373a7.742 7.742 0 1 1 10.949 10.95l-32.846 32.847a7.751 7.751 0 0 1-5.476 2.267zM64.7 362.23a7.743 7.743 0 0 1-5.474-2.267l-18.248-18.248a7.742 7.742 0 1 1 10.949-10.95L64.7 343.539l27.372-27.373a7.742 7.742 0 1 1 10.949 10.95l-32.846 32.847a7.749 7.749 0 0 1-5.475 2.267z" style="" fill="#49bc6e" data-original="#49bc6e" class=""></path><path d="M480 55.484h-51.613c17.103 0 30.968 13.865 30.968 30.968v92.903H512V86.452c0-17.103-14.897-30.968-32-30.968z" style="" fill="#52000b" data-original="#ed4545" class="" opacity="1"></path><path d="M86.018 268.86h-32.68a6.886 6.886 0 0 1-6.886-6.886v-32.68a6.886 6.886 0 0 1 6.886-6.886h32.68a6.886 6.886 0 0 1 6.886 6.886v32.68a6.887 6.887 0 0 1-6.886 6.886z" style="" fill="#7a6cf7" data-original="#7a6cf7" class=""></path><path d="M343.409 269.799a7.719 7.719 0 0 1-5.474-2.267l-18.248-18.248a7.742 7.742 0 1 1 10.949-10.95l12.774 12.774 27.372-27.372a7.742 7.742 0 1 1 10.949 10.95l-32.846 32.846a7.727 7.727 0 0 1-5.476 2.267zM250.506 269.799a7.719 7.719 0 0 1-5.474-2.267l-18.248-18.248a7.742 7.742 0 1 1 10.949-10.95l12.774 12.774 27.372-27.372a7.742 7.742 0 1 1 10.949 10.95l-32.846 32.846a7.727 7.727 0 0 1-5.476 2.267zM157.603 269.799a7.719 7.719 0 0 1-5.474-2.267l-18.248-18.248a7.742 7.742 0 1 1 10.949-10.95l12.774 12.774 27.372-27.372a7.742 7.742 0 1 1 10.949 10.95l-32.846 32.846a7.727 7.727 0 0 1-5.476 2.267z" style="" fill="#49bc6e" data-original="#49bc6e" class=""></path><path d="M371.926 314.525a7.745 7.745 0 0 0-10.949 0l-12.59 12.59-12.59-12.59a7.742 7.742 0 1 0-10.949 10.95l12.59 12.59-12.59 12.59a7.742 7.742 0 0 0 10.948 10.95l12.59-12.59 12.59 12.59c1.512 1.511 3.493 2.267 5.474 2.267s3.963-.756 5.474-2.267a7.742 7.742 0 0 0 0-10.95l-12.59-12.59 12.59-12.59a7.74 7.74 0 0 0 .002-10.95zM452.239 245.634l12.59-12.59a7.742 7.742 0 1 0-10.949-10.95l-12.59 12.59-12.59-12.59a7.742 7.742 0 1 0-10.949 10.95l12.59 12.59-12.59 12.59a7.742 7.742 0 0 0 10.948 10.95l12.59-12.59 12.59 12.59c1.512 1.511 3.493 2.267 5.474 2.267s3.963-.756 5.474-2.267a7.742 7.742 0 0 0 0-10.95l-12.588-12.59z" style="" fill="#840012" data-original="#ff6464" class="" opacity="1"></path><path d="M457.631 361.29h-32.68a6.886 6.886 0 0 1-6.886-6.886v-32.68a6.886 6.886 0 0 1 6.886-6.886h32.68a6.886 6.886 0 0 1 6.886 6.886v32.68a6.887 6.887 0 0 1-6.886 6.886zM86.018 454.194h-32.68a6.886 6.886 0 0 1-6.886-6.886v-32.68a6.886 6.886 0 0 1 6.886-6.886h32.68a6.886 6.886 0 0 1 6.886 6.886v32.68a6.887 6.887 0 0 1-6.886 6.886zM178.921 454.194h-32.68a6.886 6.886 0 0 1-6.886-6.886v-32.68a6.886 6.886 0 0 1 6.886-6.886h32.68a6.886 6.886 0 0 1 6.886 6.886v32.68a6.887 6.887 0 0 1-6.886 6.886zM271.824 454.194h-32.68a6.886 6.886 0 0 1-6.886-6.886v-32.68a6.886 6.886 0 0 1 6.886-6.886h32.68a6.886 6.886 0 0 1 6.886 6.886v32.68a6.886 6.886 0 0 1-6.886 6.886zM364.727 454.194h-32.68a6.886 6.886 0 0 1-6.886-6.886v-32.68a6.886 6.886 0 0 1 6.886-6.886h32.68a6.886 6.886 0 0 1 6.886 6.886v32.68a6.886 6.886 0 0 1-6.886 6.886z" style="" fill="#7a6cf7" data-original="#7a6cf7" class=""></path><path d="M115.823 105.032h-1.452c-12.426 0-22.5-10.074-22.5-22.5v-51c0-12.426 10.074-22.5 22.5-22.5h1.452c12.426 0 22.5 10.074 22.5 22.5v51c0 12.427-10.074 22.5-22.5 22.5zM396.597 105.032h-1.452c-12.426 0-22.5-10.074-22.5-22.5v-51c0-12.426 10.074-22.5 22.5-22.5h1.452c12.426 0 22.5 10.074 22.5 22.5v51c0 12.427-10.074 22.5-22.5 22.5z" style="" fill="#555e6b" data-original="#555e6b"></path></g></svg>