<svg xmlns="http://www.w3.org/2000/svg" version="1.1" xmlns:xlink="http://www.w3.org/1999/xlink" width="512" height="512" x="0" y="0" viewBox="0 0 64 64" style="enable-background:new 0 0 512 512" xml:space="preserve" class=""><g><path fill="#840012" d="m35.935 13.884-.658-1.317a5.226 5.226 0 0 1 .193-5.028 5.225 5.225 0 0 1 3.377-2.421l1.723-1.3A9.091 9.091 0 0 1 46.022 2a9.089 9.089 0 0 1 3.765.817l2.791 1.271a7.074 7.074 0 0 1 3.136 2.8 7.08 7.08 0 0 1 .43 6.445L54.993 16 55 17h1a2 2 0 0 1 2 2 2 2 0 0 1-2 2h-1.055A9 9 0 0 1 50 28.064V32l9.538 3.974A4 4 0 0 1 62 39.667V53H2V39.667a4 4 0 0 1 2.462-3.693L14 32v-3.936l-.027-.013A9.005 9.005 0 0 1 9.055 21H8a2 2 0 0 1-2-2 2 2 0 0 1 2-2h1l-.007-1-1.716-3.433a5.226 5.226 0 0 1 .193-5.028 5.225 5.225 0 0 1 3.377-2.421l1.723-1.3A9.091 9.091 0 0 1 18.022 2a9.089 9.089 0 0 1 3.765.817l2.791 1.271a7.074 7.074 0 0 1 3.136 2.8 7.08 7.08 0 0 1 .43 6.445l-.295.682A9.084 9.084 0 0 1 32.022 13a9.089 9.089 0 0 1 3.765.817z" opacity="1" data-original="#243242" class=""></path><path fill="#8892a0" d="m36 43 15.071 4.186A4 4 0 0 1 54 51.04V62H10V51.04a4 4 0 0 1 2.929-3.854L28 43" opacity="1" data-original="#8892a0"></path><path fill="#a8b0bc" d="M45.647 45.68 36 43h-8l-15.071 4.186A4 4 0 0 0 10 51.04V62h23.848a34.569 34.569 0 0 0 11.799-16.32z" opacity="1" data-original="#a8b0bc" class=""></path><path fill="#c18e59" d="m40.993 27 1.151-2.667a7.08 7.08 0 0 0-.43-6.445 7.08 7.08 0 0 0-3.136-2.8l-2.791-1.271A9.089 9.089 0 0 0 32.022 13a9.091 9.091 0 0 0-5.452 1.817l-1.67 1.291a5.227 5.227 0 0 0-3.426 2.431 5.226 5.226 0 0 0-.193 5.028L22.993 27H23l2-4 1.6 1.2A9 9 0 0 0 32 26a9 9 0 0 0 5.4-1.8L39 23l2 4z" opacity="1" data-original="#c18e59"></path><path fill="#fadfb2" d="M43 28h-2v-1l-2-4-1.6 1.2a9 9 0 0 1-10.8 0L25 23l-2 4v1h-2a2 2 0 0 0 0 4h2.059A8.993 8.993 0 0 0 28 39.053V43l4 4 4-4v-3.947A8.993 8.993 0 0 0 40.941 32H43a2 2 0 0 0 0-4z" opacity="1" data-original="#fadfb2" class=""></path><path fill="#8892a0" d="M17 52.999h2v8.999h-2z" opacity="1" data-original="#8892a0"></path><path fill="#758190" d="M45 52.999h2v8.999h-2z" opacity="1" data-original="#758190"></path></g></svg>