<svg xmlns="http://www.w3.org/2000/svg" version="1.1" xmlns:xlink="http://www.w3.org/1999/xlink" width="512" height="512" x="0" y="0" viewBox="0 0 512 512" style="enable-background:new 0 0 512 512" xml:space="preserve" class=""><g><g fill-rule="evenodd" clip-rule="evenodd"><circle cx="256" cy="256" r="240" fill="#840012" opacity="1" data-original="#ff5a54" class=""></circle><path fill="#52000b" d="M495.956 252.561c.016 1.146.044 2.289.044 3.439 0 132.548-107.452 240-240 240-1.259 0-2.511-.028-3.766-.048l-88.663-88.664a15.389 15.389 0 0 1-5.352-10.777l-12.397-203.318h1.554l-17.467-17.467a4.984 4.984 0 0 1-1.467-3.533v-25.76c0-8.497 6.93-15.426 15.426-15.426h64.999v-12.613c0-9.582 7.815-17.396 17.396-17.396h59.474c5.09 0 9.682 2.205 12.868 5.71l24.299 24.299h45.228c4.779 0 9.063 2.193 11.896 5.624z" opacity="1" data-original="#db3a3c" class=""></path><path fill="#ffffff" d="M205.923 234.437a8 8 0 0 1 8 8v101.585a8 8 0 0 1-16 0V242.437a8 8 0 0 1 8-8zm42.077 8a8 8 0 0 1 16 0v101.585a8 8 0 0 1-16 0zm50.077 0a8 8 0 0 1 16 0v101.585a8 8 0 0 1-16 0zm-152.255-49.243 12.397 203.318a15.409 15.409 0 0 0 15.397 14.487h164.767a15.408 15.408 0 0 0 15.397-14.487l12.397-203.318zm-1.954-62.185h64.999v-12.613c0-9.582 7.815-17.396 17.396-17.396h59.474c9.581 0 17.396 7.814 17.396 17.396v12.613h64.998c8.497 0 15.426 6.93 15.426 15.426v25.76c0 2.754-2.246 5-5 5H133.441a5.01 5.01 0 0 1-5-5v-25.76c0-8.497 6.931-15.426 15.427-15.426z" opacity="1" data-original="#ffffff" class=""></path></g></g></svg>