<svg xmlns="http://www.w3.org/2000/svg" version="1.1" xmlns:xlink="http://www.w3.org/1999/xlink" width="512" height="512" x="0" y="0" viewBox="0 0 511.999 511.999" style="enable-background:new 0 0 512 512" xml:space="preserve" class=""><circle r="255.9995" cx="255.9995" cy="255.9995" fill="#840012" shape="circle"></circle><g transform="matrix(0.7,0,0,0.7,76.79985351562502,76.80000286102296)"><path d="M255.375 16.712c-36.6 0-66.268 29.669-66.268 66.268v26.795c4.429-4.105 10.73-6.337 16.88-5.515v-3.302c0-2.625 2.241-4.699 4.84-4.502 25.621 1.841 51.696-6.301 71.411-19.18a4.512 4.512 0 0 1 5.773.704c16.855 18.118 16.753 17.416 16.753 19.782v6.484c6.742-1.011 12.722 1.073 16.877 4.936V82.981c.002-36.6-29.666-66.269-66.266-66.269z" style="" fill="#707487" data-original="#707487" class=""></path><path d="M209.946 82.981c0-33.054 24.2-60.447 55.849-65.447a66.758 66.758 0 0 0-10.419-.822c-36.6 0-66.268 29.669-66.268 66.268v26.795c4.429-4.106 10.73-6.337 16.88-5.515v-3.302c0-2.322 1.755-4.205 3.958-4.475V82.981z" style="" fill="#5b5d6e" data-original="#5b5d6e"></path><path d="M304.677 101.847v36.443c0 .395-.021.785-.03 1.179 12.896 1.953 22.997-7.365 22.997-18.809-.001-11.467-10.11-20.74-22.967-18.813z" style="" fill="#f0a479" data-original="#f0a479" class=""></path><path d="M321.673 106.85c-4.173-3.91-10.2-6.022-16.996-5.003v36.443c0 .395-.021.785-.03 1.179 6.817 1.032 12.851-1.086 17.026-5.002V106.85z" style="" fill="#e59770" data-original="#e59770"></path><path d="M206.135 138.334v-36.521c-11.256-1.503-23.025 7.135-23.025 18.846 0 11.458 10.104 20.817 23.054 18.857-.01-.394-.029-.787-.029-1.182z" style="" fill="#f0a479" data-original="#f0a479" class=""></path><path d="M206.135 132.668a18.901 18.901 0 0 1-4.275-12.009c0-4.367 1.638-8.307 4.275-11.453v-7.393c-11.256-1.503-23.026 7.136-23.026 18.846 0 11.458 10.104 20.817 23.054 18.857-.009-.394-.029-.787-.029-1.181v-5.667h.001z" style="" fill="#e59770" data-original="#e59770"></path><path d="M256.081 184.579c-10.706 0-20.115-2.939-27.81-7.856v27.149l27.691 34.18 27.69-34.18v-27.883a48.4 48.4 0 0 1-27.571 8.59z" style="" fill="#f0a479" data-original="#f0a479" class=""></path><path d="M248.876 184.113c-7.754-1.005-14.688-3.61-20.605-7.39v27.149l20.605 25.433v-45.192z" style="" fill="#e59770" data-original="#e59770"></path><path d="m356.906 229.915-73.254-28.37-27.69 34.18-27.691-34.18-73.177 28.37S128 241.053 128 271.94v121.169a9.029 9.029 0 0 0 9.028 9.028h237.943a9.029 9.029 0 0 0 9.028-9.028V271.94c.001-30.887-27.093-42.025-27.093-42.025z" style="" fill="#e4eaf8" data-original="#e4eaf8"></path><path d="M148.605 393.109V261.637c0-18.314 9.525-29.683 17.28-35.906l-10.791 4.184S128 241.053 128 271.94v121.17a9.029 9.029 0 0 0 9.028 9.028h20.605a9.03 9.03 0 0 1-9.028-9.029z" style="" fill="#d8dce5" data-original="#d8dce5"></path><path d="M288.012 75.654a4.512 4.512 0 0 0-5.773-.704c-19.715 12.879-45.79 21.021-71.411 19.18-2.599-.197-4.84 1.877-4.84 4.502v39.589c0 25.444 19.937 48.684 50.094 48.684 26.845 0 48.685-21.84 48.685-48.684V95.436c-.001-2.366.1-1.665-16.755-19.782z" style="" fill="#f0a479" data-original="#f0a479" class=""></path><path d="M226.626 138.222V94.039a104.39 104.39 0 0 1-15.798.091c-2.599-.197-4.84 1.877-4.84 4.502v39.59c0 25.444 19.937 48.684 50.094 48.684 3.291 0 6.505-.332 9.615-.958-22.256-4.477-39.071-24.173-39.071-47.726z" style="" fill="#e59770" data-original="#e59770"></path><path d="m289.396 253.288 20.706-41.499-26.45-10.244-27.69 34.18 26.997 19.174a4.368 4.368 0 0 0 6.437-1.611z" style="" fill="#d8dce5" data-original="#d8dce5"></path><path d="m222.566 253.288-20.706-41.499 26.45-10.244 27.69 34.18-26.997 19.174a4.368 4.368 0 0 1-6.437-1.611z" style="" fill="#d8dce5" data-original="#d8dce5"></path><path d="m284.124 368.613-17.772-105.172H245.61l-17.772 105.172c-.187 1.355.211 2.731 1.058 3.665l24.536 27.036a3.441 3.441 0 0 0 5.098 0l24.536-27.036c.847-.934 1.245-2.311 1.058-3.665z" style="" fill="#ff5050" data-original="#ff5050"></path><path d="M249.535 372.277c-.847-.934-1.245-2.31-1.058-3.665l17.772-105.172H245.61l-17.772 105.172c-.187 1.355.211 2.731 1.058 3.665l24.536 27.035a3.441 3.441 0 0 0 5.098 0l7.77-8.562-16.765-18.473z" style="" fill="#ed3a3a" data-original="#ed3a3a"></path><path d="M255.998 235.749v-.024l-.017.012-.017-.012v.024l-19.636 13.945 9.282 13.97H266.352l9.282-13.97z" style="" fill="#ed3a3a" data-original="#ed3a3a"></path><path d="m266.284 243.054-10.286-7.305v-.024l-.017.012-.017-.012v.024l-19.636 13.946 9.282 13.969h20.604l-7.968-11.992a2.449 2.449 0 0 1 .622-3.352l7.416-5.266z" style="" fill="#db2a2a" data-original="#db2a2a"></path><path d="M383.375 109.863c-36.6 0-66.268 29.669-66.268 66.268v26.795c4.429-4.105 10.73-6.337 16.88-5.515v-3.302c0-2.625 2.241-4.699 4.84-4.502 25.621 1.841 51.696-6.301 71.411-19.18a4.512 4.512 0 0 1 5.773.704c16.855 18.118 16.753 17.416 16.753 19.782v6.484c6.742-1.011 12.722 1.073 16.877 4.936v-26.202c.002-36.6-29.666-66.268-66.266-66.268z" style="" fill="#707487" data-original="#707487" class=""></path><path d="M337.946 176.131c0-33.054 24.2-60.447 55.849-65.447a66.758 66.758 0 0 0-10.419-.822c-36.6 0-66.268 29.669-66.268 66.269v26.795c4.429-4.106 10.73-6.337 16.88-5.515v-3.302c0-2.322 1.755-4.205 3.958-4.475v-13.503z" style="" fill="#5b5d6e" data-original="#5b5d6e"></path><path d="M432.677 194.997v36.443c0 .395-.021.785-.03 1.179 12.896 1.953 22.997-7.365 22.997-18.809-.001-11.467-10.11-20.74-22.967-18.813z" style="" fill="#f0a479" data-original="#f0a479" class=""></path><path d="M449.673 200c-4.173-3.91-10.2-6.022-16.996-5.003v36.443c0 .395-.021.785-.03 1.179 6.817 1.032 12.851-1.086 17.026-5.002V200z" style="" fill="#e59770" data-original="#e59770"></path><path d="M334.135 231.485v-36.521c-11.256-1.503-23.025 7.135-23.025 18.846 0 11.458 10.104 20.817 23.054 18.857-.01-.395-.029-.788-.029-1.182z" style="" fill="#f0a479" data-original="#f0a479" class=""></path><path d="M334.135 225.818a18.901 18.901 0 0 1-4.275-12.009c0-4.367 1.638-8.307 4.275-11.453v-7.393c-11.256-1.503-23.026 7.135-23.026 18.846 0 11.458 10.104 20.817 23.054 18.857-.009-.394-.029-.787-.029-1.181l.001-5.667z" style="" fill="#e59770" data-original="#e59770"></path><path d="M384.081 277.729c-10.706 0-20.115-2.939-27.81-7.856v27.149l27.691 34.18 27.69-34.18v-27.883a48.408 48.408 0 0 1-27.571 8.59z" style="" fill="#f0a479" data-original="#f0a479" class=""></path><path d="M376.876 277.263c-7.754-1.005-14.688-3.61-20.605-7.39v27.149l20.605 25.433v-45.192z" style="" fill="#e59770" data-original="#e59770"></path><path d="m484.906 323.065-73.254-28.37-27.69 34.18-27.691-34.18-73.177 28.37S256 334.204 256 365.09v121.169a9.029 9.029 0 0 0 9.028 9.028h237.943a9.029 9.029 0 0 0 9.028-9.028V365.09c.001-30.887-27.093-42.025-27.093-42.025z" style="" fill="#e4eaf8" data-original="#e4eaf8"></path><path d="M276.605 486.259V354.787c0-18.314 9.525-29.683 17.28-35.906l-10.791 4.184S256 334.203 256 365.09v121.17a9.029 9.029 0 0 0 9.029 9.028h20.605a9.03 9.03 0 0 1-9.029-9.029z" style="" fill="#d8dce5" data-original="#d8dce5"></path><path d="M416.012 168.804a4.512 4.512 0 0 0-5.773-.704c-19.715 12.879-45.79 21.021-71.411 19.18-2.599-.197-4.84 1.877-4.84 4.502v39.589c0 25.444 19.937 48.684 50.094 48.684 26.845 0 48.685-21.84 48.685-48.684v-42.785c-.002-2.365.1-1.665-16.755-19.782z" style="" fill="#f0a479" data-original="#f0a479" class=""></path><path d="M354.626 231.372V187.19a104.39 104.39 0 0 1-15.798.091c-2.599-.197-4.84 1.877-4.84 4.502v39.59c0 25.444 19.937 48.684 50.094 48.684 3.291 0 6.505-.332 9.615-.958-22.256-4.478-39.071-24.174-39.071-47.727z" style="" fill="#e59770" data-original="#e59770"></path><path d="m417.396 346.438 20.706-41.499-26.45-10.244-27.69 34.18 26.997 19.174a4.368 4.368 0 0 0 6.437-1.611z" style="" fill="#d8dce5" data-original="#d8dce5"></path><path d="m350.566 346.438-20.706-41.499 26.45-10.244 27.69 34.18-26.997 19.174a4.368 4.368 0 0 1-6.437-1.611z" style="" fill="#d8dce5" data-original="#d8dce5"></path><path d="m412.124 461.763-17.772-105.172H373.61l-17.772 105.172c-.187 1.355.211 2.731 1.058 3.665l24.536 27.036a3.441 3.441 0 0 0 5.098 0l24.536-27.036c.847-.935 1.244-2.31 1.058-3.665z" style="" fill="#ff5050" data-original="#ff5050"></path><path d="M377.535 465.428c-.847-.934-1.245-2.31-1.058-3.665l17.772-105.172H373.61l-17.772 105.172c-.187 1.355.211 2.731 1.058 3.665l24.536 27.035a3.441 3.441 0 0 0 5.098 0l7.77-8.562-16.765-18.473z" style="" fill="#ed3a3a" data-original="#ed3a3a"></path><path d="M383.998 328.898v-.023l-.017.012-.017-.012v.023l-19.636 13.946 9.282 13.97H394.352l9.281-13.97z" style="" fill="#ed3a3a" data-original="#ed3a3a"></path><path d="m394.283 336.204-10.286-7.305v-.024l-.017.012-.017-.012v.024l-19.636 13.946 9.282 13.969h20.604l-7.968-11.992a2.45 2.45 0 0 1 .622-3.353l7.416-5.265z" style="" fill="#db2a2a" data-original="#db2a2a"></path><path d="M308.715 495.288V379.075a7.727 7.727 0 0 0-15.454 0v116.212l15.454.001zM473.488 495.288V379.075a7.727 7.727 0 0 0-15.454 0v116.212l15.454.001z" style="" fill="#d8dce5" data-original="#d8dce5"></path><path d="M127.375 109.863c-36.6 0-66.268 29.669-66.268 66.268v26.795c4.429-4.105 10.73-6.337 16.88-5.515v-3.302c0-2.625 2.241-4.699 4.84-4.502 25.621 1.841 51.696-6.301 71.411-19.18a4.512 4.512 0 0 1 5.773.704c16.855 18.118 16.753 17.416 16.753 19.782v6.484c6.742-1.011 12.722 1.073 16.877 4.936v-26.202c.002-36.6-29.666-66.268-66.266-66.268z" style="" fill="#707487" data-original="#707487" class=""></path><path d="M81.946 176.131c0-33.054 24.2-60.447 55.849-65.447a66.758 66.758 0 0 0-10.419-.822c-36.6 0-66.268 29.669-66.268 66.269v26.795c4.429-4.106 10.73-6.337 16.88-5.515v-3.302c0-2.322 1.755-4.205 3.958-4.475v-13.503z" style="" fill="#5b5d6e" data-original="#5b5d6e"></path><path d="M176.677 194.997v36.443c0 .395-.021.785-.03 1.179 12.896 1.953 22.997-7.365 22.997-18.809-.001-11.467-10.11-20.74-22.967-18.813z" style="" fill="#f0a479" data-original="#f0a479" class=""></path><path d="M193.673 200c-4.173-3.91-10.2-6.022-16.996-5.003v36.443c0 .395-.021.785-.03 1.179 6.817 1.032 12.851-1.086 17.026-5.002V200z" style="" fill="#e59770" data-original="#e59770"></path><path d="M78.135 231.485v-36.521c-11.256-1.503-23.026 7.135-23.026 18.846 0 11.458 10.104 20.817 23.054 18.857-.009-.395-.028-.788-.028-1.182z" style="" fill="#f0a479" data-original="#f0a479" class=""></path><path d="M78.135 225.818a18.901 18.901 0 0 1-4.275-12.009c0-4.367 1.638-8.307 4.275-11.453v-7.393c-11.256-1.503-23.026 7.135-23.026 18.846 0 11.458 10.104 20.817 23.054 18.857-.009-.394-.029-.787-.029-1.181l.001-5.667z" style="" fill="#e59770" data-original="#e59770"></path><path d="M128.081 277.729c-10.706 0-20.115-2.939-27.81-7.856v27.149l27.691 34.18 27.69-34.18v-27.883a48.408 48.408 0 0 1-27.571 8.59z" style="" fill="#f0a479" data-original="#f0a479" class=""></path><path d="M120.876 277.263c-7.754-1.005-14.688-3.61-20.605-7.39v27.149l20.605 25.433v-45.192z" style="" fill="#e59770" data-original="#e59770"></path><path d="m228.906 323.065-73.254-28.37-27.69 34.18-27.691-34.18-73.177 28.37S0 334.204 0 365.09v121.169a9.029 9.029 0 0 0 9.028 9.028h237.943a9.029 9.029 0 0 0 9.028-9.028V365.09c.001-30.887-27.093-42.025-27.093-42.025z" style="" fill="#e4eaf8" data-original="#e4eaf8"></path><path d="M20.605 486.259V354.787c0-18.314 9.525-29.683 17.28-35.906l-10.791 4.184S0 334.203 0 365.09v121.17a9.029 9.029 0 0 0 9.028 9.028h20.605a9.03 9.03 0 0 1-9.028-9.029z" style="" fill="#d8dce5" data-original="#d8dce5"></path><path d="M160.012 168.804a4.512 4.512 0 0 0-5.773-.704c-19.715 12.879-45.79 21.021-71.411 19.18-2.599-.197-4.84 1.877-4.84 4.502v39.589c0 25.444 19.937 48.684 50.094 48.684 26.845 0 48.685-21.84 48.685-48.684v-42.785c-.001-2.365.1-1.665-16.755-19.782z" style="" fill="#f0a479" data-original="#f0a479" class=""></path><path d="M98.626 231.372V187.19a104.39 104.39 0 0 1-15.798.091c-2.599-.197-4.84 1.877-4.84 4.502v39.59c0 25.444 19.937 48.684 50.094 48.684 3.291 0 6.505-.332 9.615-.958-22.256-4.478-39.071-24.174-39.071-47.727z" style="" fill="#e59770" data-original="#e59770"></path><path d="m161.396 346.438 20.706-41.499-26.45-10.244-27.69 34.18 26.997 19.174a4.368 4.368 0 0 0 6.437-1.611z" style="" fill="#d8dce5" data-original="#d8dce5"></path><path d="M94.566 346.438 73.86 304.939l26.45-10.244 27.69 34.18-26.997 19.174a4.368 4.368 0 0 1-6.437-1.611z" style="" fill="#d8dce5" data-original="#d8dce5"></path><path d="m156.124 461.763-17.772-105.172H117.61L99.838 461.763c-.187 1.355.211 2.731 1.058 3.665l24.536 27.036a3.441 3.441 0 0 0 5.098 0l24.536-27.036c.847-.935 1.245-2.31 1.058-3.665z" style="" fill="#ff5050" data-original="#ff5050"></path><path d="M121.535 465.428c-.847-.934-1.245-2.31-1.058-3.665l17.772-105.172H117.61L99.838 461.763c-.187 1.355.211 2.731 1.058 3.665l24.536 27.035a3.441 3.441 0 0 0 5.098 0l7.77-8.562-16.765-18.473z" style="" fill="#ed3a3a" data-original="#ed3a3a"></path><path d="M127.998 328.898v-.023l-.017.012-.017-.012v.023l-19.636 13.946 9.282 13.97H138.352l9.281-13.97z" style="" fill="#ed3a3a" data-original="#ed3a3a"></path><path d="m138.283 336.204-10.286-7.305v-.024l-.017.012-.017-.012v.024l-19.636 13.946 9.282 13.969h20.604l-7.968-11.992a2.45 2.45 0 0 1 .622-3.353l7.416-5.265z" style="" fill="#db2a2a" data-original="#db2a2a"></path><path d="M52.715 495.288V379.075a7.727 7.727 0 0 0-15.454 0v116.212l15.454.001zM217.488 495.288V379.075a7.727 7.727 0 0 0-15.454 0v116.212l15.454.001z" style="" fill="#d8dce5" data-original="#d8dce5"></path></g></svg>