<svg xmlns="http://www.w3.org/2000/svg" version="1.1" xmlns:xlink="http://www.w3.org/1999/xlink" width="512" height="512" x="0" y="0" viewBox="0 0 16.933 16.933" style="enable-background:new 0 0 512 512" xml:space="preserve" class=""><g><path fill="#fdd5a6" d="M8.996 10.848c-.553 0-1.007.433-1.05.977L4.96 10.99c-.528-.148-1.079-.093-1.385.412-.301.497-.1 1.133.377 1.439l3.838 2.457c1.085.771 2.425.633 3.014.486l3.22-.699v-3.513c-.335-.238-1.137-.725-2.116-.725zM6.794 1.033a4.16 4.16 0 0 0-.929.114l-2.955.698V5.36c.335.239 1.138.728 2.118.728h5.556s.152-1.853.152-3.127L8.885 1.637c-.543-.388-1.15-.548-1.696-.592a4.248 4.248 0 0 0-.395-.012z" opacity="1" data-original="#fdd5a6" class=""></path><path fill="#5dd39e" d="M6.086 2.91a.798.798 0 0 0-.795.793v4.764c0 .435.36.793.795.793h8.467a.797.797 0 0 0 .793-.793V3.703a.797.797 0 0 0-.793-.793z" opacity="1" data-original="#5dd39e" class=""></path><path fill="#55c090" d="M7.143 4.233c0 .295-.232.529-.528.529a.265.265 0 0 0-.265.266v2.115c0 .147.119.266.265.265.296 0 .528.234.528.53 0 .146.12.264.265.263h5.82a.265.265 0 0 0 .266-.263c0-.296.234-.53.53-.53.146 0 .264-.12.263-.265V5.028a.265.265 0 0 0-.263-.266.525.525 0 0 1-.53-.53.265.265 0 0 0-.265-.263H7.395a.266.266 0 0 0-.252.264z" opacity="1" data-original="#55c090" class=""></path><path fill="#5dd39e" d="M10.319 5.028c-.582 0-1.059.475-1.059 1.056 0 .582.477 1.059 1.059 1.059.581 0 1.058-.477 1.058-1.059 0-.581-.477-1.056-1.058-1.056z" opacity="1" data-original="#5dd39e" class=""></path><path fill="#100a0a" d="M14.024 10.582a.265.265 0 0 0-.266.266v4.762a.265.265 0 0 0 .266.265h2.115a.265.265 0 0 0 .266-.265v-4.762a.265.265 0 0 0-.266-.266z" opacity="1" data-original="#ff6b6b" class=""></path><path fill="#840012" d="M.53 1.322v4.765c0 .145.117.262.263.263H2.91a.265.265 0 0 0 .266-.263V1.322a.265.265 0 0 0-.266-.263H.78a.266.266 0 0 0-.25.263z" opacity="1" data-original="#dbe9ee" class=""></path><path fill="#fdd5a6" d="m4.456 3.97.835 2.116h2.117c.582 0 1.059-.477 1.059-1.058 0-.582-.477-1.059-1.059-1.059z" opacity="1" data-original="#fdd5a6" class=""></path><path fill="#fdce97" d="M7.427 11.68c-.148.957.62 1.812 1.57 1.812h2.38c.384.035.384-.561 0-.527h-2.38c-.655 0-1.117-.602-1.053-1.14z" opacity="1" data-original="#fdce97" class=""></path></g></svg>