<svg xmlns="http://www.w3.org/2000/svg" version="1.1" xmlns:xlink="http://www.w3.org/1999/xlink" width="512" height="512" x="0" y="0" viewBox="0 0 512 512" style="enable-background:new 0 0 512 512" xml:space="preserve" class=""><g><path fill="#830012" d="M244.999 5.501c-39.2 0-76.24 9.222-109.096 25.59v.001L34.933 376.633c42.855 71.218 120.892 118.865 210.066 118.865 135.309 0 244.999-109.69 244.999-244.999S380.308 5.501 244.999 5.501z" opacity="1" data-original="#3b3868" class=""></path><path fill="#49ce8b" d="M490.535 31.092H135.903c-26.908 13.404-50.997 31.614-71.156 53.502h373.638c10.878 0 19.727 8.85 19.727 19.727V324.87h32.422c11.836 0 21.466-9.63 21.466-21.465V52.557c0-11.835-9.629-21.465-21.465-21.465z" opacity="1" data-original="#49ce8b" class=""></path><path fill="#36b277" d="M165.134 31.092h-29.231c-26.908 13.404-50.997 31.614-71.156 53.502H180.74c-.406-1.421-1.196-2.715-2.347-3.679-7.434-6.232-6.847-13.939-5.356-18.85.888-2.925-.122-6.077-2.465-8.04-8.756-7.334-7.32-16.072-5.862-20.334a7.997 7.997 0 0 0 .424-2.599z" opacity="1" data-original="#36b277" class=""></path><path fill="#36b277" d="M477.347 57.166H94.527a246.439 246.439 0 0 0-29.78 27.427h373.638c10.878 0 19.727 8.85 19.727 19.727v194.474h19.236a8.577 8.577 0 0 0 8.578-8.577V65.744a8.58 8.58 0 0 0-8.579-8.578z" opacity="1" data-original="#36b277" class=""></path><path fill="#279b61" d="M64.747 84.594H180.74c-.406-1.421-1.196-2.715-2.347-3.679-7.434-6.232-6.847-13.939-5.356-18.85.5-1.647.379-3.36-.223-4.898H94.527a246.358 246.358 0 0 0-29.78 27.427zM477.347 57.166H409.58a66.478 66.478 0 0 0 1.171 27.427h27.633c10.878 0 19.727 8.85 19.727 19.727v27.912a66.443 66.443 0 0 0 16.917 2.184c3.713 0 7.35-.319 10.897-.906V65.744a8.578 8.578 0 0 0-8.578-8.578z" opacity="1" data-original="#279b61" class=""></path><path fill="#49ce8b" d="M438.385 82.855H66.352C25.205 126.678 0 185.643 0 250.499c0 46.136 12.761 89.287 34.933 126.134h403.451c11.836 0 21.466-9.63 21.466-21.465V104.321c0-11.836-9.629-21.466-21.465-21.466z" opacity="1" data-original="#49ce8b" class=""></path><path fill="#36b277" d="M0 250.499c0 46.136 12.761 89.287 34.933 126.134h173.382v-47.804c0-2.91-1.38-5.594-3.6-7.475-3.178-2.694-3.957-6.049-3.891-8.846.08-3.403-1.501-6.582-4.285-8.542-8.302-5.845-8.615-14.148-8.316-17.671a9.785 9.785 0 0 0-.437-3.792l-1.007-3.165a9.891 9.891 0 0 1 .618-7.531c4.701-9.127 14.942-33.758-6.339-42.063-18.811-7.341-21.045-23.387-20.79-31.946.101-3.361-1.501-6.563-4.287-8.446-10.883-7.359-12.508-17.245-12.104-23.883.259-4.245-2.22-8.141-6.135-9.802-23.789-10.089-23.086-31.494-21.289-41.445.575-3.185-.502-6.441-2.792-8.728-5.556-5.547-6.607-11.224-6.275-15.506a9.867 9.867 0 0 0-2.307-7.133H66.352C25.205 126.678 0 185.642 0 250.499z" opacity="1" data-original="#36b277" class=""></path><path fill="#36b277" d="M425.198 108.93H45.03C16.672 148.906 0 197.754 0 250.499c0 35.646 7.624 69.507 21.314 100.059h403.883a8.578 8.578 0 0 0 8.578-8.578V117.508a8.577 8.577 0 0 0-8.577-8.578z" opacity="1" data-original="#36b277" class=""></path><g fill="#279b61"><path d="M0 250.499c0 35.646 7.624 69.507 21.314 100.059h187.001v-21.729c0-2.91-1.38-5.594-3.6-7.475-3.178-2.694-3.957-6.049-3.891-8.846.08-3.403-1.501-6.582-4.285-8.542-8.302-5.845-8.615-14.148-8.316-17.671a9.785 9.785 0 0 0-.437-3.792l-1.007-3.165a9.891 9.891 0 0 1 .618-7.531c4.701-9.127 14.942-33.758-6.339-42.063-18.811-7.341-21.045-23.387-20.79-31.946.101-3.361-1.501-6.563-4.287-8.446-10.883-7.359-12.508-17.245-12.104-23.883.259-4.245-2.22-8.141-6.135-9.802-23.789-10.089-23.086-31.494-21.289-41.445.326-1.807.104-3.63-.552-5.293H45.03C16.672 148.906 0 197.754 0 250.499zM433.775 117.508v67.767a66.674 66.674 0 0 1-10.897.906c-36.646 0-66.354-29.707-66.354-66.353 0-3.713.32-7.35.906-10.897h67.767a8.577 8.577 0 0 1 8.578 8.577zM433.775 341.98v-67.767a66.784 66.784 0 0 0-10.897-.906c-36.646 0-66.354 29.707-66.354 66.353 0 3.713.32 7.35.906 10.897h67.767a8.576 8.576 0 0 0 8.578-8.577z" fill="#279b61" opacity="1" data-original="#279b61" class=""></path><circle cx="181.058" cy="229.744" r="79.963" fill="#279b61" opacity="1" data-original="#279b61" class=""></circle></g><path fill="#1c8c51" d="M196.539 303.966c-8.302-5.845-8.615-14.148-8.316-17.671a9.785 9.785 0 0 0-.437-3.792l-1.007-3.165a9.891 9.891 0 0 1 .618-7.531c4.701-9.127 14.942-33.758-6.339-42.063-18.811-7.341-21.045-23.387-20.79-31.946.101-3.361-1.501-6.563-4.287-8.446-10.883-7.359-12.508-17.245-12.104-23.883a9.867 9.867 0 0 0-1.433-5.751c-24.65 13.622-41.35 39.869-41.35 70.025 0 44.163 35.801 79.963 79.963 79.963a80.1 80.1 0 0 0 18.591-2.196 10.044 10.044 0 0 0-3.109-3.544z" opacity="1" data-original="#1c8c51"></path><circle cx="399.143" cy="408.927" r="97.573" fill="#ffdd40" transform="rotate(-82.88 399.427 409.054)" opacity="1" data-original="#ffdd40"></circle><path fill="#ffb332" d="M301.57 408.927c0 53.888 43.685 97.573 97.573 97.573 26.051 0 49.699-10.229 67.198-26.865a3.102 3.102 0 0 0-1.629-.738c-6.085-.79-7.197-4.775-7.223-7.492a3.147 3.147 0 0 0-2.395-3.043c-6.699-1.659-7.89-6.509-7.95-9.512-.029-1.459-1.108-2.666-2.541-2.941-23.868-4.58-22.357-23.192-21.755-27.144a3.082 3.082 0 0 0-.193-1.65c-1.177-2.832-6.111-11.689-23.512-18.189-17.01-6.354-17.431-24.341-16.982-30.918.097-1.423-.798-2.69-2.146-3.155-13.544-4.666-13.443-17.159-12.669-22.696.209-1.498-.69-2.887-2.117-3.387-6.72-2.356-6.902-8.096-6.372-11.417.22-1.377-.534-2.68-1.811-3.239-4.429-1.941-4.929-5.974-4.725-8.594a3.136 3.136 0 0 0-.486-1.931c-29.972 16.652-50.265 48.619-50.265 85.338z" opacity="1" data-original="#ffb332"></path><circle cx="399.143" cy="408.927" r="67.166" fill="#fceca9" transform="rotate(-45 399.1 409.03)" opacity="1" data-original="#fceca9"></circle><path fill="#ffdd40" d="M446.249 456.789a3.17 3.17 0 0 0-1.646-.88c-23.868-4.58-22.357-23.192-21.755-27.144a3.082 3.082 0 0 0-.193-1.65c-1.177-2.832-6.111-11.689-23.512-18.189-17.01-6.354-17.431-24.341-16.982-30.918.097-1.423-.798-2.69-2.146-3.155-13.544-4.666-13.443-17.159-12.669-22.696a3.053 3.053 0 0 0-.494-2.133c-20.785 11.419-34.876 33.512-34.876 58.901 0 37.095 30.071 67.166 67.166 67.166 18.356.001 34.984-7.369 47.107-19.302z" opacity="1" data-original="#ffdd40"></path><path fill="#ffb332" d="M399.143 341.761c37.095 0 67.166 30.071 67.166 67.166s-30.071 67.166-67.166 67.166-67.166-30.071-67.166-67.166 30.071-67.166 67.166-67.166m0-16.721c-46.255 0-83.887 37.631-83.887 83.886s37.631 83.887 83.887 83.887c46.255 0 83.886-37.631 83.886-83.887s-37.631-83.886-83.886-83.886z" opacity="1" data-original="#ffb332"></path><path fill="#ff9100" d="M399.143 492.813c22.383 0 42.731-8.829 57.788-23.167a3.122 3.122 0 0 0-1.837-1.284c-6.699-1.659-7.89-6.509-7.95-9.512a2.987 2.987 0 0 0-.895-2.06c-12.123 11.933-28.751 19.303-47.106 19.303-37.095 0-67.166-30.071-67.166-67.166 0-25.389 14.091-47.483 34.876-58.901a3.233 3.233 0 0 0-1.623-1.255c-6.72-2.356-6.902-8.096-6.372-11.417a2.942 2.942 0 0 0-.293-1.814c-25.801 14.323-43.308 41.844-43.308 73.387 0 46.255 37.631 83.886 83.886 83.886z" opacity="1" data-original="#ff9100"></path><circle cx="327.383" cy="408.927" r="97.573" fill="#ffdd40" opacity="1" data-original="#ffdd40"></circle><path fill="#ffb332" d="M229.81 408.927c0 53.888 43.685 97.573 97.573 97.573 26.051 0 49.698-10.229 67.198-26.865a3.102 3.102 0 0 0-1.629-.738c-6.085-.79-7.197-4.775-7.223-7.492a3.147 3.147 0 0 0-2.395-3.043c-6.699-1.659-7.89-6.509-7.95-9.512-.029-1.459-1.109-2.666-2.541-2.941-23.868-4.58-22.357-23.192-21.755-27.144a3.082 3.082 0 0 0-.193-1.65c-1.176-2.832-6.111-11.689-23.512-18.189-17.01-6.354-17.431-24.341-16.982-30.918.097-1.423-.797-2.69-2.146-3.155-13.543-4.666-13.443-17.159-12.669-22.696.209-1.498-.69-2.887-2.117-3.387-6.72-2.356-6.902-8.096-6.372-11.417.22-1.377-.534-2.68-1.811-3.239-4.429-1.941-4.929-5.974-4.726-8.594a3.136 3.136 0 0 0-.486-1.931c-29.971 16.652-50.264 48.619-50.264 85.338z" opacity="1" data-original="#ffb332"></path><circle cx="327.383" cy="408.927" r="67.166" fill="#fceca9" transform="rotate(-66.48 327.3 408.876)" opacity="1" data-original="#fceca9"></circle><path fill="#ffdd40" d="M374.489 456.789a3.17 3.17 0 0 0-1.646-.88c-23.868-4.58-22.357-23.192-21.755-27.144a3.082 3.082 0 0 0-.193-1.65c-1.176-2.832-6.111-11.689-23.512-18.189-17.01-6.354-17.431-24.341-16.982-30.918.097-1.423-.797-2.69-2.146-3.155-13.543-4.666-13.443-17.159-12.669-22.696a3.053 3.053 0 0 0-.494-2.133c-20.785 11.419-34.876 33.512-34.876 58.901 0 37.095 30.071 67.166 67.166 67.166 18.356.001 34.984-7.369 47.107-19.302z" opacity="1" data-original="#ffdd40"></path><path fill="#ffb332" d="M327.383 341.761c37.095 0 67.166 30.071 67.166 67.166s-30.071 67.166-67.166 67.166-67.166-30.071-67.166-67.166 30.071-67.166 67.166-67.166m0-16.721c-46.255 0-83.887 37.631-83.887 83.886s37.631 83.887 83.887 83.887c46.255 0 83.886-37.631 83.886-83.887s-37.631-83.886-83.886-83.886z" opacity="1" data-original="#ffb332"></path><path fill="#ff9100" d="M327.383 492.813c22.383 0 42.73-8.829 57.788-23.167a3.122 3.122 0 0 0-1.837-1.284c-6.699-1.659-7.89-6.509-7.95-9.512a2.987 2.987 0 0 0-.895-2.06c-12.123 11.933-28.751 19.303-47.106 19.303-37.095 0-67.166-30.071-67.166-67.166 0-25.389 14.091-47.483 34.876-58.901a3.237 3.237 0 0 0-1.623-1.255c-6.72-2.356-6.902-8.096-6.372-11.417a2.942 2.942 0 0 0-.293-1.814c-25.801 14.323-43.308 41.844-43.308 73.387 0 46.255 37.631 83.886 83.886 83.886z" opacity="1" data-original="#ff9100"></path><circle cx="255.623" cy="408.927" r="97.573" fill="#ffdd40" transform="rotate(-82.65 255.731 408.874)" opacity="1" data-original="#ffdd40"></circle><path fill="#ffb332" d="M158.05 408.927c0 53.888 43.685 97.573 97.573 97.573 26.051 0 49.699-10.229 67.198-26.865a3.105 3.105 0 0 0-1.629-.738c-6.085-.79-7.197-4.775-7.223-7.492a3.147 3.147 0 0 0-2.395-3.043c-6.699-1.659-7.89-6.509-7.95-9.512-.029-1.459-1.108-2.666-2.541-2.941-23.868-4.58-22.357-23.192-21.755-27.144a3.082 3.082 0 0 0-.193-1.65c-1.176-2.832-6.111-11.689-23.512-18.189-17.01-6.354-17.431-24.341-16.982-30.918.097-1.423-.798-2.69-2.146-3.155-13.544-4.666-13.443-17.159-12.669-22.696.209-1.498-.69-2.887-2.117-3.387-6.72-2.356-6.902-8.096-6.372-11.417.219-1.377-.534-2.68-1.811-3.239-4.429-1.941-4.929-5.974-4.726-8.594a3.142 3.142 0 0 0-.485-1.931c-29.972 16.652-50.265 48.619-50.265 85.338z" opacity="1" data-original="#ffb332"></path><circle cx="255.623" cy="408.927" r="67.166" fill="#fceca9" transform="rotate(-45 255.568 409.005)" opacity="1" data-original="#fceca9"></circle><path fill="#ffdd40" d="M302.729 456.789a3.17 3.17 0 0 0-1.646-.88c-23.868-4.58-22.357-23.192-21.755-27.144a3.082 3.082 0 0 0-.193-1.65c-1.176-2.832-6.111-11.689-23.512-18.189-17.01-6.354-17.431-24.341-16.982-30.918.097-1.423-.798-2.69-2.146-3.155-13.544-4.666-13.443-17.159-12.669-22.696a3.053 3.053 0 0 0-.494-2.133c-20.785 11.419-34.876 33.512-34.876 58.901 0 37.095 30.071 67.166 67.166 67.166 18.356.001 34.984-7.369 47.107-19.302z" opacity="1" data-original="#ffdd40"></path><path fill="#ffb332" d="M255.623 341.761c37.095 0 67.166 30.071 67.166 67.166s-30.071 67.166-67.166 67.166-67.166-30.071-67.166-67.166 30.071-67.166 67.166-67.166m0-16.721c-46.255 0-83.887 37.631-83.887 83.886s37.631 83.887 83.887 83.887c46.255 0 83.886-37.631 83.886-83.887s-37.631-83.886-83.886-83.886z" opacity="1" data-original="#ffb332"></path><path fill="#ff9100" d="M255.623 492.813c22.383 0 42.731-8.829 57.788-23.167a3.122 3.122 0 0 0-1.837-1.284c-6.699-1.659-7.89-6.509-7.95-9.512a2.987 2.987 0 0 0-.895-2.06c-12.123 11.933-28.751 19.303-47.106 19.303-37.095 0-67.166-30.071-67.166-67.166 0-25.389 14.091-47.483 34.876-58.901a3.233 3.233 0 0 0-1.623-1.255c-6.72-2.356-6.902-8.096-6.372-11.417a2.942 2.942 0 0 0-.293-1.814c-25.801 14.323-43.308 41.844-43.308 73.387 0 46.255 37.631 83.886 83.886 83.886z" opacity="1" data-original="#ff9100"></path><path fill="#ff9100" d="M255.623 459.548a8.36 8.36 0 0 1-8.36-8.36v-10.969a8.36 8.36 0 0 1 16.72 0v10.969a8.36 8.36 0 0 1-8.36 8.36zM255.623 385.306a8.36 8.36 0 0 1-8.36-8.36v-10.28a8.36 8.36 0 0 1 16.72 0v10.28a8.36 8.36 0 0 1-8.36 8.36z" opacity="1" data-original="#ff9100"></path><path fill="#ffb332" d="M254.605 448.581c-7.548 0-12.266-.877-19.367-5.522a8.36 8.36 0 0 1-2.42-11.572 8.357 8.357 0 0 1 11.572-2.42c4.013 2.625 5.323 2.824 10.807 2.792 5.265-.035 7.364-4.168 7.773-6.604.533-3.169-.844-5.358-4.09-6.505l-.169-.062-12.011-4.539c-10.79-3.859-16.781-13.897-14.914-25.008a24.608 24.608 0 0 1 24.151-20.553c7.974-.047 12.753.732 20.072 5.52a8.36 8.36 0 0 1-9.154 13.992c-4.012-2.625-5.32-2.829-10.806-2.792-5.265.035-7.364 4.168-7.773 6.605-.532 3.169.844 5.357 4.09 6.505l.169.062 12.011 4.539c10.791 3.859 16.781 13.897 14.913 25.008a24.608 24.608 0 0 1-24.151 20.553l-.703.001z" opacity="1" data-original="#ffb332"></path><path fill="#49ce8b" d="M338.19 238.436h-29.518a8.692 8.692 0 1 1 0-17.384h29.518a8.692 8.692 0 1 1 0 17.384z" opacity="1" data-original="#49ce8b" class=""></path><path fill="#36b277" d="M53.443 238.436H23.926a8.692 8.692 0 1 1 0-17.384h29.518a8.692 8.692 0 1 1-.001 17.384z" opacity="1" data-original="#36b277" class=""></path><path fill="#49ce8b" d="M181.058 288.749a8.692 8.692 0 0 1-8.692-8.692v-13.059a8.692 8.692 0 1 1 17.384 0v13.059a8.693 8.693 0 0 1-8.692 8.692zM181.058 200.363a8.692 8.692 0 0 1-8.692-8.692v-12.24a8.692 8.692 0 1 1 17.384 0v12.24a8.693 8.693 0 0 1-8.692 8.692z" opacity="1" data-original="#49ce8b" class=""></path><path fill="#67e8a4" d="M179.799 275.692c-8.862.001-14.092-.986-22.32-6.368a8.69 8.69 0 0 1-2.515-12.031 8.69 8.69 0 0 1 12.032-2.516c5.039 3.297 6.798 3.558 13.564 3.53 6.184-.041 9.773-4.65 10.49-8.915.423-2.515.245-7.045-5.693-9.144a3.713 3.713 0 0 1-.176-.065l-14.309-5.407c-12.259-4.38-19.067-15.773-16.947-28.381 1.943-11.557 12.019-23.312 27.517-23.415 9.389-.093 14.701.808 23.196 6.365a8.69 8.69 0 1 1-9.517 14.547c-5.038-3.296-6.807-3.569-13.564-3.529-6.184.041-9.773 4.65-10.49 8.915-.423 2.514-.245 7.044 5.693 9.143.059.02.118.042.176.064l14.309 5.407c12.259 4.38 19.067 15.773 16.947 28.381-1.943 11.558-12.02 23.314-27.517 23.416-.296.003-.588.003-.876.003z" opacity="1" data-original="#67e8a4"></path></g></svg>