<svg xmlns="http://www.w3.org/2000/svg" version="1.1" xmlns:xlink="http://www.w3.org/1999/xlink" width="512" height="512" x="0" y="0" viewBox="0 0 512 512" style="enable-background:new 0 0 512 512" xml:space="preserve" class=""><g><circle cx="256" cy="256" r="256" style="" fill="#840012" data-original="#ffd15d" class="" opacity="1"></circle><path d="M329.285 501.336c89.14-26.588 157.899-100.416 177.233-192.45L367.192 169.562l-73.201 24.083-62.376-62.376-59.799 41.696 35.418 93.746 46.754 46.754-102.284 10.29 177.581 177.581z" style="" fill="#58010d" data-original="#f9b54c" class="" opacity="1"></path><path d="m311.661 226.604-24.381 24.381 38.293 38.292H151.704v34.478h173.869l-38.293 38.293 24.381 24.379 79.91-79.911zM367.192 169.562h-173.87l38.293-38.292-24.381-24.381-79.91 79.912 79.91 79.911 24.381-24.381-38.293-38.291h173.87z" style="" fill="#ffffff" data-original="#324a5e" class="" opacity="1"></path><path d="m311.661 226.604-24.381 24.381 38.293 38.292h-70.147v34.478h70.147l-38.293 38.293 24.381 24.379 79.91-79.911zM255.431 169.563h111.766v34.478H255.431z" style="" fill="#ffffff" data-original="#2b3b4e" class="" opacity="1"></path></g></svg>